<?xml version="1.0" encoding="utf-8"?>
<!-- Generator: Adobe Illustrator 24.0.1, SVG Export Plug-In . SVG Version: 6.00 Build 0)  -->
<svg version="1.1" id="about_title.svg" xmlns="http://www.w3.org/2000/svg" xmlns:xlink="http://www.w3.org/1999/xlink" x="0px"
	 y="0px" viewBox="0 0 568.2 239.4" style="enable-background:new 0 0 568.2 239.4;" xml:space="preserve">
<style type="text/css">
	.st0{fill-rule:evenodd;clip-rule:evenodd;fill:#F45F4A;}
	.st1{fill:#F45F4A;}
</style>
<path id="ABOUT" class="st0" d="M2.8,237.7h18.9c2.9,0,5.5-1.6,7-4.1l8.8-13.7H84l3.5,13.6c0.9,3.2,2.1,4.3,5.2,4.3h19
	c2,0.1,3.8-1.4,3.9-3.5c0-0.3,0-0.7-0.1-1L84.3,117.9c-0.4-1.1-1.4-1.9-2.6-1.9H80c-1.3,0.1-2.5,0.8-3.3,1.9l-76,115.4
	C-0.8,235.5,0.2,237.7,2.8,237.7z M52.2,196.6l18.3-28.3h0.2l7.5,28.3H52.2z M125,234.5c-0.4,1.4,0.5,2.8,1.9,3.2
	c0.3,0.1,0.5,0.1,0.8,0.1h42.5c20.4,0,40.1-13.9,43.8-33.1c3.1-15.8-9.2-24.2-17.6-27.9c8.9-4.3,22.6-13.9,25.1-27.1
	c3.5-18-10.4-31.9-30.7-31.9h-39.9c-1.9,0.1-3.5,1.4-3.9,3.3L125,234.5z M165,166.4l4.7-24H183c6.5,0,11.1,4.8,9.7,11.6
	s-7.9,12.3-14.4,12.3H165z M155.9,213.2l4.8-24.5h13.9c6.7,0,13.1,5.1,11.7,12c-1.4,7-8.1,12.5-14.8,12.5H155.9L155.9,213.2z
	 M227.8,177.9c-6.7,34.3,15.3,61.5,49.6,61.5s67-27.3,73.6-61.5S335.6,116,301.4,116S234.5,143.6,227.8,177.9L227.8,177.9z
	 M255.2,177.9c3.7-18.9,22.1-34.4,40.8-34.4c18.9,0,31.2,15.6,27.6,34.4c-3.6,18.7-22.1,34.1-40.9,34.1
	C264.1,212,251.6,196.6,255.2,177.9L255.2,177.9z M361.3,191.8c-5.1,26.1,12.5,47.7,39.4,47.7c27.1,0,53.2-21.6,58.3-47.7l13.7-70.8
	c0.3-1.5-0.6-2.9-2.1-3.2c-0.2,0-0.4-0.1-0.6-0.1H449c-1.9,0.1-3.5,1.4-3.9,3.3l-13.5,69.4c-2.3,12-13.3,21.6-25.6,21.6
	c-12.2,0-19.2-9.6-16.9-21.6l13.5-69.4c0.4-1.4-0.5-2.8-1.9-3.2c-0.2-0.1-0.5-0.1-0.7-0.1h-21.1c-1.9,0.1-3.4,1.4-3.9,3.3
	L361.3,191.8z M491.3,234.5c-0.3,1.4,0.6,2.9,2.1,3.2c0.2,0,0.4,0.1,0.6,0.1h20.6c1.9-0.1,3.4-1.4,3.9-3.3l17.8-91.5h24.5
	c1.9-0.1,3.5-1.4,3.9-3.3l3.6-18.7c0.4-1.4-0.5-2.8-1.9-3.2c-0.2-0.1-0.5-0.1-0.7-0.1h-76.1c-1.9,0.1-3.5,1.4-3.9,3.3l-3.6,18.7
	c-0.4,1.4,0.5,2.8,1.9,3.2c0.2,0.1,0.5,0.1,0.8,0.1H509L491.3,234.5z"/>
<g>
	<path class="st1" d="M310.5,44.7c0-6.2-3.7-11.1-8.3-11.1c-4.7,0-8.3,4.9-8.3,11.1s3.7,11.1,8.3,11.1
		C306.9,55.8,310.5,51,310.5,44.7"/>
	<path class="st1" d="M342.3,65.8c-2.5-8.4-12.8-11.3-20-13.2c-0.2,0-0.9-0.2-1-0.3c-0.3-0.1-0.5-0.3-0.5-0.7
		c-0.1-6.1-0.8-12.4-1.4-16c-0.2-1.1-0.4-2.2-0.7-3.3c-2.1-7.7-7.1-13.6-15.2-17.9c-1-0.5-2-1-3.1-1.4c-2.6-0.9-6-1.6-10.5-1.9
		c-0.9-0.1-1.7-0.8-1.7-1.8V7.9c0-3.8-3.1-6.8-6.8-6.8c-3.8,0-6.8,3.1-6.8,6.8v3.7c0,0.9-0.5,1.7-1.1,2.2c-0.8,0.6-1.4,1.3-2.1,2
		c-2.2,2.6-3.3,5.9-3.3,9.4v24.9c0,1.3,1.1,2.4,2.4,2.4s2.4-1.1,2.4-2.4V25.4c0-2.1,0.6-4.2,1.8-5.8c0.7-0.9,1.5-1.8,2.4-2.4
		c1.1-0.7,2.2-1.2,3.5-1.5c1.1-0.2,2.2-0.1,3.4-0.1c6.6,0.1,11.3,0.7,14.4,1.7c1.1,0.4,2.1,0.9,3.1,1.4c6.8,3.6,10.9,8.3,12.6,14.6
		c0.3,1.1,0.5,2.2,0.7,3.4c1.5,8.7,1.7,21.1,0.5,25.7c-0.3,1.1-1.2,1.9-2.2,2.4c-5,2.6-14.6,4-28.9,4.1c-1.1,0-2.3,0-3.4,0
		c-16.2-0.1-26.4-1.7-31.3-4.7c-0.1-0.1-0.2-0.1-0.3-0.2S249,64,249,63.9c-1.9-2.6-2-18.6-0.2-28.8c0.2-1.1,0.4-2.3,0.8-3.3
		c2.1-5.8,7.9-10.9,10.5-12.9c0.9-0.7,2-1.2,2.3-2.3c0-0.1,0.1-0.2,0.1-0.4c0.1-1.2-0.6-2.2-1.7-2.6c-0.1,0-0.2-0.1-0.4-0.1
		c-1.1-0.1-2.1,0.7-2.9,1.4c-3,2.3-10.2,8.4-12.6,15.9c-0.3,1.1-0.6,2.2-0.8,3.3c-0.8,4.5-1.4,10.6-1.5,16.2c0,1.1,0,2.3,0,3.4
		c0.2,11.7,2.6,13.6,3.6,14.2c0,0,0,0,0.1,0l0,0l0,0c0,0,0,0,0.1,0c0.1,0.1,0.2,0.1,0.3,0.2s0.5,0.3,0.6,0.4
		c7.6,4.9,16,8.6,22.8,11.3c1,0.4,2.1,0.8,3.1,1.2c8.3,3.2,17.9,6.4,28.2,7.5c1.1,0.1,2.2,0.2,3.3,0.3c1.1,0.1,2.2,0.1,3.2,0.1
		c6.8,0,13.3-1.1,19.3-3.2c1.1-0.4,2.1-0.8,3.1-1.2c4.2-1.9,7.4-4.2,9.6-7.1c0.7-0.9,1.3-1.9,1.8-2.9c0.8-1.7,1.2-3.4,1.2-5.2
		C342.8,68,342.6,66.8,342.3,65.8"/>
</g>
</svg>
