<?xml version="1.0" encoding="utf-8"?>
<!-- Generator: Adobe Illustrator 24.0.1, SVG Export Plug-In . SVG Version: 6.00 Build 0)  -->
<svg version="1.1" id="cast_title.svg" xmlns="http://www.w3.org/2000/svg" xmlns:xlink="http://www.w3.org/1999/xlink" x="0px"
	 y="0px" viewBox="0 0 1002.3 243.7" style="enable-background:new 0 0 1002.3 243.7;" xml:space="preserve">
<style type="text/css">
	.st0{fill-rule:evenodd;clip-rule:evenodd;fill:#F45F4A;}
	.st1{fill:#F45F4A;}
</style>
<path id="CAST_STAFF" class="st0" d="M1.1,182.1c-6.7,34.3,15.7,61.6,50,61.6c15.3,0,31-5.3,44.9-16.6c1.4-1.2,2-3.4,1.1-4.6
	l-10.6-14.2c-0.8-1.2-3-1.2-4.4-0.2c-7.2,5.2-15.7,8.1-24.6,8.2c-19.4,0-30.7-15.8-27-34.8c3.7-19.2,21.1-35.4,40.5-35.4
	c8.4,0,16.2,3.1,21.4,8.8c1,1.2,2.9,1.2,4.3,0l16.1-13.9c1.6-1.4,2-3.4,0.8-4.8c-9.6-10.6-21.2-16-38.4-16
	C40.8,120.2,7.8,147.8,1.1,182.1z M101.8,242h18.9c2.9,0,5.5-1.6,7-4.1l8.8-13.7h46.6l3.6,13.5c0.9,3.3,2.1,4.3,5.2,4.3h19
	c2,0.1,3.8-1.4,3.9-3.5c0-0.3,0-0.7-0.1-1l-31.3-115.5c-0.4-1.1-1.4-1.9-2.6-1.9h-1.7c-1.3,0.1-2.5,0.8-3.3,1.9L99.8,237.6
	C98.3,239.8,99.2,242,101.8,242L101.8,242z M151.3,200.8l18.4-28.3h0.2l7.6,28.3H151.3z M223.2,230.5c3.2,4,13.7,13.2,36,13.2
	c25.2,0,43.9-17.9,47.4-35.5c4.5-23.3-14.7-33.8-27.1-39.1c-12.5-5.5-16.7-10.3-15.5-16.6c0.9-4.6,6.3-8.8,12.5-8.8
	c10.5,0,21.1,9.4,22.5,10.3c1.3,1.2,4.7-0.3,6.3-2.2l11.3-13.2c0.9-1.2,1.9-4.3,0-5.5c-9.5-8.2-21.6-12.8-34.2-12.9
	c-26.4,0-42.9,17.2-46.2,34.2c-4,20.6,12.3,32.1,25.9,37.9c10.8,4.6,15.7,10.1,14.3,17.3c-1.2,6-7,10.3-13.8,10.3
	c-11.3,0-21.9-9.1-22.5-9.4c-2-1.2-4.5-0.7-6,1l-10.8,14.2C221.4,228.1,221.8,228.8,223.2,230.5L223.2,230.5z M339,238.8
	c-0.3,1.4,0.6,2.9,2.1,3.2c0.2,0,0.4,0.1,0.6,0.1h20.6c1.9-0.1,3.4-1.4,3.9-3.3l17.8-91.6h24.5c1.9-0.1,3.5-1.4,3.9-3.3l3.6-18.7
	c0.4-1.4-0.5-2.8-1.9-3.2c-0.3-0.1-0.5-0.1-0.8-0.1h-76.1c-1.9,0.1-3.5,1.4-3.9,3.3l-3.6,18.7c-0.4,1.4,0.5,2.8,1.9,3.2
	c0.2,0.1,0.5,0.1,0.7,0.1h24.5L339,238.8z M428.6,237.7c-1.1,2.4,0,4.3,2.3,4.3h17c1.5-0.1,2.8-1,3.5-2.2l55.5-113.6
	c1.2-2.4,0.1-4.3-2.2-4.3h-16.8c-1.5,0.1-2.8,0.9-3.5,2.2L428.6,237.7z M524.4,230.5c3.2,4,13.7,13.2,36,13.2
	c25.2,0,43.9-17.9,47.4-35.5c4.5-23.3-14.7-33.8-27.1-39.1c-12.5-5.5-16.7-10.3-15.5-16.6c0.9-4.6,6.3-8.8,12.5-8.8
	c10.5,0,21.1,9.4,22.5,10.3c1.3,1.2,4.7-0.3,6.3-2.2l11.3-13.2c0.9-1.2,1.9-4.3,0-5.5c-9.5-8.2-21.6-12.8-34.2-12.9
	c-26.4,0-42.9,17.2-46.2,34.2c-4,20.6,12.3,32.1,25.9,37.9c10.8,4.6,15.7,10.1,14.3,17.3c-1.2,6-7,10.3-13.8,10.3
	c-11.3,0-21.9-9.1-22.5-9.4c-2-1.2-4.5-0.7-6,1l-10.8,14.2C522.7,228.1,523,228.8,524.4,230.5L524.4,230.5z M640.3,238.8
	c-0.3,1.5,0.6,2.9,2.1,3.2c0.2,0,0.4,0.1,0.6,0.1h20.6c1.9-0.1,3.4-1.4,3.9-3.3l17.8-91.6h24.5c1.9-0.1,3.5-1.4,3.9-3.3l3.6-18.7
	c0.4-1.4-0.5-2.8-1.9-3.2c-0.2-0.1-0.5-0.1-0.8-0.1h-76.1c-1.9,0.1-3.5,1.4-3.9,3.3l-3.6,18.7c-0.4,1.4,0.5,2.8,1.9,3.2
	c0.2,0.1,0.5,0.1,0.8,0.1h24.5L640.3,238.8z M684.9,242h18.9c2.9,0,5.6-1.6,7-4.1l8.8-13.7h46.6l3.5,13.5c0.9,3.3,2.1,4.3,5.2,4.3
	h19c2,0.1,3.8-1.4,3.9-3.5c0-0.3,0-0.7-0.1-1l-31.3-115.5c-0.4-1.1-1.4-1.9-2.6-1.9h-1.7c-1.3,0.1-2.5,0.8-3.3,1.9l-76.1,115.5
	C681.4,239.8,682.3,242,684.9,242L684.9,242z M734.4,200.8l18.4-28.3h0.2l7.5,28.3H734.4z M810.6,238.8c-0.4,1.4,0.5,2.8,1.9,3.2
	c0.2,0.1,0.5,0.1,0.8,0.1h20.2c1.9-0.1,3.4-1.4,3.9-3.3l8.1-41.7h39.1c1.9-0.1,3.4-1.4,3.9-3.3l3.6-18.7c0.3-1.5-0.6-2.9-2.1-3.2
	c-0.2,0-0.4-0.1-0.6-0.1h-39.1l4.8-24.7h47.5c1.9-0.1,3.5-1.4,3.9-3.3l3.6-18.7c0.4-1.4-0.5-2.8-1.9-3.2c-0.2-0.1-0.5-0.1-0.8-0.1
	h-71c-1.9,0.1-3.5,1.4-3.9,3.3L810.6,238.8z M902.7,238.8c-0.4,1.4,0.5,2.8,1.9,3.2c0.2,0.1,0.5,0.1,0.8,0.1h20.2
	c1.9-0.1,3.4-1.4,3.9-3.3l8.1-41.7h39.1c1.9-0.1,3.4-1.4,3.9-3.3l3.6-18.7c0.3-1.4-0.6-2.9-2-3.2c-0.2,0-0.4-0.1-0.6-0.1h-39.1
	l4.8-24.7h47.5c1.9-0.1,3.5-1.4,3.9-3.3l3.6-18.7c0.4-1.4-0.5-2.8-1.9-3.2c-0.2-0.1-0.5-0.1-0.8-0.1h-71c-1.9,0.1-3.5,1.4-3.9,3.3
	L902.7,238.8z"/>
<g>
	<path class="st1" d="M519.2,44.2c0-6.2-3.7-11.1-8.3-11.1c-4.7,0-8.3,4.9-8.3,11.1s3.7,11.1,8.3,11.1
		C515.7,55.3,519.2,50.5,519.2,44.2"/>
	<path class="st1" d="M551,65.2c-2.5-8.4-12.8-11.3-20-13.2c-0.2,0-0.9-0.2-1-0.3c-0.3-0.1-0.5-0.3-0.5-0.7
		c-0.1-6.1-0.8-12.4-1.4-16c-0.2-1.1-0.4-2.2-0.7-3.3c-2.1-7.7-7.1-13.6-15.2-17.9c-1-0.5-2-1-3.1-1.4c-2.6-0.9-6-1.6-10.5-1.9
		c-0.9-0.1-1.7-0.8-1.7-1.8V7.4c0-3.8-3.1-6.8-6.8-6.8c-3.8,0-6.8,3.1-6.8,6.8v3.7c0,0.9-0.5,1.7-1.1,2.2c-0.8,0.6-1.4,1.3-2.1,2
		c-2.2,2.6-3.3,5.9-3.3,9.4v24.9c0,1.3,1.1,2.4,2.4,2.4s2.4-1.1,2.4-2.4V24.9c0-2.1,0.6-4.2,1.8-5.8c0.7-0.9,1.5-1.8,2.4-2.4
		c1.1-0.7,2.2-1.2,3.5-1.5c1.1-0.2,2.2-0.1,3.4-0.1c6.6,0.1,11.3,0.7,14.4,1.7c1.1,0.4,2.1,0.9,3.1,1.4c6.8,3.6,10.9,8.3,12.6,14.6
		c0.3,1.1,0.5,2.2,0.7,3.4C525,45,525.2,57.3,524,62c-0.3,1.1-1.2,1.9-2.2,2.4c-5,2.6-14.6,4-28.9,4.1c-1.1,0-2.3,0-3.4,0
		c-16.2-0.1-26.4-1.7-31.3-4.7c-0.1-0.1-0.2-0.1-0.3-0.2s-0.2-0.1-0.2-0.2c-1.9-2.6-2-18.6-0.2-28.8c0.2-1.1,0.4-2.3,0.8-3.3
		c2.1-5.8,7.9-10.9,10.5-12.9c0.9-0.7,2-1.2,2.3-2.3c0-0.1,0.1-0.2,0.1-0.4c0.1-1.2-0.6-2.2-1.7-2.6c-0.1,0-0.2-0.1-0.4-0.1
		c-1.1-0.1-2.1,0.7-2.9,1.4c-3,2.3-10.2,8.4-12.6,15.9c-0.3,1.1-0.6,2.2-0.8,3.3c-0.8,4.5-1.4,10.6-1.5,16.2c0,1.1,0,2.3,0,3.4
		c0.2,11.7,2.6,13.6,3.6,14.2c0,0,0,0,0.1,0l0,0l0,0c0,0,0,0,0.1,0c0.1,0.1,0.2,0.1,0.3,0.2c0.1,0.1,0.5,0.3,0.6,0.4
		c7.6,4.9,16,8.6,22.8,11.3c1,0.4,2.1,0.8,3.1,1.2c8.3,3.2,17.9,6.4,28.2,7.5c1.1,0.1,2.2,0.2,3.3,0.3c1.1,0.1,2.2,0.1,3.2,0.1
		c6.8,0,13.3-1.1,19.3-3.2c1.1-0.4,2.1-0.8,3.1-1.2c4.2-1.9,7.4-4.2,9.6-7.1c0.7-0.9,1.3-1.9,1.8-2.9c0.8-1.7,1.2-3.4,1.2-5.2
		C551.5,67.5,551.3,66.3,551,65.2"/>
</g>
</svg>
