<?xml version="1.0" encoding="utf-8"?>
<!-- Generator: Adobe Illustrator 24.0.1, SVG Export Plug-In . SVG Version: 6.00 Build 0)  -->
<svg version="1.1" id="character_title.svg" xmlns="http://www.w3.org/2000/svg" xmlns:xlink="http://www.w3.org/1999/xlink"
	 x="0px" y="0px" viewBox="0 0 974.3 252.4" style="enable-background:new 0 0 974.3 252.4;" xml:space="preserve">
<style type="text/css">
	.st0{fill-rule:evenodd;clip-rule:evenodd;fill:#F45F4A;}
	.st1{fill:#F45F4A;}
</style>
<path id="CHARACTER" class="st0" d="M1.2,190.9c-6.6,34.3,15.6,61.5,49.9,61.5c15.2,0,31-5.3,44.9-16.6c1.4-1.2,2-3.4,1.1-4.6
	L86.4,217c-0.8-1.2-3-1.2-4.4-0.2c-7.1,5.2-15.7,8.1-24.6,8.2c-19.4,0-30.7-15.8-27-34.8c3.7-19.2,21.1-35.3,40.4-35.3
	c8.4,0,16.2,3.1,21.4,8.7c1,1.2,2.9,1.2,4.3,0l16.1-13.9c1.6-1.4,2-3.4,0.8-4.8c-9.6-10.6-21.2-15.9-38.4-15.9
	C40.8,129,7.8,156.6,1.2,190.9z M108.1,247.5c-0.3,1.4,0.6,2.9,2.1,3.2c0.2,0,0.4,0.1,0.6,0.1h20.4c1.9-0.1,3.5-1.4,3.9-3.3
	l8.8-45.1h49l-8.8,45.1c-0.4,1.4,0.5,2.8,1.9,3.2c0.2,0.1,0.5,0.1,0.8,0.1H207c1.9-0.1,3.4-1.4,3.9-3.3l22-113.5
	c0.3-1.5-0.6-2.9-2.1-3.2c-0.2,0-0.4-0.1-0.6-0.1h-20.4c-1.9,0.1-3.5,1.4-3.9,3.3l-8.4,43.2h-49L157,134c0.4-1.4-0.5-2.8-1.9-3.2
	c-0.2-0.1-0.5-0.1-0.7-0.1H134c-1.9,0.1-3.4,1.4-3.9,3.3L108.1,247.5z M221.2,250.7h18.9c2.9,0,5.5-1.6,7-4.1l8.8-13.7h46.6
	l3.6,13.5c0.9,3.2,2.1,4.3,5.2,4.3h19c2,0.1,3.8-1.5,3.9-3.5c0-0.3,0-0.7-0.1-1l-31.3-115.4c-0.4-1.1-1.4-1.9-2.6-1.9h-1.7
	c-1.3,0.1-2.5,0.8-3.3,1.9l-76,115.4C217.7,248.5,218.6,250.7,221.2,250.7L221.2,250.7z M270.7,209.6l18.3-28.3h0.2l7.5,28.3H270.7z
	 M343.5,247.5c-0.4,1.4,0.5,2.8,1.9,3.2c0.2,0.1,0.5,0.1,0.8,0.1h20.4c1.9-0.1,3.4-1.4,3.9-3.3l8.5-43.7h11.8l14,45.4
	c0.4,1,1.4,1.6,2.4,1.5h22.8c2.2,0.1,4-1.6,4-3.8c0-0.4,0-0.8-0.1-1.2l-15-43.5c16.1-6,29-18.7,32.1-34.5c3.9-20.4-9.6-37-30.2-37
	h-51.2c-1.9,0.1-3.5,1.4-3.9,3.3L343.5,247.5z M383.1,182l5.2-26.7h25.4c7,0,11.9,5.8,10.5,13s-8.7,13.7-15.7,13.7H383.1z
	 M446.3,250.7h18.9c2.9,0,5.5-1.6,7-4.1l8.8-13.7h46.6l3.5,13.5c0.9,3.2,2.1,4.3,5.2,4.3h19c2,0.1,3.8-1.5,3.9-3.5
	c0-0.3,0-0.7-0.1-1l-31.3-115.4c-0.4-1.1-1.4-1.9-2.6-1.9h-1.7c-1.3,0.1-2.5,0.8-3.3,1.9l-76,115.4
	C442.8,248.5,443.8,250.7,446.3,250.7L446.3,250.7z M495.8,209.6l18.3-28.3h0.2l7.5,28.3H495.8z M567.4,190.9
	c-6.6,34.3,15.6,61.5,49.9,61.5c15.2,0,31-5.3,44.9-16.6c1.4-1.2,2-3.4,1.1-4.6l-10.6-14.2c-0.8-1.2-3-1.2-4.4-0.2
	c-7.1,5.2-15.7,8.1-24.6,8.2c-19.4,0-30.7-15.8-27-34.8c3.7-19.2,21.1-35.3,40.4-35.3c8.4,0,16.2,3.1,21.4,8.7c1,1.2,2.9,1.2,4.3,0
	l16.1-13.9c1.6-1.4,2-3.4,0.8-4.8c-9.6-10.6-21.2-15.9-38.4-15.9C607,129,574.1,156.6,567.4,190.9L567.4,190.9z M703.5,247.5
	c-0.3,1.4,0.6,2.9,2.1,3.2c0.2,0,0.4,0.1,0.6,0.1h20.6c1.9-0.1,3.4-1.4,3.9-3.3l17.8-91.5h24.5c1.9-0.1,3.5-1.4,3.9-3.3l3.6-18.7
	c0.4-1.4-0.5-2.8-1.9-3.2c-0.2-0.1-0.5-0.1-0.7-0.1h-76.1c-1.9,0.1-3.5,1.4-3.9,3.3l-3.6,18.7c-0.4,1.4,0.5,2.8,1.9,3.2
	c0.3,0.1,0.5,0.1,0.8,0.1h24.5L703.5,247.5z M771.5,247.5c-0.4,1.4,0.5,2.8,1.9,3.2c0.3,0.1,0.5,0.1,0.8,0.1h71
	c1.9-0.1,3.5-1.4,3.9-3.3l3.6-18.7c0.4-1.4-0.5-2.8-1.9-3.2c-0.2-0.1-0.5-0.1-0.7-0.1h-47.5l4.5-23.1H846c1.9-0.1,3.5-1.4,3.9-3.2
	l3.6-18.7c0.3-1.4-0.6-2.9-2.1-3.2c-0.2,0-0.4-0.1-0.6-0.1h-39.1l4.1-21.3h47.5c1.9-0.1,3.5-1.4,3.9-3.3L871,134
	c0.4-1.4-0.5-2.8-1.9-3.2c-0.2-0.1-0.5-0.1-0.8-0.1h-71c-1.9,0.1-3.5,1.4-3.9,3.3L771.5,247.5z M866.3,247.5
	c-0.4,1.4,0.5,2.8,1.9,3.2c0.2,0.1,0.5,0.1,0.8,0.1h20.4c1.9-0.1,3.4-1.4,3.9-3.3l8.5-43.7h11.8l14,45.4c0.4,1,1.4,1.6,2.5,1.5h22.8
	c2.1,0.1,4-1.6,4-3.7c0-0.4,0-0.8-0.2-1.2l-15-43.5c16.1-6,29-18.7,32-34.5c4-20.4-9.6-37-30.2-37h-51.2c-1.9,0.1-3.5,1.4-3.9,3.3
	L866.3,247.5z M905.9,182l5.2-26.7h25.4c7,0,11.9,5.8,10.5,13s-8.7,13.7-15.7,13.7H905.9L905.9,182z"/>
<g>
	<path class="st1" d="M510.1,44.8c0-6.2-3.7-11.1-8.3-11.1c-4.7,0-8.3,4.9-8.3,11.1s3.7,11.1,8.3,11.1
		C506.5,55.9,510.1,51.1,510.1,44.8"/>
	<path class="st1" d="M541.9,65.8c-2.5-8.4-12.8-11.3-20-13.2c-0.2,0-0.9-0.2-1-0.3c-0.3-0.1-0.5-0.3-0.5-0.7
		c-0.1-6.1-0.8-12.4-1.4-16c-0.2-1.1-0.4-2.2-0.7-3.3c-2.1-7.7-7.1-13.6-15.2-17.9c-1-0.5-2-1-3.1-1.4c-2.6-0.9-6-1.6-10.5-1.9
		c-0.9-0.1-1.7-0.8-1.7-1.8V8c0-3.8-3.1-6.8-6.8-6.8c-3.8,0-6.8,3.1-6.8,6.8v3.7c0,0.9-0.5,1.7-1.1,2.2c-0.8,0.6-1.4,1.3-2.1,2
		c-2.2,2.6-3.3,5.9-3.3,9.4v24.9c0,1.3,1.1,2.4,2.4,2.4s2.4-1.1,2.4-2.4V25.5c0-2.1,0.6-4.2,1.8-5.8c0.7-0.9,1.5-1.8,2.4-2.4
		c1.1-0.7,2.2-1.2,3.5-1.5c1.1-0.2,2.2-0.1,3.4-0.1c6.6,0.1,11.3,0.7,14.4,1.7c1.1,0.4,2.1,0.9,3.1,1.4c6.8,3.6,10.9,8.3,12.6,14.6
		c0.3,1.1,0.5,2.2,0.7,3.4c1.5,8.7,1.7,21.1,0.5,25.7c-0.3,1.1-1.2,1.9-2.2,2.4c-5,2.6-14.6,4-28.9,4.1c-1.1,0-2.3,0-3.4,0
		c-16.2-0.1-26.4-1.7-31.3-4.7c-0.1-0.1-0.2-0.1-0.3-0.2s-0.2-0.1-0.2-0.2c-1.9-2.6-2-18.6-0.2-28.8c0.2-1.1,0.4-2.3,0.8-3.3
		c2.1-5.8,7.9-10.9,10.5-12.9c0.9-0.7,2-1.2,2.3-2.3c0-0.1,0.1-0.2,0.1-0.4c0.1-1.2-0.6-2.2-1.7-2.6c-0.1,0-0.2-0.1-0.4-0.1
		c-1.1-0.1-2.1,0.7-2.9,1.4c-3,2.3-10.2,8.4-12.6,15.9c-0.3,1.1-0.6,2.2-0.8,3.3c-0.8,4.5-1.4,10.6-1.5,16.2c0,1.1,0,2.3,0,3.4
		c0.2,11.7,2.6,13.6,3.6,14.2c0,0,0,0,0.1,0l0,0l0,0c0,0,0,0,0.1,0c0.1,0.1,0.2,0.1,0.3,0.2c0.1,0.1,0.5,0.3,0.6,0.4
		c7.6,4.9,16,8.6,22.8,11.3c1,0.4,2.1,0.8,3.1,1.2c8.3,3.2,17.9,6.4,28.2,7.5c1.1,0.1,2.2,0.2,3.3,0.3c1.1,0.1,2.2,0.1,3.2,0.1
		c6.8,0,13.3-1.1,19.3-3.2c1.1-0.4,2.1-0.8,3.1-1.2c4.2-1.9,7.4-4.2,9.6-7.1c0.7-0.9,1.3-1.9,1.8-2.9c0.8-1.7,1.2-3.4,1.2-5.2
		C542.4,68.1,542.2,66.9,541.9,65.8"/>
</g>
</svg>
