<svg xmlns="http://www.w3.org/2000/svg" width="391.16" height="29.344" viewBox="0 0 391.16 29.344">
  <defs>
    <style>
      .cls-1 {
        fill: #f45f4a;
        fill-rule: evenodd;
      }
    </style>
  </defs>
  <path id="mainvisual_copy.svg" data-name="mainvisual/copy.svg" class="cls-1" d="M3551.02,370.851c4,0.1,6.79.993,8.42,3.107a0.244,0.244,0,0,0,.19.128,0.239,0.239,0,0,0,.16-0.193l1.41-3.779c-1.5-1.6-4.58-2.561-8.26-2.561h-0.51Zm-14.8,14.86a8.727,8.727,0,0,1,4.07,1.858c0.32,0.352.26,0.737,0.67,0.737a23.622,23.622,0,0,0,3.37-.8,0.369,0.369,0,0,0,.35-0.416V386.9c0-.928-0.03-2.081-0.03-3.394s0.03-2.755.03-4.26a14.021,14.021,0,0,1,6.15-1.537c2.85,0,4.16,1.089,4.16,2.466,0,1.537-1.7,3.587-4.39,3.587-1.73,0-3.17-.961-4.64-2.018a36.745,36.745,0,0,1,.45,4.164c0,0.192-.03.352-0.03,0.512,0,0.609,2.49,1.345,4.06,1.345,5.22,0,8.81-4,8.81-7.622,0-4.132-3.97-5.989-8.17-5.989a19.051,19.051,0,0,0-6.37,1.249c0.03-1.185.06-2.338,0.06-3.491,1.7-.48,3.49-1.089,5.22-1.73l-0.19-4.195c-1.86.8-3.49,1.441-4.93,1.921,0.06-1.793.1-3.266,0.16-4.195a0.8,0.8,0,0,0,.77-0.512c0-.193-0.26-0.545-5.09-0.545,0.19,1.954.25,4.132,0.25,6.406a9.812,9.812,0,0,1-2.3.32,11.108,11.108,0,0,1-4.01-.865,0.775,0.775,0,0,0-.22-0.064c-0.1,0-.13.064-0.13,0.224V368.8s0.45,3.652.45,3.812a8.087,8.087,0,0,0,3.14.64,14.3,14.3,0,0,0,3.07-.385V377.1a70.263,70.263,0,0,0-7.56,5.572,13.831,13.831,0,0,1-1.34.9,0.531,0.531,0,0,0-.35.288c0,0.544,3.14,2.754,3.36,2.754a1.219,1.219,0,0,0,.32-0.1,3.029,3.029,0,0,0,.8-0.8h0.03Zm1.57-2.305a16.832,16.832,0,0,1,3.14-2.563c0,1.153-.03,2.274-0.06,3.331C3540.03,383.918,3538.94,383.662,3537.79,383.406Zm41.77,7.078h3.52v-1.249h9.81v1.12h3.58l-0.03-8.935a34.7,34.7,0,0,0,3.43.576,0.32,0.32,0,0,0,.29-0.128,27.112,27.112,0,0,1,2.88-3.331,30.275,30.275,0,0,1-11.82-2.338,30.529,30.529,0,0,0,5-4.931,0.786,0.786,0,0,0,.73-0.449,7.487,7.487,0,0,0-2.24-2.018c-0.19,0-.38.224-0.58,0.224h-6.88c0.19-.256.38-0.448,0.54-0.64,0.74,0,1.06-.192,1.06-0.384,0-.257-0.61-0.481-2.4-0.865h10.95v3.875h3.72v-7.078h-11.44v-0.32a11.821,11.821,0,0,1,.07-1.249c0.77-.128,1.02-0.385,1.02-0.609a0.573,0.573,0,0,0-.58-0.416c-1.24-.16-4.38-0.224-4.38-0.224,0.09,0.993.09,2.242,0.09,2.242v0.576h-11.33v7.046h3.68v-3.843h6.6c-1.12,1.313-5.8,6.053-11.76,7.847a17.72,17.72,0,0,1,3.49,2.081,0.279,0.279,0,0,0,.13.064,23.231,23.231,0,0,0,5.77-3.619,23.548,23.548,0,0,0,2.85,2.69,33.206,33.206,0,0,1-12.75,3.523,18.184,18.184,0,0,1,3.14,3.011,0.158,0.158,0,0,0,.16.128,35.444,35.444,0,0,0,3.71-.865Zm11.92-18.961a19.292,19.292,0,0,1-3.37,2.979,15.664,15.664,0,0,1-3.39-2.946Zm-8.46,9.32a31.194,31.194,0,0,0,5.29-2.626,26.641,26.641,0,0,0,5.98,2.626h-11.27Zm0.1,5.381v-2.53h9.77v2.53h-9.77Zm33.12-14.829a15.7,15.7,0,0,0,5.54.9,33.242,33.242,0,0,0,6.47-.9c3.46,4.292,3.52,4.741,3.52,4.9a0.076,0.076,0,0,1-.09.064,1.375,1.375,0,0,0-.2-0.032,28.829,28.829,0,0,0-3.74-.192h-0.55c-3.71,0-10.12.992-10.12,6.309,0,5.636,7.94,6.63,10.89,6.63a39.455,39.455,0,0,0,5.83-.577c0.26-.032.32-0.1,0.32-0.384a36.257,36.257,0,0,1,.99-4.388,34.4,34.4,0,0,1-7.2,1.185h-0.26c-3.52,0-6.56-.673-6.56-2.819,0-2.21,3.97-2.434,5.73-2.434,1.6,0,5.15.193,7.24,1.506a0.646,0.646,0,0,0,.12.032c0.04,0,.1-0.032.16-0.032,0.65-.1,3.75-1.122,3.75-1.122-0.45-2.209-3.42-5.924-6.31-9.608l0.32-.1a23.955,23.955,0,0,0,5.26-2.241,0.172,0.172,0,0,0,.06-0.128,0.258,0.258,0,0,0-.03-0.129l-2.6-2.946a15.189,15.189,0,0,1-5.06,2.242l-0.38.1a24.179,24.179,0,0,1-2.53-4.068,0.911,0.911,0,0,0,.51-0.608c0-.128-0.13-0.224-0.38-0.224-0.07,0-.16.032-0.26,0.032-1.02.128-4.39,0.9-4.39,0.9a36.6,36.6,0,0,0,3.33,4.837l-1.25.192a15.05,15.05,0,0,1-2.53.224,13.143,13.143,0,0,1-5.28-1.281,0.288,0.288,0,0,0-.16-0.032,0.181,0.181,0,0,0-.19.192ZM3655,388.338h0.06a0.234,0.234,0,0,0,.23-0.161,33.413,33.413,0,0,1,1.57-4.195c1.31-2.626,3.62-4.932,4.96-4.932,0.77,0,.96.8,1.03,1.7,0.28,3.491.57,7.4,5.38,7.4,7.59,0,10.66-10.473,10.66-10.634a0.27,0.27,0,0,0-.13-0.224,24.642,24.642,0,0,1-3.36-3.907c-1.12,5.8-3.65,10.505-6.79,10.505-1.57,0-1.6-1.249-1.73-2.53-0.29-2.819-.7-5.925-3.97-5.989a4.362,4.362,0,0,0-3.01,1.185,0.384,0.384,0,0,1-.19.128,1.4,1.4,0,0,0,.06-0.16c1.92-3.587,5.35-8.776,6.66-10.857,0.1,0,.19.031,0.29,0.031a0.68,0.68,0,0,0,.8-0.415c0-.289-0.9-0.9-5.03-2.4a25.679,25.679,0,0,1-1.6,3.748c-2.14,4.291-4.77,8.839-7.11,14.059a68.519,68.519,0,0,0-2.91,6.406Zm36.13-4.324a28.384,28.384,0,0,1,6.95,6.47l3.11-3.268a34.364,34.364,0,0,0-7.3-5.732Zm44.39-20.561a15.175,15.175,0,0,1,3.94,3.587l2.15-1.794a17.733,17.733,0,0,0-4.07-3.362Zm-3.39,2.21a14.941,14.941,0,0,1,3.97,3.939l2.18-1.762a16.6,16.6,0,0,0-4.1-3.651Zm4.13,5.636v-0.1a0.188,0.188,0,0,0-.22-0.224,0.65,0.65,0,0,0-.23.032c-1.25.352-3.71,0.865-5.25,1.249-0.93.224-1.79,0.481-2.59,0.737a6.633,6.633,0,0,1-.55-2.883c0-1.121.35-5.829,0.45-6.95a0.886,0.886,0,0,0,.77-0.512,0.534,0.534,0,0,0-.55-0.352c-0.6-.128-4.42-0.609-4.7-0.609-0.1,0-.13.033-0.13,0.1s0.03,0.127.03,0.224c0.1,1.729.16,3.362,0.16,4.387,0,1.249-.06,2.4-0.06,3.459a11.37,11.37,0,0,0,.77,4.58c-4.33,1.985-6.92,4.676-6.92,7.687,0,4.227,4.32,7.013,11.69,7.013a36.355,36.355,0,0,0,8.1-.992,0.209,0.209,0,0,0,.19-0.225,35.7,35.7,0,0,1,.77-4.74,30.309,30.309,0,0,1-10.06,1.858c-6.47,0-6.56-2.5-6.56-3.107,0-3.555,7.27-5.86,14.89-6.245V371.3Zm18.2-.064a12.243,12.243,0,0,0,3.65.545,17.443,17.443,0,0,0,2.18-.16c-1.15,3.3-2.98,7.366-3.62,9.576a1.717,1.717,0,0,0-.06.288c0,0.192.12,0.192,0.41,0.224,0,0,3.3.224,3.81,0.224a12.056,12.056,0,0,1,9.1-4.323c2.27,0,3.52,1.088,3.52,2.433,0,1.954-2.59,5.093-11.08,5.093-1.34,0-2.85-.064-4.52-0.224a26.645,26.645,0,0,1,2.73,4.195,0.25,0.25,0,0,0,.29.16h0.83c14.7,0,16.17-7.27,16.17-9.287,0-3.139-2.53-5.893-7.62-5.893a17.31,17.31,0,0,0-7.75,1.986,0.72,0.72,0,0,1-.32.127c-0.03,0-.03,0-0.03-0.032a1.1,1.1,0,0,1,.09-0.32c0.48-1.153,1.38-3.106,2.08-4.964,2.6-.545,5.38-1.249,7.85-1.985l-0.29-4.356a42.679,42.679,0,0,1-6.56,2.274c0.32-1.122.61-2.338,0.83-3.331a0.961,0.961,0,0,0,.9-0.576c0-.16-0.2-0.289-0.64-0.353-1.51-.16-4.07-0.224-4.3-0.224a33.8,33.8,0,0,1-.89,5.381c-0.32.031-.61,0.095-0.93,0.127a10.784,10.784,0,0,1-1.41.1,12.007,12.007,0,0,1-4.36-.929,1.96,1.96,0,0,0-.38-0.1c-0.1,0-.13.032-0.13,0.16V367.2Zm39.21-4.419c1.02-.032,2.01-0.064,2.94-0.064a26.734,26.734,0,0,1,8.97,1.249c0.03,0,.07.032,0.1,0.032a0.26,0.26,0,0,0,.13-0.16l1.12-4.068a44.919,44.919,0,0,0-8.94-.769c-0.86,0-1.73,0-2.59.033Zm0.54,1.248h-0.06a0.221,0.221,0,0,0-.23.225c-0.03.865-.22,2.21-0.48,3.907a68.94,68.94,0,0,0-.96,9.384c0,0.16.03,0.16,0.16,0.16,0.26,0,3.4-.064,3.69-0.064,1.28-2.754,5.7-5.22,9.32-5.22,2.65,0,3.97,1.249,3.97,2.754,0,1.666-1.7,5.573-12.01,5.573-1.19,0-2.47-.064-3.85-0.161a17.734,17.734,0,0,1,2.5,4,0.24,0.24,0,0,0,.29.16h1.12c14.7,0,16.4-7.27,16.4-9.672,0-3.331-2.63-6.277-7.98-6.277a17.533,17.533,0,0,0-9.48,3.042c0.32-2.146,1-4.771,1.28-6.917Zm33.67,1.859a15.181,15.181,0,0,0,4.55.608c1.34,0,4-.224,5.12-0.321,0.03,1.218.1,2.4,0.13,3.556a17.059,17.059,0,0,1-1.76.1h-0.48c-1.22,0-1.73-.16-1.73-0.417a4.335,4.335,0,0,1,1.25-1.057l-3.24-.672c-1.12.928-2.4,2.017-2.4,3.106,0,1.57,2.66,2.435,6.37,2.435,0.68,0,1.41-.033,2.18-0.065,0.03,0.993.1,2.018,0.13,3.011-0.71-.064-1.44-0.128-2.15-0.128-4.96,0-7.72,2.113-7.72,4.451,0,2.627,3.34,4.644,7.02,4.644,3.07,0,6.08-1.409,6.69-4.451a18.282,18.282,0,0,1,5.22,3.491,0.185,0.185,0,0,0,.16.064,0.123,0.123,0,0,0,.1-0.033l3.3-2.882a26.027,26.027,0,0,0-8.87-4.452c-0.07-1.216-.13-2.594-0.23-4.067a47.629,47.629,0,0,0,6.05-1.153,0.219,0.219,0,0,0,.16-0.256v-3.748a31.238,31.238,0,0,1-6.37,1.634l-0.09-3.459c2.37-.288,4.83-0.609,7.2-1.057,0.13-.032.13-0.1,0.16-0.224l0.1-3.555c-2.6.512-5.13,0.9-7.43,1.185,0.06-1.121.16-2.85,0.19-3.587a0.979,0.979,0,0,0,.83-0.576c0-.16-0.22-0.289-0.61-0.32-1.02-.1-4.35-0.225-4.35-0.225,0.06,2.114.13,3.523,0.13,4.9v0.225c-1,.064-3.56.255-4.39,0.255a18.54,18.54,0,0,1-5.51-.9,1.383,1.383,0,0,0-.26-0.064,0.114,0.114,0,0,0-.12.128,0.845,0.845,0,0,0,.03.256Zm10.25,13.675a2.738,2.738,0,0,1-2.98,2.082c-1.6,0-2.92-.545-2.92-1.282,0-1.185,2.85-1.185,3.05-1.185A11.772,11.772,0,0,1,3838.13,383.6Zm48.88-13.644a14.374,14.374,0,0,1,2.94,4.132l2.37-1.345a15.819,15.819,0,0,0-3.1-3.94Zm-3.69,1.378a14.813,14.813,0,0,1,2.95,4.483l2.4-1.281a14.448,14.448,0,0,0-3.1-4.26Zm-18.06.416c3.84-.577,8.39-2.242,12.71-2.979-3.97,3.171-5.89,6.918-5.89,10.217,0,8.006,10.54,9.672,11.44,9.8h0.09a0.217,0.217,0,0,0,.19-0.128,35.8,35.8,0,0,1,3.11-4.132c-5.35-.16-10.82-1.28-10.82-6.02,0-4.1,5.34-8.712,8.13-9.768a14.52,14.52,0,0,1,4.52-.865,1.929,1.929,0,0,0,.51.128,0.242,0.242,0,0,0,.25-0.288c0-.513-1.44-3.972-1.82-3.972a0.874,0.874,0,0,0-.35.128,0.7,0.7,0,0,1-.36.128c-9.12.865-17.9,3.363-23.28,3.459-0.29,0-.42.032-0.42,0.16a1.6,1.6,0,0,0,.16.385Zm50.99,9.479c0.04-2.337.23-3.426,1.99-4.675,2.79-2.018,4.64-3.908,4.64-7.238,0-4.42-3.2-7.366-8.29-7.366-5.77,0-8.91,3.907-8.94,8.9h4.77v-0.1c0-3.075,1.73-4.8,4.04-4.8,2.66,0,3.78,1.249,3.78,3.3a5.328,5.328,0,0,1-2.69,4.293c-3.49,2.37-4,3.779-4,7.685h4.7Zm-5.18,8.456h5.7v-5.637h-5.7v5.637Z" transform="translate(-3531.72 -361.125)"/>
</svg>
