<svg xmlns="http://www.w3.org/2000/svg" width="27.79" height="369.437" viewBox="0 0 27.79 369.437">
  <defs>
    <style>
      .cls-1 {
        fill: #f45f4a;
        fill-rule: evenodd;
      }
    </style>
  </defs>
  <path id="mainvisual_copy_sp.svg" data-name="mainvisual/copy_sp.svg" class="cls-1" d="M1231.73,317.243c3.61,0.087,6.12.895,7.59,2.8a0.2,0.2,0,0,0,.17.116,0.232,0.232,0,0,0,.15-0.173l1.27-3.405c-1.36-1.443-4.13-2.309-7.45-2.309H1233Zm-13.33,13.391a7.926,7.926,0,0,1,3.66,1.673c0.29,0.318.23,0.664,0.61,0.664a21.486,21.486,0,0,0,3.03-.721,0.324,0.324,0,0,0,.31-0.376V331.7c0-.837-0.02-1.875-0.02-3.059s0.02-2.482.02-3.838a12.678,12.678,0,0,1,5.55-1.385c2.56,0,3.75.981,3.75,2.222a3.773,3.773,0,0,1-3.96,3.232,7.348,7.348,0,0,1-4.18-1.818,34.4,34.4,0,0,1,.4,3.752c0,0.172-.03.317-0.03,0.461,0,0.549,2.25,1.212,3.67,1.212,4.7,0,7.93-3.607,7.93-6.868,0-3.723-3.57-5.4-7.35-5.4a17.186,17.186,0,0,0-5.75,1.125c0.03-1.068.06-2.107,0.06-3.145,1.53-.433,3.15-0.982,4.7-1.559l-0.17-3.78c-1.67.721-3.14,1.3-4.44,1.731,0.06-1.616.08-2.944,0.14-3.78a0.711,0.711,0,0,0,.69-0.462c0-.173-0.23-0.49-4.58-0.49,0.17,1.76.23,3.722,0.23,5.771a8.954,8.954,0,0,1-2.08.289,9.986,9.986,0,0,1-3.61-.779,0.647,0.647,0,0,0-.2-0.058c-0.09,0-.12.058-0.12,0.2V315.4s0.41,3.29.41,3.434a7.272,7.272,0,0,0,2.83.578,12.925,12.925,0,0,0,2.77-.347v3.809a61.2,61.2,0,0,0-6.81,5.022,12.118,12.118,0,0,1-1.22.808,0.488,0.488,0,0,0-.31.259c0,0.491,2.82,2.483,3.03,2.483a1.278,1.278,0,0,0,.29-0.087,2.823,2.823,0,0,0,.72-0.721h0.03Zm1.41-2.079a15.08,15.08,0,0,1,2.83-2.308c0,1.039-.03,2.049-0.06,3C1221.83,329.018,1220.85,328.786,1219.81,328.555Zm0.12,42.457h3.17v-1.125h8.83v1.01h3.23l-0.03-8.052a30.968,30.968,0,0,0,3.09.519,0.28,0.28,0,0,0,.26-0.115,24.648,24.648,0,0,1,2.6-3,27.277,27.277,0,0,1-10.65-2.107,27.5,27.5,0,0,0,4.5-4.444,0.734,0.734,0,0,0,.67-0.4,6.731,6.731,0,0,0-2.02-1.818c-0.18,0-.35.2-0.52,0.2h-6.21c0.17-.231.35-0.4,0.49-0.577,0.67,0,.95-0.173.95-0.346,0-.231-0.54-0.433-2.16-0.78H1236v3.492h3.35v-6.377h-10.31V346.8a11.173,11.173,0,0,1,.06-1.125c0.69-.116.93-0.347,0.93-0.549a0.53,0.53,0,0,0-.52-0.375c-1.13-.145-3.96-0.2-3.96-0.2,0.09,0.9.09,2.02,0.09,2.02v0.52h-10.22v6.348h3.32v-3.463h5.95a25.355,25.355,0,0,1-10.59,7.071,15.943,15.943,0,0,1,3.14,1.875,0.231,0.231,0,0,0,.12.058,21.073,21.073,0,0,0,5.19-3.261,21.693,21.693,0,0,0,2.57,2.424,29.886,29.886,0,0,1-11.49,3.174,16.149,16.149,0,0,1,2.83,2.714,0.151,0.151,0,0,0,.15.114,32.283,32.283,0,0,0,3.34-.779Zm10.73-17.084a17.226,17.226,0,0,1-3.03,2.684,14.006,14.006,0,0,1-3.06-2.655Zm-7.62,8.4a27.93,27.93,0,0,0,4.76-2.365,24,24,0,0,0,5.4,2.365h-10.16Zm0.09,4.848v-2.279h8.8v2.279h-8.8Zm-5.66,23.3a14.164,14.164,0,0,0,4.99.808,29.9,29.9,0,0,0,5.83-.808c3.12,3.867,3.18,4.271,3.18,4.415a0.075,0.075,0,0,1-.09.058,0.92,0.92,0,0,0-.17-0.029,26.3,26.3,0,0,0-3.38-.173h-0.49c-3.35,0-9.12.895-9.12,5.685,0,5.079,7.16,5.973,9.81,5.973a35.521,35.521,0,0,0,5.26-.518c0.23-.029.29-0.088,0.29-0.347a31.447,31.447,0,0,1,.89-3.954,31.186,31.186,0,0,1-6.49,1.069h-0.23c-3.18,0-5.92-.606-5.92-2.54,0-1.992,3.58-2.194,5.17-2.194,1.44,0,4.64.174,6.52,1.357a0.833,0.833,0,0,0,.11.029,1.339,1.339,0,0,1,.15-0.029c0.57-.087,3.37-1.01,3.37-1.01-0.4-1.991-3.08-5.339-5.68-8.658l0.29-.086a21.552,21.552,0,0,0,4.73-2.021,0.147,0.147,0,0,0,.06-0.115,0.217,0.217,0,0,0-.03-0.116l-2.34-2.654a13.859,13.859,0,0,1-4.56,2.02l-0.34.087a21.489,21.489,0,0,1-2.28-3.666,0.84,0.84,0,0,0,.46-0.547c0-.116-0.12-0.2-0.35-0.2-0.06,0-.14.028-0.23,0.028-0.92.115-3.95,0.808-3.95,0.808a32,32,0,0,0,3,4.357l-1.13.173a13.383,13.383,0,0,1-2.28.2,11.872,11.872,0,0,1-4.76-1.153,0.254,0.254,0,0,0-.14-0.03,0.171,0.171,0,0,0-.18.173Zm1.16,50.624h0.05a0.212,0.212,0,0,0,.21-0.145,28.754,28.754,0,0,1,1.41-3.78c1.18-2.367,3.26-4.445,4.47-4.445,0.7,0,.87.722,0.93,1.53,0.26,3.145.52,6.666,4.85,6.666,6.83,0,9.6-9.436,9.6-9.581a0.235,0.235,0,0,0-.11-0.2,22.1,22.1,0,0,1-3.03-3.52c-1.01,5.223-3.29,9.465-6.12,9.465-1.41,0-1.44-1.125-1.56-2.28-0.26-2.539-.63-5.338-3.58-5.4a3.949,3.949,0,0,0-2.71,1.068,0.3,0.3,0,0,1-.17.115,1.22,1.22,0,0,0,.06-0.144c1.73-3.232,4.82-7.907,6-9.783,0.09,0,.17.029,0.26,0.029a0.614,0.614,0,0,0,.72-0.375c0-.26-0.81-0.808-4.53-2.165a24.666,24.666,0,0,1-1.44,3.377c-1.94,3.867-4.3,7.964-6.41,12.668a61.158,61.158,0,0,0-2.63,5.772Zm13.3,13.915a26.5,26.5,0,0,1,6.23,5.829l2.83-2.943a32.5,32.5,0,0,0-6.61-5.165Zm2.83,22.542a13.9,13.9,0,0,1,3.55,3.233l1.93-1.617a16.054,16.054,0,0,0-3.66-3.03Zm-3.06,1.992a13.659,13.659,0,0,1,3.58,3.549l1.96-1.587a15.007,15.007,0,0,0-3.69-3.29Zm3.72,5.079v-0.087a0.172,0.172,0,0,0-.2-0.2,0.528,0.528,0,0,0-.2.029c-1.13.317-3.35,0.779-4.73,1.125-0.84.2-1.62,0.433-2.34,0.664a5.994,5.994,0,0,1-.49-2.6c0-1.01.31-5.252,0.4-6.262a0.8,0.8,0,0,0,.69-0.462,0.476,0.476,0,0,0-.49-0.317c-0.55-.116-3.98-0.549-4.24-0.549-0.09,0-.11.029-0.11,0.087s0.02,0.115.02,0.2c0.09,1.558.15,3.03,0.15,3.953,0,1.126-.06,2.165-0.06,3.117a10.418,10.418,0,0,0,.69,4.127c-3.89,1.789-6.23,4.213-6.23,6.925,0,3.81,3.9,6.321,10.53,6.321a32.746,32.746,0,0,0,7.3-.895,0.194,0.194,0,0,0,.18-0.2,31.787,31.787,0,0,1,.69-4.271,27.357,27.357,0,0,1-9.06,1.674c-5.83,0-5.92-2.251-5.92-2.8,0-3.2,6.55-5.282,13.42-5.627v-3.954ZM1217.33,520.5a11.013,11.013,0,0,0,3.29.491,15.827,15.827,0,0,0,1.96-.144c-1.04,2.972-2.68,6.637-3.26,8.628a1.423,1.423,0,0,0-.06.26c0,0.173.12,0.173,0.38,0.2,0,0,2.97.2,3.43,0.2a10.846,10.846,0,0,1,8.2-3.9c2.05,0,3.17.981,3.17,2.194,0,1.76-2.34,4.588-9.98,4.588-1.22,0-2.57-.058-4.07-0.2a24.255,24.255,0,0,1,2.45,3.78,0.236,0.236,0,0,0,.26.144h0.75c13.25,0,14.57-6.55,14.57-8.368,0-2.829-2.28-5.31-6.86-5.31a15.613,15.613,0,0,0-6.99,1.789,0.617,0.617,0,0,1-.29.116c-0.03,0-.03,0-0.03-0.03a0.915,0.915,0,0,1,.09-0.288c0.43-1.039,1.24-2.8,1.88-4.473,2.33-.491,4.84-1.126,7.07-1.789l-0.26-3.925a38.457,38.457,0,0,1-5.92,2.049c0.29-1.01.55-2.107,0.75-3a0.864,0.864,0,0,0,.81-0.52c0-.144-0.17-0.259-0.58-0.317-1.35-.144-3.66-0.2-3.86-0.2a31.026,31.026,0,0,1-.81,4.848c-0.29.029-.55,0.086-0.84,0.115a9.684,9.684,0,0,1-1.27.087,10.79,10.79,0,0,1-3.92-.837,2.066,2.066,0,0,0-.35-0.087c-0.09,0-.12.029-0.12,0.145v0.115Zm2.42,31.664c0.93-.029,1.82-0.057,2.66-0.057a24.09,24.09,0,0,1,8.08,1.124,0.7,0.7,0,0,1,.08.029,0.2,0.2,0,0,0,.12-0.143l1.01-3.666a40.43,40.43,0,0,0-8.05-.692c-0.78,0-1.56,0-2.34.028Zm0.49,1.125h-0.05a0.2,0.2,0,0,0-.21.2c-0.03.779-.2,1.991-0.43,3.521a60.9,60.9,0,0,0-.87,8.456c0,0.144.03,0.144,0.15,0.144,0.23,0,3.06-.058,3.32-0.058,1.15-2.482,5.13-4.7,8.4-4.7,2.39,0,3.57,1.126,3.57,2.482,0,1.5-1.53,5.021-10.82,5.021-1.07,0-2.22-.057-3.46-0.144a16.073,16.073,0,0,1,2.25,3.607,0.218,0.218,0,0,0,.26.144h1.01c13.25,0,14.77-6.55,14.77-8.714,0-3-2.36-5.657-7.18-5.657a15.753,15.753,0,0,0-8.54,2.741c0.29-1.933.89-4.3,1.15-6.233Zm-2.42,37.9a13.644,13.644,0,0,0,4.1.548c1.21,0,3.6-.2,4.61-0.289,0.03,1.1.09,2.165,0.12,3.2a15.027,15.027,0,0,1-1.59.087h-0.43c-1.1,0-1.56-.144-1.56-0.375a3.941,3.941,0,0,1,1.13-.952l-2.92-.606c-1.01.836-2.16,1.818-2.16,2.8,0,1.414,2.39,2.193,5.74,2.193,0.61,0,1.27-.029,1.96-0.058,0.03,0.895.09,1.818,0.12,2.713-0.64-.058-1.3-0.116-1.94-0.116-4.47,0-6.95,1.906-6.95,4.012,0,2.366,3,4.184,6.32,4.184,2.77,0,5.48-1.269,6.03-4.011a16.443,16.443,0,0,1,4.7,3.146,0.17,0.17,0,0,0,.15.057,0.115,0.115,0,0,0,.09-0.028l2.97-2.6a23.458,23.458,0,0,0-8-4.011c-0.05-1.1-.11-2.338-0.2-3.665a43.211,43.211,0,0,0,5.46-1.039,0.2,0.2,0,0,0,.14-0.231v-3.376a28.284,28.284,0,0,1-5.74,1.471l-0.09-3.116c2.14-.26,4.36-0.548,6.49-0.952a0.194,0.194,0,0,0,.15-0.2l0.09-3.2c-2.34.462-4.62,0.808-6.7,1.068,0.06-1.01.14-2.569,0.17-3.232a0.9,0.9,0,0,0,.75-0.519c0-.145-0.2-0.261-0.54-0.289-0.93-.086-3.93-0.2-3.93-0.2,0.06,1.9.12,3.174,0.12,4.415v0.2c-0.9.057-3.21,0.231-3.96,0.231a16.671,16.671,0,0,1-4.96-.808,1.338,1.338,0,0,0-.23-0.058,0.108,0.108,0,0,0-.12.116,0.693,0.693,0,0,0,.03.231Zm9.23,12.322a2.459,2.459,0,0,1-2.68,1.875c-1.44,0-2.63-.49-2.63-1.153,0-1.069,2.57-1.069,2.74-1.069A10.6,10.6,0,0,1,1227.05,603.506Zm9.56,22.486a12.936,12.936,0,0,1,2.65,3.723l2.14-1.212a14.208,14.208,0,0,0-2.8-3.55Zm-3.32,1.241a13.443,13.443,0,0,1,2.65,4.04l2.17-1.154a13.092,13.092,0,0,0-2.8-3.838Zm-16.28.375c3.46-.519,7.56-2.02,11.46-2.683-3.58,2.856-5.31,6.233-5.31,9.205,0,7.214,9.49,8.716,10.3,8.83h0.09a0.216,0.216,0,0,0,.17-0.114,31.453,31.453,0,0,1,2.8-3.724c-4.82-.144-9.76-1.154-9.76-5.425,0-3.694,4.82-7.85,7.33-8.8a13.163,13.163,0,0,1,4.07-.779,1.875,1.875,0,0,0,.47.114,0.223,0.223,0,0,0,.23-0.259c0-.461-1.3-3.579-1.65-3.579a0.87,0.87,0,0,0-.32.116,0.574,0.574,0,0,1-.31.115c-8.23.779-16.14,3.03-20.98,3.117-0.26,0-.38.029-0.38,0.145a1.2,1.2,0,0,0,.15.345Zm12.18,44.044c0.03-2.107.2-3.088,1.79-4.213,2.51-1.818,4.18-3.521,4.18-6.522,0-3.983-2.88-6.637-7.47-6.637-5.2,0-8.02,3.52-8.05,8.022h4.3v-0.087c0-2.77,1.55-4.328,3.63-4.328,2.4,0,3.41,1.125,3.41,2.972a4.8,4.8,0,0,1-2.43,3.867c-3.14,2.135-3.6,3.4-3.6,6.926h4.24Zm-4.68,7.619h5.14v-5.079h-5.14v5.079Z" transform="translate(-1213.62 -309.844)"/>
</svg>
