<svg id="disc_title.svg" data-name="disc/title.svg" xmlns="http://www.w3.org/2000/svg" width="954.75" height="246.4" viewBox="0 0 954.75 246.4">
  <defs>
    <style>
      .cls-1 {
        fill: #f45f4a;
        fill-rule: evenodd;
      }
    </style>
  </defs>
  <path id="DISC_BOOK" data-name="DISC / BOOK" class="cls-1" d="M1766.91,10018.5a2.538,2.538,0,0,0,2.45,3.2h41.83c33.08,0,65.38-26.89,71.84-60.14,6.38-32.91-15.48-59.83-48.56-59.83h-41.82a4.116,4.116,0,0,0-3.72,3.26Zm31.03-22.15,13.47-69.42h16.46c19.37,0,30.46,15.26,26.7,34.63-3.79,19.54-20.8,34.79-40.17,34.79h-16.46Zm89.53,22.15a2.647,2.647,0,0,0,2.63,3.2h20.57a4.283,4.283,0,0,0,3.89-3.2l22.02-113.51a2.691,2.691,0,0,0-2.63-3.26h-20.57a4.33,4.33,0,0,0-3.89,3.26Zm47.6-8.3c3.18,4,13.72,13.2,36,13.2,25.2,0,43.92-17.8,47.34-35.45,4.53-23.31-14.7-33.76-27.04-39.08-12.48-5.48-16.69-10.28-15.46-16.63,0.9-4.62,6.33-8.74,12.5-8.74,10.45,0,21.14,9.43,22.51,10.29,1.31,1.2,4.7-.35,6.27-2.23l11.3-13.2c0.92-1.2,1.86-4.28.03-5.48a52.678,52.678,0,0,0-34.18-12.86c-26.4,0-42.93,17.14-46.22,34.11-3.99,20.57,12.29,32.05,25.9,37.88,10.76,4.63,15.7,10.12,14.3,17.31-1.16,6-6.97,10.29-13.82,10.29-11.32,0-21.89-9.09-22.51-9.43a4.742,4.742,0,0,0-6.03,1.03l-10.82,14.19C1933.31,10007.8,1933.69,10008.5,1935.07,10010.2Zm95.77-48.3c-6.65,34.28,15.66,61.5,49.94,61.5,15.26,0,31.03-5.3,44.88-16.6,1.43-1.2,2.04-3.4,1.07-4.6l-10.61-14.25c-0.8-1.2-3.02-1.2-4.42-.17a43.083,43.083,0,0,1-24.57,8.23c-19.37,0-30.71-15.77-27.01-34.8,3.72-19.2,21.07-35.31,40.44-35.31,8.4,0,16.2,3.09,21.45,8.74,0.96,1.2,2.85,1.2,4.28,0l16.07-13.88c1.63-1.37,2.03-3.43.76-4.8-9.6-10.63-21.25-15.94-38.39-15.94C2070.45,9900.02,2037.49,9927.62,2030.84,9961.9Zm128.47,55.5c-1.15,2.4.03,4.3,2.26,4.3h16.97a4.517,4.517,0,0,0,3.52-2.2l55.44-113.48c1.15-2.4.15-4.29-2.25-4.29h-16.8a4.3,4.3,0,0,0-3.52,2.23Zm89.86,1.1a2.56,2.56,0,0,0,2.62,3.2h42.51c20.4,0,40.06-13.9,43.79-33.06,3.06-15.77-9.2-24.17-17.55-27.94,8.89-4.29,22.58-13.89,25.14-27.08,3.49-18-10.44-31.89-30.67-31.89h-39.94a4.164,4.164,0,0,0-3.89,3.26Zm39.94-68.09,4.66-23.99h13.37c6.51,0,11.06,4.8,9.73,11.65s-7.88,12.34-14.39,12.34h-13.37Zm-9.08,46.8,4.76-24.51h13.88c6.69,0,13.06,5.14,11.73,12-1.37,7.02-8.09,12.51-14.77,12.51h-15.6Zm68.51-35.31c-6.66,34.28,15.31,61.5,49.59,61.5s67-27.22,73.65-61.5-15.42-61.88-49.7-61.88S2355.19,9927.62,2348.54,9961.9Zm27.42,0c3.66-18.86,22.11-34.45,40.8-34.45,18.85,0,31.25,15.59,27.6,34.45-3.63,18.68-22.05,34.11-40.91,34.11C2384.77,9996.01,2372.34,9980.58,2375.96,9961.9Zm105.14,0c-6.65,34.28,15.31,61.5,49.6,61.5s66.99-27.22,73.64-61.5-15.41-61.88-49.7-61.88S2487.75,9927.62,2481.1,9961.9Zm27.43,0c3.65-18.86,22.11-34.45,40.79-34.45,18.86,0,31.26,15.59,27.6,34.45-3.63,18.68-22.05,34.11-40.9,34.11C2517.33,9996.01,2504.9,9980.58,2508.53,9961.9Zm96.21,55.7a3.254,3.254,0,0,0,3.31,4.1h20.06a5.331,5.331,0,0,0,4.91-4.1l9.91-51.07,29.15,53.87a3.919,3.919,0,0,0,2.86,1.1h23.65c3.26,0,5.88-3.7,4.49-6.3l-32.67-56.9,49.86-50.22c2.38-2.58,1.4-6.35-1.86-6.35h-21.59a6.341,6.341,0,0,0-3.59,1.72l-47.27,47.48,8.75-45.08a3.34,3.34,0,0,0-3.32-4.12h-20.05a5.181,5.181,0,0,0-4.92,4.12Z" transform="translate(-1766.84 -9777)"/>
  <path id="シェイプ_1" data-name="シェイプ 1" class="cls-1" d="M2263.17,9820.82c0-6.25-3.74-11.16-8.5-11.16s-8.49,4.91-8.49,11.16,3.73,11.16,8.49,11.16,8.5-4.9,8.5-11.16m32.32,21.09c-2.54-8.44-13.03-11.37-20.39-13.3-0.18-.04-0.88-0.23-1.05-0.27a0.693,0.693,0,0,1-.52-0.66,116.028,116.028,0,0,0-1.42-16.04c-0.19-1.13-.42-2.25-0.72-3.36-2.13-7.76-7.21-13.66-15.46-17.97a26.616,26.616,0,0,0-3.12-1.42,40.291,40.291,0,0,0-10.66-1.89,1.834,1.834,0,0,1-1.74-1.8v-1.35a6.941,6.941,0,0,0-13.88,0v3.75a2.942,2.942,0,0,1-1.16,2.26,14.923,14.923,0,0,0-2.09,2.04,14.742,14.742,0,0,0-3.4,9.48v25.04a2.42,2.42,0,0,0,4.84,0v-25.04a10.021,10.021,0,0,1,1.85-5.85,9.8,9.8,0,0,1,2.47-2.42,9.174,9.174,0,0,1,3.56-1.46,17.843,17.843,0,0,1,3.43-.12c6.7,0.11,11.53.67,14.66,1.69a21.031,21.031,0,0,1,3.11,1.38c6.91,3.64,11.05,8.36,12.85,14.7,0.31,1.1.54,2.23,0.74,3.36,1.57,8.79,1.74,21.23.5,25.79a4.018,4.018,0,0,1-2.21,2.45c-5.12,2.64-14.81,3.98-29.46,4.11q-1.725.015-3.45,0c-16.45-.13-26.91-1.69-31.91-4.74-0.09-.06-0.17-0.11-0.26-0.17a0.809,0.809,0,0,1-.24-0.21c-1.99-2.6-2.03-18.72-.16-28.88a20.107,20.107,0,0,1,.82-3.34c2.09-5.83,8.01-10.91,10.72-13,0.89-.69,2.02-1.25,2.33-2.32a1.845,1.845,0,0,0,.08-0.38,2.388,2.388,0,0,0-1.73-2.58,1.718,1.718,0,0,0-.38-0.08c-1.14-.14-2.09.68-3,1.37-3.04,2.3-10.34,8.44-12.79,15.98a26.649,26.649,0,0,0-.78,3.29,107.821,107.821,0,0,0-1.48,16.25c-0.02,1.13-.02,2.27,0,3.41,0.21,11.79,2.65,13.61,3.65,14.29,0.02,0.01.04,0.03,0.06,0.04a0.01,0.01,0,0,1,.01.01,0.02,0.02,0,0,1,.02.01,0.219,0.219,0,0,1,.05.03l0.27,0.18c0.1,0.06.48,0.3,0.58,0.37a137.639,137.639,0,0,0,23.23,11.38c1.06,0.42,2.12.83,3.19,1.24,8.43,3.21,18.24,6.44,28.69,7.49,1.13,0.11,2.27.2,3.41,0.26,1.1,0.05,2.19.08,3.28,0.08a59.458,59.458,0,0,0,19.62-3.23c1.08-.38,2.15-0.79,3.2-1.25a24.61,24.61,0,0,0,9.73-7.08,15.267,15.267,0,0,0,1.83-2.95,12.211,12.211,0,0,0,1.2-5.18,11.81,11.81,0,0,0-.52-3.39" transform="translate(-1766.84 -9777)"/>
</svg>
