<svg xmlns="http://www.w3.org/2000/svg" width="65.094" height="38.781" viewBox="0 0 65.094 38.781">
  <defs>
    <style>
      .cls-1 {
        fill: #ffc600;
        fill-rule: evenodd;
      }
    </style>
  </defs>
  <path id="footer_taxi.svg" data-name="footer/taxi.svg" class="cls-1" d="M118.259,23.183a10.667,10.667,0,0,0-.436-2.131c-0.556-1.707-4.329-2.709-6-3.177-1.261-.349-2.561-0.565-3.84-0.852a4.82,4.82,0,0,1-.687-0.229,1.891,1.891,0,0,1-1.239-1.474,25.063,25.063,0,0,0-.525-2.453,11.845,11.845,0,0,0-4.39-6.495,10.271,10.271,0,0,0-5.047-1.84c-0.926-.093-1.86-0.066-2.79-0.093-0.137,0-2.773,0-2.953,0V3.024A2.867,2.867,0,0,0,87.482.169c-0.816,0-4.135,0-4.95,0a2.693,2.693,0,0,0-2.764,2.753c-0.009.485,0,.971,0,1.513-0.229,0-.428,0-0.626,0a36.167,36.167,0,0,0-7.013.459,10.037,10.037,0,0,0-5.2,3.4,13.6,13.6,0,0,0-2.777,6.548,2.225,2.225,0,0,1-2.037,2.188c-1.194.269-2.4,0.481-3.588,0.772a5.249,5.249,0,0,0-3.267,2.237,5.691,5.691,0,0,0-.837,2.555q-0.357,3.389-.666,6.786a4.23,4.23,0,0,0,3.509,4.328,0.932,0.932,0,0,0,1.164-.926A7.32,7.32,0,0,1,60.5,27.308a7.553,7.553,0,0,1,13,4.712,1.951,1.951,0,0,0,1.935,1.866H94.923A1.662,1.662,0,0,0,96.6,32.3,7.554,7.554,0,0,1,105.048,25a7.579,7.579,0,0,1,6.625,8.1,0.9,0.9,0,0,0,1.309.86l1.045-.538c1.649-.852,4.977-2.4,4.8-4.262C118.642,27.171,118.475,25.172,118.259,23.183ZM80.173,16.507a0.709,0.709,0,0,1-.705.71H67.8a0.711,0.711,0,0,1-.705-0.79,15.211,15.211,0,0,1,.67-3.221,9.514,9.514,0,0,1,1.9-3.331A7.037,7.037,0,0,1,73.971,7.6a22.117,22.117,0,0,1,2.707-.159c0.926-.018,1.851-0.009,2.79,0a0.7,0.7,0,0,1,.705.706v8.365Zm22.265,0.71H84.251a0.709,0.709,0,0,1-.705-0.71V8.142a0.7,0.7,0,0,1,.705-0.706c0.939,0,8.38-.013,9.305,0a22.118,22.118,0,0,1,2.707.159,7.047,7.047,0,0,1,4.306,2.277,9.659,9.659,0,0,1,1.905,3.331,14.97,14.97,0,0,1,.665,3.221A0.7,0.7,0,0,1,102.438,17.217Zm13.727,5.511a0.866,0.866,0,0,1-.864.865h-3.332a0.668,0.668,0,0,1-.666-0.666V21.713a0.668,0.668,0,0,1,.666-0.666h2.7a1.5,1.5,0,0,1,1.5,1.5v0.181ZM65.944,26.073A6.431,6.431,0,1,0,72.38,32.5,6.434,6.434,0,0,0,65.944,26.073Zm0.031,10.051a3.616,3.616,0,1,1,3.619-3.653A3.6,3.6,0,0,1,65.975,36.123Zm38.174-10.051a6.433,6.433,0,1,0,6.405,6.38A6.437,6.437,0,0,0,104.149,26.073Zm0.008,10.051a3.618,3.618,0,1,1,3.611-3.636A3.608,3.608,0,0,1,104.157,36.123Z" transform="translate(-53.75 -0.156)"/>
</svg>
