<svg xmlns="http://www.w3.org/2000/svg" width="367.22" height="86.4" viewBox="0 0 367.22 86.4">
  <defs>
    <style>
      .cls-1 {
        fill: #f45f4a;
        fill-rule: evenodd;
      }
    </style>
  </defs>
  <path id="onair_title.svg" data-name="onair/title.svg" class="cls-1" d="M2035.64,11910.3c-4.65,24,10.73,43,34.73,43s46.9-19,51.55-43-10.79-43.4-34.79-43.4S2040.3,11886.3,2035.64,11910.3Zm19.2,0c2.56-13.2,15.48-24.2,28.56-24.2,13.2,0,21.88,11,19.32,24.2-2.54,13-15.43,23.8-28.63,23.8C2061.01,11934.1,2052.31,11923.3,2054.84,11910.3Zm70.49,39.6a1.814,1.814,0,0,0,1.84,2.2h14.27a2.843,2.843,0,0,0,2.73-2.2l8.68-44.8h0.12l38.16,47.6a2.433,2.433,0,0,0,1.44.6h1.92a2.817,2.817,0,0,0,2.7-2.1l15.67-80.8a1.9,1.9,0,0,0-1.84-2.3h-14.4a2.914,2.914,0,0,0-2.72,2.3l-8.27,42.6h-0.12l-38.94-46.1h-3a2.919,2.919,0,0,0-2.7,2.2Zm80.02,2.2h13.2a5.692,5.692,0,0,0,4.88-2.8l6.18-9.6h32.64l2.48,9.4c0.64,2.3,1.46,3,3.62,3h13.32a2.547,2.547,0,0,0,2.65-3.1l-21.9-80.7a1.879,1.879,0,0,0-1.78-1.4h-1.2a2.968,2.968,0,0,0-2.3,1.4l-53.22,80.7C2202.9,11950.6,2203.55,11952.1,2205.35,11952.1Zm34.63-28.8,12.84-19.8h0.12l5.28,19.8h-18.24Zm49.68,26.6a1.812,1.812,0,0,0,1.83,2.2h14.4a2.955,2.955,0,0,0,2.73-2.2l15.41-79.5a1.9,1.9,0,0,0-1.84-2.3h-14.4a3.031,3.031,0,0,0-2.72,2.3Zm36.76,0a1.756,1.756,0,0,0,1.83,2.2h14.28a2.955,2.955,0,0,0,2.73-2.2l5.93-30.6h8.28l9.79,31.8a1.824,1.824,0,0,0,1.71,1h15.96a2.687,2.687,0,0,0,2.72-3.4l-10.53-30.5c11.26-4.2,20.3-13.1,22.44-24.1,2.77-14.3-6.73-26-21.13-26h-35.88a2.914,2.914,0,0,0-2.72,2.3Zm27.73-45.9,3.63-18.7h17.76a7.348,7.348,0,0,1,7.35,9.1c-0.98,5.1-6.06,9.6-10.98,9.6h-17.76Z" transform="translate(-2034.81 -11866.9)"/>
</svg>
