<?xml version="1.0" encoding="utf-8"?>
<!-- Generator: Adobe Illustrator 24.0.1, SVG Export Plug-In . SVG Version: 6.00 Build 0)  -->
<svg version="1.1" id="レイヤー_1" xmlns="http://www.w3.org/2000/svg" xmlns:xlink="http://www.w3.org/1999/xlink" x="0px"
	 y="0px" viewBox="0 0 689.3 172.5" style="enable-background:new 0 0 689.3 172.5;" xml:space="preserve">
<style type="text/css">
	.st0{fill-rule:evenodd;clip-rule:evenodd;fill:#FFFFFF;}
	.st1{fill:#FFFFFF;}
</style>
<path class="st0" d="M384.5,41c4.3-2.5,20.8,2.3,26.6-1.2c2-1.6,1.2-5.7,2.2-8.4c2.3-6.5,5.3-15.1,6-22.8c-2.8-1.5-7.9-0.5-12.2-1.2
	c-11.2-1.9-23.8,0-35.3-1.7c-2.2,0.2-4.3,0.5-6.5,0.7c-8.8,1.8-24,4.1-33.8,2.2c-5.8-1.1-14.2-2.5-19.7-1.7c-1.2,1.9-0.7,5-1.4,8.2
	c-1.6,6.9-4.8,14.7-5.2,23.2c-4.7-1.7-10.2-2.4-15.2-3.1c-6.5-0.8-13.9,2.9-21.1,3.6c-11.5,1.1-28.7,7-42.3,7.6
	c-2.2,0.1-4.3,0.8-6.4,1.4c-0.5-1.1-1-2.2-1.5-3.2c-1-2.7-2.1-5.5-3.1-8.2c-2.4-4-7.9-11-11.9-12.8c-12.6-5.7-21.2-3.4-37.3-2.9
	c-5.6,0.2-9,2.8-14.1,2.9c-1.9,0.5-3.9,1-5.8,1.4c-8.1,3.1-16.8,6.1-24.3,6.9c-1.1,0.1-3,0.2-5.1,0.4c-0.3-4.9-1.6-10-4.1-14.1
	c-2.2-2.1-4.4-4.2-6.7-6.2c-0.7-1.4-1.4-2.8-2.1-4.2c-1.2-0.5-2.3-1-3.5-1.5c-1.4-1.2-2.8-2.4-4.2-3.6C90.1-0.3,82.2,0,73.7,0
	c-2.6,0.4-5.2,0.7-7.9,1.1c-1.8,0.6-3.5,1.2-5.3,1.8c-11.9,6.5-30,8.2-38.9,17.2c-1.4,2.2-2.9,4.3-4.3,6.5
	C7.1,38.3,2.3,50.8,0.1,67.7c0.1,3.2,0.1,6.3,0.2,9.5c-0.7,8.7-0.5,24.2,4.8,33.1c2.5,4.2,6.1,8,9.2,11.4c4,4.4,8.8,10.7,14.6,11.7
	c1.1-0.2,2.2-0.4,3.3-0.7c5.8,0.3,9.5,1.6,15.9-0.1c3.1-0.3,6.2-0.6,9.4-0.9c3.6-0.9,7.1-1.8,10.7-2.7c2.4-0.5,4.7-1,7.1-1.4
	c13.3-6.1,23.7-14.9,31-25.6c1,8.2,1,17.1,1.5,24c0.5,6.1-2.6,25.5,0.9,30.7c0.5,0.8,1.8,0.9,2.5,1.7c2.6-1,5.3-2.1,7.9-3.1
	c4.5-1.9,8.7-1.8,12.6-3.3c7.9-1.2,15.8-2.4,23.8-3.6c4.2-0.1,9.3-2.4,12.5-3.8c1.7-0.4,3.4-0.7,5.2-1.1c5.1-2,10.2-3.4,15.3-5.3
	c7.1-2.7,15.1-9.7,18.9-14.4c0.9-2.2,1.9-4.5,2.8-6.7c0.2-0.4,0.4-0.8,0.6-1.1c0.3,2,0.6,4.1,0.9,6.1c-0.3,5.4-1.4,11.1-1.3,17.7
	c0.1,8.7,1.3,14.6,0.8,23.1c-0.1,2.3-1.5,6.9,0.3,8.8c1.6,1.7,4.2,0.2,7.3-0.3c1.7-0.7,3.3-1.3,5-2c5.9-0.5,12.2-1.4,17.9-3.4
	c11.1-3.8,22.1-4,34.8-8.5c2.7-0.2,5.3-0.4,8-0.6c4.8-1.7,7.9-5.2,11.1-7.9c1.5-0.8,2.9-1.6,4.4-2.4c5.7-4,11-10.3,15.5-15.4
	c0.9-1,1.7-2.2,2.5-3.5c1.9,0.3,5.6,0,7.4-0.3c7.3-0.2,14.6-0.3,21.8-0.5c5.2,0.8,11.7,1.4,16.1,0c5.4-22.1,9.1-45.2,15.6-66.2
	C380.4,55.3,381,43.1,384.5,41 M71.1,85.8L68.8,90c-1,2-6.6,9.3-9.6,9.3c-7.8,0-7.8-7.6-10.4-13.8c-4.2-10.1-2.1-32.9,1.5-41
	c1.2-2.6,3.6-4.9,5.1-7.4c4-0.9,9-1,11.2,0.9c0.8,0.7,5.1,9.4,5.1,10.7C71.5,60.1,73.3,75.2,71.1,85.8 M167.2,115.1
	c-1.5,1.9-11,5.2-14.5,5.9c-2.3-5.8-0.1-14.3-0.3-20.8c-0.2-7.4-1.5-16-1-24.3c0.4-7,1.7-13.8,2-21.2c4.6-0.5,13.6-0.8,16.3,1.8
	c4,3.9,3.9,14.9,4.1,20.2C174.4,90,173.7,106.8,167.2,115.1 M275.1,124.9c-2.8,4.5-10.9,10.7-18.5,10.4c-2.2-3.3-0.8-12.8-0.5-16.8
	c0.8-10.5,1.2-22,1.9-33c0.3-5.8-1.1-12.3,1-16.6c6.2-0.4,12,0,15.5,3.7c3.8,4.1,2.8,11.9,4.1,17.8
	C279.9,96.2,277.4,121.2,275.1,124.9 M328.6,64.2c-0.7,3-1.4,6-2,9c-0.3-4.7-1-9.4-2.2-12c-1.9-2.6-3.8-5.3-5.8-7.9
	c-2.3-3.8-3.7-8.3-6.7-11.1c-0.5-0.4-1-0.8-1.5-1.2c6.7,0.1,16.9-2.3,23-1.5C334.8,44.3,329.9,58.8,328.6,64.2"/>
<path class="st0" d="M595.6,82c-1.2-2.4-6.8-9.7-5.5-13.7c1-1.2,1.9-2.4,2.9-3.6c2.1-3.7,3.3-6.7,5.8-9.8c1.7-1.5,3.4-3,5-4.6
	c3-4,4.8-8.8,7.9-12.7c2-1.4,4-2.9,6-4.3c1.3-1.9,2.6-3.8,3.8-5.8c3.8-4.3,14.4-12,14.4-18.5c-0.3-0.6-0.6-1.1-1-1.7
	c-8.8-2.4-25-1.5-35.3,0c-2.6-0.3-5.3-0.6-7.9-1c-5.4,5.4-8.2,13.9-12.5,20.4c-3.3,3.8-6.6,7.7-9.8,11.5h-0.7c-2-3.2-2.2-8.8-3.6-12
	c-2.3-5.4-6.4-11.3-6.7-18.2c-7.4-4.8-13,0.6-21.6-0.5c-8.6-0.8-17.1-1.6-25.7-2.4c-1,0.6-1.7,0.7-2.4,1.7
	c3.2,8.9,7.5,17.3,11.3,25.4c4.3,9.3,7.8,21.4,12.7,31.7c-3.2,7.8-9.1,12-13.7,18c-1.5,2.4-3,4.8-4.6,7.2
	c-3.6,4.3-7.3,7.9-10.7,11.8c-0.6-2.4-1.1-4.8-1.5-7c-0.6-3.4,0.8-6.4,0.2-9.6c-2.3-12.9-3-26.7-5.3-40.1V32.1
	c-0.8-4.6-1.4-8.2-2.2-12.5c-0.7-3.9,1.2-8.2-0.2-11.3c-0.5-0.4-1-0.8-1.4-1.2c-3.8,0.2-7.7,0.5-11.5,0.7c-4.4,0.2-8.8,0.3-13.2,0.5
	c-7-0.8-14.7-1.2-21.6-1.4c-4.9,2-11.1,0.4-15.4,1.2c-4.1,8.6-8.9,16.2-12.7,24.5c-0.5,1.9-1,3.8-1.4,5.8c-1.2,2.8-3.4,5.2-4.8,7.7
	c-1.3,2.8-2.6,5.6-3.8,8.4c-3.5,5.2-7,10.4-10.6,15.6c-1.5,4.3-3,8.6-4.6,13c-3.7,5.8-7.4,11.5-11,17.3c-1.6,4.2-3.2,8.3-4.8,12.5
	c-2,4-6.8,7.8-7,13.2c0.4,0.4,0.8,0.8,1.2,1.2c9.7-0.1,19.4-0.2,29-0.2c4.6-0.2,11,1.3,15.8,0.5c1.3-3.1,7.2-17.6,9.4-19h28.3
	c2.3,4.8,2.1,14.8,2.6,19.2c2.2,1.3,6.9,1.2,10.1,0.7c6.4-0.9,14.4-2,22.7-1.8c2.1,0.3,4.8,0.5,8,0.7c2.1,0.3,4.1,0.6,6.3,0.2
	c10.9,0.3,23.2-0.1,25.6-1c1.9-1.1,3-5.2,4.3-7c4.3-5.9,8.8-11.5,13-17.8c1.4-1.8,2.9-3.7,4.3-5.5c0.5-0.2,1-0.3,1.4-0.5
	c1.9,3.5,1.5,7.7,2.9,12.5c1.4,3.2,2.7,6.4,4.1,9.6c1.5,3.9,1,6.4,3.8,8.6c4.1,0.8,8.9-0.5,13.7,0.2c7.2,1.2,28.3,1.2,34.3-0.5
	c0.3-0.6,0.6-1.1,1-1.7c-0.6-9.1-6.6-16.5-9.6-23.3C600.7,94.8,598.1,88.4,595.6,82 M455.4,78.6c-5.7,0.8-11.3-0.4-17.5-0.5
	c0.4-7,4.4-10.8,6.5-15.8c1-2.5,0.4-4.5,1.7-6.7c2.2-3.8,6.1-7.3,7.2-11.8c2.8,0.8,1,5,1.7,7.9C456.6,59.2,455.7,69.1,455.4,78.6"/>
<path class="st0" d="M689.2,8.8c-4.1-2.8-16-2.6-22.6-3.1c-6.8,2.7-21.4-1.4-26.9,1.4c-1.6,6.7-3,13.3-4.6,19.2
	c-0.4,3.6-0.8,7.2-1.2,10.8c-0.8,2.4-2.5,6.5-2.4,9.6c0.1,3.3,1,8.9,0,12.2c-2.1,6.8-5.1,13.5-7,20.9c-2.3,9.3-2.4,17.3-4.8,26.6
	c-1.3,5.1-4.1,12.7-3.4,18.5h0.5c2.9,2.7,10.7,0.7,15.4,0.7c7.6,0,14.5,0.8,21.4-0.2c4.1-0.6,8.2,0.5,11.3,0c2.5-4.5,2-12,3.4-17.3
	c3.7-13.9,6-30,9.6-43.7l0.5-12.7c1.3-5.3,4.3-9.9,5.5-14.9c0.3-3.7,0.6-7.4,1-11C686.1,20.7,689.9,14.7,689.2,8.8"/>
<path class="st1" d="M324.7,156.7v-5.2c1,0,1.6-0.1,2.1-0.3c0.7-0.3,1.3-0.9,1.8-1.8l3-4.6h-6.8v-5.2h11.3V136h5.8v3.7h4.3v5.2H342
	v12.4h-5.8v-9.9l-3.3,5.6c-1.2,2-2.8,3.2-4.7,3.5C327.2,156.7,326,156.7,324.7,156.7"/>
<path class="st1" d="M383.3,147.7h-5.4c-0.5-3-1.1-5.8-1.8-8.4h5.3C381.9,140.8,382.5,143.6,383.3,147.7 M377.4,156.9v-5h6.9
	c2.3,0,3.8-0.3,4.6-0.9c0.7-0.5,1.1-1.4,1.1-2.7v-9h5.5v7.5c0,4.1-0.8,6.9-2.6,8.4c-1.2,0.9-2.9,1.5-5.2,1.7c-1,0.1-2.5,0.2-4.4,0.2
	H377.4z M382.5,139.3h5.3c0.7,2.7,1.3,5.4,1.8,8.4h-5.2C383.9,145,383.3,142.2,382.5,139.3"/>
<path class="st1" d="M429.7,157.3V136h6.1v6.1c4.4,0.9,7.8,1.8,10.4,2.7v6c-3.6-1.3-7.1-2.3-10.4-2.8v9.4H429.7z M440.1,136.1h2.7
	v3.8h-2.7V136.1z M443.5,136.1h2.7v3.8h-2.7V136.1z"/>
<path class="st1" d="M484.1,149.1v-2.7c-1.6,1.6-3.7,2.5-6.3,2.8v-5.6c1.1-0.3,1.9-0.9,2.4-1.9c0.4-0.8,0.7-2.6,0.9-5.1h17.1v7.9
	c-0.1,4.7-0.8,7.9-2.3,9.6c-1.7,1.9-4.7,2.9-8.9,2.9h-7.5v-5.4h6.4c2.5,0,4.2-0.2,4.9-0.6c0.6-0.4,1.1-1,1.3-2H484.1z M492.3,141.8
	h-6.1c-0.1,0.6-0.4,1.4-0.7,2.4h6.8V141.8z"/>
<path class="st1" d="M536.7,141.5c-0.4,2.5-1.3,4.3-2.5,5.4c-1.3,1.1-3.2,1.9-5.5,2.3v-5.7c1.1-0.3,1.8-0.8,2.2-1.4
	c0.5-0.7,0.8-2.6,0.8-5.8h17.5v10.8c0,2.5-0.3,4.4-0.9,5.6c-0.9,1.8-2.3,3-4.4,3.7c-1.5,0.5-3.3,0.8-5.3,0.8h-8.2v-5.3h6.4
	c2.5,0,4.2-0.3,5-0.8c1-0.7,1.6-2,1.6-3.9v-5.6H536.7z"/>
<path class="st1" d="M579.8,151h9c2.1,0,3.5-0.4,4.3-1.3c0.7-0.7,1-2,1-3.9v-7.4h6v8.3c0.2,6.8-3.5,10.1-11.2,10h-9.2V151z
	 M590.3,137.7v5.3c-4.5-1-8-1.6-10.5-1.9v-5.1C582.9,136.2,586.4,136.8,590.3,137.7 M590.3,144.4v5.2c-3.1-0.7-6.6-1.4-10.5-1.8
	v-5.4C581.9,142.7,585.4,143.3,590.3,144.4"/>
<rect x="630.3" y="143.8" class="st1" width="21.3" height="5.4"/>
</svg>
