<?xml version="1.0" encoding="utf-8"?>
<!-- Generator: Adobe Illustrator 24.0.1, SVG Export Plug-In . SVG Version: 6.00 Build 0)  -->
<svg version="1.1" id="movie_title.svg" xmlns="http://www.w3.org/2000/svg" xmlns:xlink="http://www.w3.org/1999/xlink" x="0px"
	 y="0px" viewBox="0 0 547.2 241.4" style="enable-background:new 0 0 547.2 241.4;" xml:space="preserve">
<style type="text/css">
	.st0{fill-rule:evenodd;clip-rule:evenodd;fill:#F45F4A;}
	.st1{fill:#F45F4A;}
</style>
<path id="MOVIE" class="st0" d="M0.2,236c-0.8,2.2,0.5,3.8,2.5,3.8H23c1.7-0.1,3.2-1.2,3.8-2.7l17.8-53h0.4l18.2,55.5
	c0.4,1.1,1.4,1.8,2.6,1.9h3.1c1.3-0.2,2.5-0.9,3.3-1.9l39.6-55.5h0.3l-2.6,53c0,1.5,1.2,2.7,2.7,2.7h20.2c2.1,0,3.9-1.6,4-3.8
	l3-115.2c0.1-1.4-1-2.6-2.4-2.7c0,0-0.1,0-0.1,0H134c-1.3,0.1-2.4,0.7-3.2,1.7l-54.1,74h-0.3l-25.4-74c-0.5-1-1.5-1.7-2.6-1.7h-2.8
	c-1.6,0.1-3,1.2-3.6,2.7L0.2,236z M156.2,179.9c-6.6,34.3,15.3,61.5,49.6,61.5s67-27.3,73.6-61.5S264,118,229.7,118
	S162.8,145.6,156.2,179.9z M183.6,179.9c3.7-18.9,22.1-34.5,40.8-34.5c18.9,0,31.3,15.6,27.6,34.5c-3.6,18.7-22.1,34.1-40.9,34.1
	C192.4,214,180,198.6,183.6,179.9L183.6,179.9z M320.5,239.6c0.3,1.1,1.4,1.9,2.6,1.9h1.7c1.3-0.1,2.6-0.8,3.3-1.9l76.2-115.4
	c1.5-2.2,0.5-4.5-2.1-4.5h-22.8c-1.3,0.1-2.5,0.8-3.3,1.9l-40.4,62.6h-1l-16.1-62.6c-0.3-1.1-1.4-1.9-2.6-1.9h-22.8
	c-2-0.1-3.8,1.4-3.9,3.5c0,0.3,0,0.7,0.1,1L320.5,239.6z M399,236.5c-0.3,1.5,0.6,2.9,2.1,3.2c0.2,0,0.4,0.1,0.6,0.1h20.6
	c1.9-0.1,3.4-1.4,3.9-3.3l22-113.5c0.3-1.4-0.6-2.9-2-3.2c-0.2,0-0.4-0.1-0.6-0.1H425c-1.9,0.1-3.4,1.4-3.9,3.3L399,236.5z
	 M447.6,236.5c-0.4,1.4,0.5,2.8,1.9,3.2c0.2,0.1,0.5,0.1,0.8,0.1h71c1.9-0.1,3.5-1.4,3.9-3.3l3.6-18.7c0.4-1.4-0.5-2.8-1.9-3.2
	c-0.2-0.1-0.5-0.1-0.7-0.1h-47.5l4.5-23.1h39.1c1.9-0.1,3.5-1.4,3.9-3.2l3.6-18.7c0.3-1.4-0.6-2.9-2-3.2c-0.2,0-0.4-0.1-0.6-0.1H488
	l4.1-21.3h47.5c1.9-0.1,3.5-1.4,3.9-3.3l3.6-18.7c0.4-1.4-0.5-2.8-1.9-3.2c-0.2-0.1-0.5-0.1-0.7-0.1h-71c-1.9,0.1-3.5,1.4-3.9,3.3
	L447.6,236.5z"/>
<g>
	<path class="st1" d="M298.3,44.7c0-6.2-3.7-11.1-8.3-11.1c-4.7,0-8.3,4.9-8.3,11.1s3.7,11.1,8.3,11.1
		C294.7,55.8,298.3,51,298.3,44.7"/>
	<path class="st1" d="M330.1,65.8c-2.5-8.4-12.8-11.3-20-13.2c-0.2,0-0.9-0.2-1-0.3c-0.3-0.1-0.5-0.3-0.5-0.7
		c-0.1-6.1-0.8-12.4-1.4-16c-0.2-1.1-0.4-2.2-0.7-3.3c-2.1-7.7-7.1-13.6-15.2-17.9c-1-0.5-2-1-3.1-1.4c-2.6-0.9-6-1.6-10.5-1.9
		c-0.9-0.1-1.7-0.8-1.7-1.8V7.9c0-3.8-3.1-6.8-6.8-6.8c-3.8,0-6.8,3.1-6.8,6.8v3.7c0,0.9-0.5,1.7-1.1,2.2c-0.8,0.6-1.4,1.3-2.1,2
		c-2.2,2.6-3.3,5.9-3.3,9.4v24.9c0,1.3,1.1,2.4,2.4,2.4s2.4-1.1,2.4-2.4V25.4c0-2.1,0.6-4.2,1.8-5.8c0.7-0.9,1.5-1.8,2.4-2.4
		c1.1-0.7,2.2-1.2,3.5-1.5c1.1-0.2,2.2-0.1,3.4-0.1c6.6,0.1,11.3,0.7,14.4,1.7c1.1,0.4,2.1,0.9,3.1,1.4c6.8,3.6,10.9,8.3,12.6,14.6
		c0.3,1.1,0.5,2.2,0.7,3.4c1.5,8.7,1.7,21.1,0.5,25.7c-0.3,1.1-1.2,1.9-2.2,2.4c-5,2.6-14.6,4-28.9,4.1c-1.1,0-2.3,0-3.4,0
		c-16.2-0.1-26.4-1.7-31.3-4.7c-0.1-0.1-0.2-0.1-0.3-0.2s-0.2-0.1-0.2-0.2c-1.9-2.6-2-18.6-0.2-28.8c0.2-1.1,0.4-2.3,0.8-3.3
		c2.1-5.8,7.9-10.9,10.5-12.9c0.9-0.7,2-1.2,2.3-2.3c0-0.1,0.1-0.2,0.1-0.4c0.1-1.2-0.6-2.2-1.7-2.6c-0.1,0-0.2-0.1-0.4-0.1
		c-1.1-0.1-2.1,0.7-2.9,1.4c-3,2.3-10.2,8.4-12.6,15.9c-0.3,1.1-0.6,2.2-0.8,3.3c-0.8,4.5-1.4,10.6-1.5,16.2c0,1.1,0,2.3,0,3.4
		c0.2,11.7,2.6,13.6,3.6,14.2c0,0,0,0,0.1,0l0,0l0,0c0,0,0,0,0.1,0c0.1,0.1,0.2,0.1,0.3,0.2s0.5,0.3,0.6,0.4
		c7.6,4.9,16,8.6,22.8,11.3c1,0.4,2.1,0.8,3.1,1.2c8.3,3.2,17.9,6.4,28.2,7.5c1.1,0.1,2.2,0.2,3.3,0.3c1.1,0.1,2.2,0.1,3.2,0.1
		c6.8,0,13.3-1.1,19.3-3.2c1.1-0.4,2.1-0.8,3.1-1.2c4.2-1.9,7.4-4.2,9.6-7.1c0.7-0.9,1.3-1.9,1.8-2.9c0.8-1.7,1.2-3.4,1.2-5.2
		C330.6,68,330.4,66.8,330.1,65.8"/>
</g>
</svg>
