<?xml version="1.0" encoding="utf-8"?>
<!-- Generator: Adobe Illustrator 24.0.1, SVG Export Plug-In . SVG Version: 6.00 Build 0)  -->
<svg version="1.1" id="news_title.svg" xmlns="http://www.w3.org/2000/svg" xmlns:xlink="http://www.w3.org/1999/xlink" x="0px"
	 y="0px" viewBox="0 0 463.9 254.4" style="enable-background:new 0 0 463.9 254.4;" xml:space="preserve">
<style type="text/css">
	.st0{fill-rule:evenodd;clip-rule:evenodd;fill:#F45F4A;}
	.st1{fill:#F45F4A;}
</style>
<path id="NEWS" class="st0" d="M0,249.5c-0.3,1.5,0.6,2.9,2.1,3.2c0.2,0,0.4,0.1,0.6,0.1h20.4c1.9-0.1,3.5-1.4,3.9-3.3l12.4-63.9
	h0.2l54.4,68c0.6,0.5,1.3,0.8,2.1,0.9h2.7c1.8-0.1,3.4-1.3,3.9-3.1L125.1,136c0.3-1.5-0.6-2.9-2.1-3.2c-0.2,0-0.4-0.1-0.6-0.1h-20.6
	c-1.9,0.1-3.5,1.4-3.9,3.3l-11.8,60.9H86L30.4,131h-4.3c-1.8,0.1-3.4,1.3-3.9,3.1L0,249.5z M122.9,249.5c-0.4,1.4,0.5,2.8,1.9,3.2
	c0.2,0.1,0.5,0.1,0.8,0.1h71c1.9-0.1,3.5-1.4,3.9-3.3l3.6-18.7c0.4-1.4-0.5-2.8-1.9-3.2c-0.2-0.1-0.5-0.1-0.7-0.1H154l4.5-23.1h39.1
	c1.9-0.1,3.5-1.4,3.9-3.2l3.6-18.7c0.3-1.4-0.6-2.9-2.1-3.2c-0.2,0-0.4-0.1-0.6-0.1h-39.1l4.1-21.3h47.5c1.9-0.1,3.5-1.4,3.9-3.3
	l3.6-18.7c0.4-1.4-0.5-2.8-1.9-3.2c-0.2-0.1-0.5-0.1-0.7-0.1h-71c-1.9,0.1-3.5,1.4-3.9,3.3L122.9,249.5z M245.9,252
	c0.1,1.4,1.2,2.4,2.6,2.4h2.7c1.3-0.1,2.5-0.8,3.3-1.9l44.8-70.1h0.5l17.8,70.1c0.4,1.1,1.4,1.9,2.6,1.9h2.7c1.5-0.1,2.9-1,3.6-2.4
	l54.7-115.2c1.2-2.4,0.1-4.1-2.3-4.1h-20.1c-1.5,0.2-2.8,1.1-3.6,2.4l-26,58.1h-0.7l-14.9-60.3c-0.2-1.2-1.3-2-2.6-1.9h-3.1
	c-1.3,0.1-2.6,0.8-3.3,1.9l-38.3,60.3h-0.7l-3.5-58.1c-0.2-1.3-1.3-2.3-2.6-2.4h-20.1c-2-0.1-3.8,1.4-3.9,3.4c0,0.2,0,0.5,0,0.7
	L245.9,252z M369.3,241.2c3.2,3.9,13.7,13.2,36,13.2c25.2,0,43.9-17.8,47.3-35.5c4.5-23.3-14.7-33.8-27-39.1
	c-12.5-5.5-16.7-10.3-15.5-16.6c0.9-4.6,6.3-8.8,12.5-8.8c10.5,0,21.1,9.4,22.5,10.3c1.3,1.2,4.7-0.4,6.3-2.2l11.3-13.2
	c0.9-1.2,1.9-4.3,0-5.5c-9.5-8.2-21.6-12.8-34.2-12.9c-26.4,0-42.9,17.1-46.2,34.1c-4,20.6,12.3,32.1,25.9,37.9
	c10.8,4.6,15.7,10.1,14.3,17.3c-1.2,6-7,10.3-13.8,10.3c-11.3,0-21.9-9.1-22.5-9.4c-2-1.2-4.5-0.7-6,1l-10.8,14.2
	C367.6,238.8,368,239.5,369.3,241.2z"/>
<g>
	<path class="st1" d="M254.1,44.8c0-6.2-3.7-11.1-8.3-11.1c-4.7,0-8.3,4.9-8.3,11.1s3.7,11.1,8.3,11.1
		C250.5,55.9,254.1,51.1,254.1,44.8"/>
	<path class="st1" d="M285.9,65.8c-2.5-8.4-12.8-11.3-20-13.2c-0.2,0-0.9-0.2-1-0.3c-0.3-0.1-0.5-0.3-0.5-0.7
		c-0.1-6.1-0.8-12.4-1.4-16c-0.2-1.1-0.4-2.2-0.7-3.3c-2.1-7.7-7.1-13.6-15.2-17.9c-1-0.5-2-1-3.1-1.4c-2.6-0.9-6-1.6-10.5-1.9
		c-0.9-0.1-1.7-0.8-1.7-1.8V8c0-3.8-3.1-6.8-6.8-6.8c-3.8,0-6.8,3.1-6.8,6.8v3.7c0,0.9-0.5,1.7-1.1,2.2c-0.8,0.6-1.4,1.3-2.1,2
		c-2.2,2.6-3.3,5.9-3.3,9.4v24.9c0,1.3,1.1,2.4,2.4,2.4s2.4-1.1,2.4-2.4V25.5c0-2.1,0.6-4.2,1.8-5.8c0.7-0.9,1.5-1.8,2.4-2.4
		c1.1-0.7,2.2-1.2,3.5-1.5c1.1-0.2,2.2-0.1,3.4-0.1c6.6,0.1,11.3,0.7,14.4,1.7c1.1,0.4,2.1,0.9,3.1,1.4c6.8,3.6,10.9,8.3,12.6,14.6
		c0.3,1.1,0.5,2.2,0.7,3.4c1.5,8.7,1.7,21.1,0.5,25.7c-0.3,1.1-1.2,1.9-2.2,2.4c-5,2.6-14.6,4-28.9,4.1c-1.1,0-2.3,0-3.4,0
		c-16.2-0.1-26.4-1.7-31.3-4.7c-0.1-0.1-0.2-0.1-0.3-0.2s-0.2-0.1-0.2-0.2c-1.9-2.6-2-18.6-0.2-28.8c0.2-1.1,0.4-2.3,0.8-3.3
		c2.1-5.8,7.9-10.9,10.5-12.9c0.9-0.7,2-1.2,2.3-2.3c0-0.1,0.1-0.2,0.1-0.4c0.1-1.2-0.6-2.2-1.7-2.6c-0.1,0-0.2-0.1-0.4-0.1
		c-1.1-0.1-2.1,0.7-2.9,1.4c-3,2.3-10.2,8.4-12.6,15.9c-0.3,1.1-0.6,2.2-0.8,3.3c-0.8,4.5-1.4,10.6-1.5,16.2c0,1.1,0,2.3,0,3.4
		c0.2,11.7,2.6,13.6,3.6,14.2c0,0,0,0,0.1,0l0,0l0,0c0,0,0,0,0.1,0c0.1,0.1,0.2,0.1,0.3,0.2s0.5,0.3,0.6,0.4
		c7.6,4.9,16,8.6,22.8,11.3c1,0.4,2.1,0.8,3.1,1.2c8.3,3.2,17.9,6.4,28.2,7.5c1.1,0.1,2.2,0.2,3.3,0.3c1.1,0.1,2.2,0.1,3.2,0.1
		c6.8,0,13.3-1.1,19.3-3.2c1.1-0.4,2.1-0.8,3.1-1.2c4.2-1.9,7.4-4.2,9.6-7.1c0.7-0.9,1.3-1.9,1.8-2.9c0.8-1.7,1.2-3.4,1.2-5.2
		C286.4,68.1,286.2,66.9,285.9,65.8"/>
</g>
</svg>
