<svg id="staff_pc.svg" xmlns="http://www.w3.org/2000/svg" xmlns:xlink="http://www.w3.org/1999/xlink" width="793.719" height="853" viewBox="0 0 793.719 853">
  <defs>
    <style>
      .cls-1, .cls-8 {
        fill: #1e5b55;
      }

      .cls-1, .cls-7 {
        fill-rule: evenodd;
      }

      .cls-2, .cls-3, .cls-4, .cls-5, .cls-6, .cls-7 {
        fill: #f45f4a;
      }

      .cls-2, .cls-3, .cls-4, .cls-5, .cls-6 {
        stroke: #1e5b55;
        stroke-width: 2px;
      }

      .cls-2 {
        filter: url(#filter);
      }

      .cls-3 {
        filter: url(#filter-2);
      }

      .cls-4 {
        filter: url(#filter-3);
      }

      .cls-5 {
        filter: url(#filter-4);
      }

      .cls-6 {
        filter: url(#filter-5);
      }
    </style>
    <filter id="filter" x="179" y="157" width="146" height="36" filterUnits="userSpaceOnUse">
      <feOffset result="offset" dy="3" in="SourceAlpha"/>
      <feGaussianBlur result="blur"/>
      <feFlood result="flood" flood-color="#1e5b55"/>
      <feComposite result="composite" operator="in" in2="blur"/>
      <feBlend result="blend" in="SourceGraphic"/>
    </filter>
    <filter id="filter-2" x="325" y="618" width="146" height="36" filterUnits="userSpaceOnUse">
      <feOffset result="offset" dy="3" in="SourceAlpha"/>
      <feGaussianBlur result="blur"/>
      <feFlood result="flood" flood-color="#1e5b55"/>
      <feComposite result="composite" operator="in" in2="blur"/>
      <feBlend result="blend" in="SourceGraphic"/>
    </filter>
    <filter id="filter-3" x="101" y="618" width="146" height="36" filterUnits="userSpaceOnUse">
      <feOffset result="offset" dy="3" in="SourceAlpha"/>
      <feGaussianBlur result="blur"/>
      <feFlood result="flood" flood-color="#1e5b55"/>
      <feComposite result="composite" operator="in" in2="blur"/>
      <feBlend result="blend" in="SourceGraphic"/>
    </filter>
    <filter id="filter-4" x="551" y="618" width="146" height="36" filterUnits="userSpaceOnUse">
      <feOffset result="offset" dy="3" in="SourceAlpha"/>
      <feGaussianBlur result="blur"/>
      <feFlood result="flood" flood-color="#1e5b55"/>
      <feComposite result="composite" operator="in" in2="blur"/>
      <feBlend result="blend" in="SourceGraphic"/>
    </filter>
    <filter id="filter-5" x="447" y="157" width="146" height="36" filterUnits="userSpaceOnUse">
      <feOffset result="offset" dy="3" in="SourceAlpha"/>
      <feGaussianBlur result="blur"/>
      <feFlood result="flood" flood-color="#1e5b55"/>
      <feComposite result="composite" operator="in" in2="blur"/>
      <feBlend result="blend" in="SourceGraphic"/>
    </filter>
  </defs>
  <path id="企画_原作" data-name="企画・原作" class="cls-1" d="M366.993-.356a19.856,19.856,0,0,1-7.367,6.75,9.026,9.026,0,0,1,1.351,1.728,22.312,22.312,0,0,0,7.205-6.372,24.108,24.108,0,0,0,7.35,6.354,11.679,11.679,0,0,1,1.441-1.926,19.154,19.154,0,0,1-7.782-6.534h-2.2ZM369.5,10.5h4.828V8.608H369.5V4.756h-2.251V14.1h-2.558V7.852H362.58V14.1h-1.963v1.944h15.329V14.1H369.5V10.5Zm22.242,2.952h-10.88V3.982h-2.09V16.528h2.09V15.466h10.88V16.51h2.071V3.982h-2.071V13.45Zm-3.027-5.958h-1.567V5.98h1.567V7.492Zm0,3.15h-1.567V9.112h1.567v1.53Zm-4.971-1.53h1.567v1.53h-1.567V9.112Zm0-3.132h1.567V7.492h-1.567V5.98ZM378.229,0.8v2h6.917v1.44h-3.153v8.154h8.575V4.234h-3.279V2.794h7.062v-2H378.229Zm19.252,7.326a2.306,2.306,0,1,0,2.306-2.3A2.321,2.321,0,0,0,397.481,8.122Zm13.754,2.916a9.211,9.211,0,0,1-3.17,3.438,14.156,14.156,0,0,1,1.765,1.26,13.5,13.5,0,0,0,3.477-4.122Zm0.991-3.222h6.125V8.86h-6.125V7.816Zm0-2.52h6.125V6.322h-6.125V5.3Zm8.322,5.166V3.694H416.1l0.378-1.224-0.252-.018h5.638V0.508H406.84V5.836c0,2.808-.126,6.84-1.621,9.594a7.763,7.763,0,0,1,1.891,1.062c1.585-2.97,1.838-7.6,1.838-10.656V2.452h4.935a11.227,11.227,0,0,1-.162,1.242h-3.584v6.768h4.125v3.924c0,0.216-.072.27-0.343,0.27-0.252.018-1.116,0.018-1.909-.018a7.419,7.419,0,0,1,.594,1.89,7.547,7.547,0,0,0,2.883-.306c0.684-.288.864-0.81,0.864-1.782V10.462h4.2Zm-3.332,1.512a19.07,19.07,0,0,1,3.206,3.636l1.766-1.152a21.328,21.328,0,0,0-3.333-3.51ZM427.334-.212a18.717,18.717,0,0,1-4.107,6.732,14.636,14.636,0,0,1,1.189,2.286c0.36-.4.739-0.846,1.117-1.3v9h2.161V4.18a28.053,28.053,0,0,0,1.73-3.744Zm12.916,4.9V2.65h-6.989a21.278,21.278,0,0,0,.882-2.232L432.072-.1a17.874,17.874,0,0,1-3.819,6.786,14.565,14.565,0,0,1,1.639,1.494,19.993,19.993,0,0,0,2.36-3.492h0.684V16.528h2.2v-4h4.9v-1.98h-4.9V8.518H439.8V6.574h-4.666V4.684h5.116Z"/>
  <g id="COMMENT_-_スマートオブジェクトグループ" data-name="COMMENT - スマートオブジェクトグループ">
    <g style="fill: #f45f4a; filter: url(#filter)">
      <rect id="長方形_628" data-name="長方形 628" class="cls-2" x="179" y="157" width="146" height="33" rx="3" ry="3" style="stroke: inherit; filter: none; fill: inherit"/>
    </g>
    <use xlink:href="#長方形_628" style="stroke: #1e5b55; filter: none; fill: none"/>
    <path id="COMMENT" class="cls-1" d="M216.994,179.278a5.672,5.672,0,0,0,4.708-2.1l-2.234-2a2.836,2.836,0,0,1-2.294,1.23,2.631,2.631,0,0,1,0-5.25,2.836,2.836,0,0,1,2.294,1.23L221.7,170.4a5.67,5.67,0,0,0-4.708-2.1c-3.374,0-5.848,2.265-5.848,5.489S213.62,179.278,216.994,179.278Zm11.1,0c3.418,0,5.922-2.309,5.922-5.489s-2.5-5.489-5.922-5.489-5.923,2.31-5.923,5.489S224.68,179.278,228.1,179.278Zm0-2.864a2.641,2.641,0,1,1,2.354-2.625A2.388,2.388,0,0,1,228.1,176.414Zm19.626,2.624-0.03-10.5h-2.909l-3.329,5.594-3.418-5.594H235.13v10.5h3.223v-4.619l2.28,3.674h1.559l2.279-3.839,0.03,4.784h3.224Zm14.539,0-0.03-10.5h-2.909L256,174.134l-3.419-5.594h-2.909v10.5h3.224v-4.619l2.279,3.674h1.559l2.279-3.839,0.03,4.784h3.224Zm5.423-2.669v-1.38h4.438v-2.55h-4.438v-1.23h5.053V168.54h-8.532v10.5h8.727v-2.669h-5.248Zm13.446-7.829v4.769l-3.989-4.769h-2.909v10.5h3.449v-4.769l3.988,4.769h2.909v-10.5h-3.448Zm7.414,10.5h3.539v-7.754h3.073V168.54h-9.686v2.744h3.074v7.754Z"/>
  </g>
  <g id="COMMENT_-_スマートオブジェクトグループ-2" data-name="COMMENT - スマートオブジェクトグループ">
    <g style="fill: #f45f4a; filter: url(#filter-2)">
      <rect id="長方形_628-2" data-name="長方形 628" class="cls-3" x="325" y="618" width="146" height="33" rx="3" ry="3" style="stroke: inherit; filter: none; fill: inherit"/>
    </g>
    <use xlink:href="#長方形_628-2" style="stroke: #1e5b55; filter: none; fill: none"/>
    <path id="COMMENT-2" data-name="COMMENT" class="cls-1" d="M362.994,640.278a5.672,5.672,0,0,0,4.708-2.1l-2.234-2a2.836,2.836,0,0,1-2.294,1.23,2.63,2.63,0,0,1,0-5.249,2.835,2.835,0,0,1,2.294,1.229L367.7,631.4a5.67,5.67,0,0,0-4.708-2.1c-3.374,0-5.848,2.265-5.848,5.489S359.62,640.278,362.994,640.278Zm11.1,0c3.418,0,5.922-2.309,5.922-5.489s-2.5-5.489-5.922-5.489-5.923,2.31-5.923,5.489S370.68,640.278,374.1,640.278Zm0-2.864a2.64,2.64,0,1,1,2.354-2.625A2.388,2.388,0,0,1,374.1,637.414Zm19.626,2.624-0.03-10.5h-2.909l-3.329,5.594-3.418-5.594H381.13v10.5h3.223v-4.619l2.28,3.674h1.559l2.279-3.839,0.03,4.784h3.224Zm14.539,0-0.03-10.5h-2.909L402,635.134l-3.418-5.594h-2.909v10.5h3.224v-4.619l2.279,3.674h1.559l2.279-3.839,0.03,4.784h3.224Zm5.423-2.669v-1.38h4.438v-2.55h-4.438V632.21h5.053v-2.67h-8.532v10.5h8.727v-2.669h-5.248Zm13.446-7.829v4.769l-3.989-4.769h-2.909v10.5h3.449v-4.769l3.988,4.769h2.909v-10.5h-3.448Zm7.414,10.5h3.539v-7.753h3.073V629.54h-9.686v2.745h3.074v7.753Z"/>
  </g>
  <g id="COMMENT_-_スマートオブジェクトグループ-3" data-name="COMMENT - スマートオブジェクトグループ">
    <g style="fill: #f45f4a; filter: url(#filter-3)">
      <rect id="長方形_628-3" data-name="長方形 628" class="cls-4" x="101" y="618" width="146" height="33" rx="3" ry="3" style="stroke: inherit; filter: none; fill: inherit"/>
    </g>
    <use xlink:href="#長方形_628-3" style="stroke: #1e5b55; filter: none; fill: none"/>
    <path id="COMMENT-3" data-name="COMMENT" class="cls-1" d="M138.994,640.278a5.672,5.672,0,0,0,4.708-2.1l-2.234-2a2.836,2.836,0,0,1-2.294,1.23,2.63,2.63,0,0,1,0-5.249,2.835,2.835,0,0,1,2.294,1.229L143.7,631.4a5.67,5.67,0,0,0-4.708-2.1c-3.374,0-5.848,2.265-5.848,5.489S135.62,640.278,138.994,640.278Zm11.1,0c3.418,0,5.922-2.309,5.922-5.489s-2.5-5.489-5.922-5.489-5.923,2.31-5.923,5.489S146.68,640.278,150.1,640.278Zm0-2.864a2.64,2.64,0,1,1,2.354-2.625A2.388,2.388,0,0,1,150.1,637.414Zm19.626,2.624-0.03-10.5h-2.909l-3.329,5.594-3.418-5.594H157.13v10.5h3.223v-4.619l2.28,3.674h1.559l2.279-3.839,0.03,4.784h3.224Zm14.539,0-0.03-10.5h-2.909L178,635.134l-3.418-5.594h-2.909v10.5h3.224v-4.619l2.279,3.674h1.559l2.279-3.839,0.03,4.784h3.224Zm5.423-2.669v-1.38h4.438v-2.55h-4.438V632.21h5.053v-2.67h-8.532v10.5h8.727v-2.669h-5.248Zm13.446-7.829v4.769l-3.989-4.769h-2.909v10.5h3.449v-4.769l3.989,4.769h2.908v-10.5h-3.448Zm7.414,10.5h3.539v-7.753h3.073V629.54h-9.686v2.745h3.074v7.753Z"/>
  </g>
  <g id="COMMENT_-_スマートオブジェクトグループ-4" data-name="COMMENT - スマートオブジェクトグループ">
    <g style="fill: #f45f4a; filter: url(#filter-4)">
      <rect id="長方形_628-4" data-name="長方形 628" class="cls-5" x="551" y="618" width="146" height="33" rx="3" ry="3" style="stroke: inherit; filter: none; fill: inherit"/>
    </g>
    <use xlink:href="#長方形_628-4" style="stroke: #1e5b55; filter: none; fill: none"/>
    <path id="COMMENT-4" data-name="COMMENT" class="cls-1" d="M588.994,640.278a5.672,5.672,0,0,0,4.708-2.1l-2.234-2a2.836,2.836,0,0,1-2.294,1.23,2.63,2.63,0,0,1,0-5.249,2.835,2.835,0,0,1,2.294,1.229L593.7,631.4a5.67,5.67,0,0,0-4.708-2.1c-3.374,0-5.848,2.265-5.848,5.489S585.62,640.278,588.994,640.278Zm11.105,0c3.418,0,5.922-2.309,5.922-5.489s-2.5-5.489-5.922-5.489-5.923,2.31-5.923,5.489S596.68,640.278,600.1,640.278Zm0-2.864a2.64,2.64,0,1,1,2.354-2.625A2.388,2.388,0,0,1,600.1,637.414Zm19.626,2.624-0.03-10.5h-2.909l-3.329,5.594-3.418-5.594H607.13v10.5h3.223v-4.619l2.28,3.674h1.559l2.279-3.839,0.03,4.784h3.224Zm14.539,0-0.03-10.5h-2.909L628,635.134l-3.419-5.594h-2.909v10.5h3.224v-4.619l2.279,3.674h1.559l2.279-3.839,0.03,4.784h3.224Zm5.423-2.669v-1.38h4.438v-2.55h-4.438V632.21h5.053v-2.67h-8.532v10.5h8.727v-2.669h-5.248Zm13.446-7.829v4.769l-3.989-4.769h-2.909v10.5h3.449v-4.769l3.988,4.769h2.909v-10.5h-3.448Zm7.414,10.5h3.539v-7.753h3.073V629.54h-9.686v2.745h3.074v7.753Z"/>
  </g>
  <g id="COMMENT_-_スマートオブジェクトグループ-5" data-name="COMMENT - スマートオブジェクトグループ">
    <g style="fill: #f45f4a; filter: url(#filter-5)">
      <rect id="長方形_628-5" data-name="長方形 628" class="cls-6" x="447" y="157" width="146" height="33" rx="3" ry="3" style="stroke: inherit; filter: none; fill: inherit"/>
    </g>
    <use xlink:href="#長方形_628-5" style="stroke: #1e5b55; filter: none; fill: none"/>
    <path id="COMMENT-5" data-name="COMMENT" class="cls-1" d="M484.994,179.278a5.672,5.672,0,0,0,4.708-2.1l-2.234-2a2.836,2.836,0,0,1-2.294,1.23,2.631,2.631,0,0,1,0-5.25,2.836,2.836,0,0,1,2.294,1.23L489.7,170.4a5.67,5.67,0,0,0-4.708-2.1c-3.374,0-5.848,2.265-5.848,5.489S481.62,179.278,484.994,179.278Zm11.1,0c3.418,0,5.922-2.309,5.922-5.489s-2.5-5.489-5.922-5.489-5.923,2.31-5.923,5.489S492.68,179.278,496.1,179.278Zm0-2.864a2.641,2.641,0,1,1,2.354-2.625A2.388,2.388,0,0,1,496.1,176.414Zm19.626,2.624-0.03-10.5h-2.909l-3.329,5.594-3.418-5.594H503.13v10.5h3.223v-4.619l2.279,3.674h1.56l2.279-3.839,0.03,4.784h3.224Zm14.539,0-0.03-10.5h-2.909L524,174.134l-3.418-5.594h-2.909v10.5h3.224v-4.619l2.279,3.674h1.559l2.279-3.839,0.03,4.784h3.224Zm5.423-2.669v-1.38h4.438v-2.55h-4.438v-1.23h5.053V168.54h-8.532v10.5h8.727v-2.669h-5.248Zm13.446-7.829v4.769l-3.989-4.769h-2.909v10.5h3.449v-4.769l3.988,4.769h2.909v-10.5h-3.448Zm7.414,10.5h3.539v-7.754h3.073V168.54h-9.686v2.744h3.074v7.754Z"/>
  </g>
  <path id="P.I.C.S." class="cls-7" d="M352.008,50.2h4.656v-6.42h2.263c4.084,0,7.648-2.028,7.648-6.628,0-4.783-3.512-6.29-7.778-6.29h-6.789V50.2Zm4.656-10.085V34.525h1.9c2.237,0,3.486.676,3.486,2.625,0,1.9-1.093,2.963-3.356,2.963h-2.029Zm15.693,10.449a2.875,2.875,0,1,0-2.757-2.885A2.773,2.773,0,0,0,372.357,50.563Zm6.663-.364h4.657V30.86H379.02V50.2Zm11.346,0.364a2.875,2.875,0,1,0-2.758-2.885A2.772,2.772,0,0,0,390.366,50.563Zm14.857,0a8.057,8.057,0,0,0,6.321-2.859L409.1,44.792a5.032,5.032,0,0,1-3.694,1.768c-2.732,0-4.5-2.235-4.5-6.083,0-3.769,2.056-6,4.553-6a4.8,4.8,0,0,1,3.355,1.508l2.446-2.963a8.249,8.249,0,0,0-5.879-2.521c-4.917,0-9.235,3.691-9.235,10.137C396.144,47.184,400.306,50.563,405.223,50.563Zm11.155,0a2.875,2.875,0,1,0-2.758-2.885A2.772,2.772,0,0,0,416.378,50.563Zm12.672,0c4.682,0,7.387-2.833,7.387-6.056,0-2.729-1.431-4.341-3.824-5.3l-2.419-.962c-1.717-.676-2.939-1.092-2.939-2.157,0-1.04.884-1.612,2.315-1.612a6.3,6.3,0,0,1,3.98,1.482l2.315-2.911a9.011,9.011,0,0,0-6.3-2.547c-4.11,0-7.024,2.6-7.024,5.849a5.665,5.665,0,0,0,3.928,5.3l2.471,1.04c1.665,0.7,2.732,1.066,2.732,2.183,0,1.04-.807,1.69-2.523,1.69a7.831,7.831,0,0,1-4.709-1.976l-2.627,3.2A10.836,10.836,0,0,0,429.05,50.563Zm13.34,0a2.875,2.875,0,1,0-2.758-2.885A2.772,2.772,0,0,0,442.39,50.563Z"/>
  <path id="脚本" class="cls-1" d="M239.057,70.68c0.036-.7.036-1.368,0.036-1.962V68.34H240.1v2.34h-1.045Zm1.045-6.5v2.286h-1.009V64.182H240.1Zm1.837-1.89h-4.575v6.444c0,2.628-.054,6.3-0.9,8.856a7.3,7.3,0,0,1,1.513.936,24.438,24.438,0,0,0,1.009-5.976H240.1v3.726c0,0.2-.054.27-0.234,0.27-0.18.018-.685,0.018-1.171,0a6.856,6.856,0,0,1,.54,1.926,3.546,3.546,0,0,0,2.072-.4,1.877,1.877,0,0,0,.63-1.764V62.292Zm10.917,0.162h-5.008V74.892a22.254,22.254,0,0,0-1.153-3.4l-1.531.684c0.234,0.594.468,1.26,0.666,1.944l-1.423.2c0.306-1.224.631-2.736,0.9-4.14H247.6V68.3h-1.748V65.982h1.531V64.11h-1.531V61.7h-1.927V64.11h-1.477v1.872h1.477V68.3h-1.729v1.872h1.134a42.617,42.617,0,0,1-.7,4.374l-0.613.072,0.307,1.962c1.189-.2,2.576-0.414,3.981-0.63,0.072,0.414.144,0.81,0.18,1.152l1.369-.612v2.034h1.891V64.362h1.189v9.324c0,0.18-.054.234-0.2,0.234s-0.522,0-.937-0.018a6.384,6.384,0,0,1,.7,2.016,2.721,2.721,0,0,0,1.765-.414,2.041,2.041,0,0,0,.595-1.764V62.454ZM264.091,73.29V69.33a20.029,20.029,0,0,0,2.864,3.96h-2.864Zm-5.08,0a20.983,20.983,0,0,0,2.828-3.924V73.29h-2.828Zm11.907-5.94V65.19h-6.827V61.716h-2.252V65.19h-6.773v2.16h5.494a15.994,15.994,0,0,1-6.2,6.75,10.594,10.594,0,0,1,1.568,1.782,16.105,16.105,0,0,0,2.81-2.3v1.89h3.1V78.51h2.252V75.468h2.99V73.416a14.737,14.737,0,0,0,2.936,2.412,9.109,9.109,0,0,1,1.658-1.944,15.729,15.729,0,0,1-6.287-6.534h5.53Z"/>
  <path id="此元和津也_P.I.C.S._management_" data-name="此元和津也 （P.I.C.S. management）" class="cls-7" d="M191.4,108.462V99.405h3V95.236h-3v-8.7h-4.5v22.673l-1.53.27V92.867h-4.232v17.244c-0.75.12-1.441,0.21-2.1,0.3l0.69,4.589c4.082-.78,9.635-1.74,14.707-2.729l-0.331-4.289Zm9.244,1.889c-0.78,0-.87-0.21-0.87-1.919v-7.767a56.326,56.326,0,0,0,7.473-4.049l-3.451-3.629a40.056,40.056,0,0,1-4.022,3.119V86.539h-4.532v21.833c0,4.8,1.02,6.238,4.622,6.238h3.181c3.212,0,4.322-2.069,4.742-7.108a13.282,13.282,0,0,1-4.081-1.889c-0.151,3.719-.3,4.738-1.111,4.738h-1.951Zm33.315-21.832H212.467v4.2h21.489v-4.2Zm-3.781,21.922c-0.871,0-.991-0.15-0.991-1.349v-8.338h7.654V96.526H209.676v4.228h6.363c-0.33,4.589-1.021,8.338-7.2,10.617a11.723,11.723,0,0,1,2.671,3.569c7.413-3,8.7-8.038,9.244-14.186h3.9v8.368c0,4.018.96,5.4,4.772,5.4h3.241c3.3,0,4.382-1.65,4.8-7.2a12.814,12.814,0,0,1-4.022-1.8c-0.15,4.2-.3,4.918-1.2,4.918h-2.071ZM248.9,99.525h3.9V95.506h-3.9V91.4c1.471-.36,2.911-0.75,4.2-1.2l-2.792-3.419a51.772,51.772,0,0,1-10.894,2.639,14.765,14.765,0,0,1,1.2,3.389c1.261-.15,2.582-0.33,3.9-0.54v3.239h-5.1v4.019h4.052a24.826,24.826,0,0,1-4.652,8.247,21.544,21.544,0,0,1,2.161,4.109,22.488,22.488,0,0,0,3.541-6V115H248.9v-9.837c0.72,1.14,1.44,2.279,1.891,3.179l2.461-3.629c-0.6-.75-3.122-3.6-4.352-4.828v-0.36Zm8.824,7.467V93.527h3.781v13.465h-3.781Zm-4.262-17.634V113.5h4.262v-2.339h3.781v2.129h4.5V89.358H253.466Zm25.182,1.29a60.16,60.16,0,0,0-5.493-3.6l-2.581,3.089a58.766,58.766,0,0,1,5.342,3.989Zm-1.831,7.377c-1.321-.96-3.992-2.519-5.612-3.509l-2.432,3.119c1.711,1.17,4.292,2.85,5.493,3.869Zm-2.251,4.319a85.38,85.38,0,0,1-5.042,9.357l3.811,2.759c1.621-3,3.212-6.208,4.592-9.357Zm14.616-4.978h2.581v1.29h-2.581v-1.29Zm0-4.888h2.581v1.23h-2.581v-1.23Zm6.663,9.417V97.366h1.56V93.707h-1.56V89.238h-6.663V86.509H284.71v2.729h-5.672v3.239h5.672v1.23h-7.173v3.659h7.173v1.29h-5.792v3.239h5.792V103h-5.822v3.389h5.822v1.229h-7.293v3.6h7.293V115h4.472v-3.779h7.833v-3.6h-7.833v-1.229h6.873V103h-6.873v-1.11h6.663Zm15.488,8.637c-2.912,0-3.272-.27-3.272-2.519V99.555l3.782-1.2v9.717h4.322V96.946l4.561-1.47a33.738,33.738,0,0,1-.39,5.968c-0.3.99-.69,1.23-1.26,1.23a21.718,21.718,0,0,1-2.311-.09,14.462,14.462,0,0,1,1.02,3.989,12.993,12.993,0,0,0,3.9-.42,3.9,3.9,0,0,0,2.521-2.879c0.57-1.71.72-5.189,0.81-10.857l0.18-.75-3.091-1.32-0.84.57-0.541.33-4.561,1.44V86.6h-4.322v7.468l-3.782,1.2v-6.6H303.8v7.947l-4.982,1.56,1.171,3.989,3.811-1.23v7.048c0,5.128,1.651,6.448,7.444,6.448h8.823c5.1,0,6.543-1.65,7.2-6.688a13.973,13.973,0,0,1-4.051-1.619c-0.451,3.748-.931,4.408-3.572,4.408h-8.313Zm-156.717,33.5,2.071-.882a11.257,11.257,0,0,1,0-15.624l-2.071-.882A12.469,12.469,0,0,0,154.616,144.026Zm3.407-1.854h3.225v-4.446h1.567c2.828,0,5.3-1.4,5.3-4.59,0-3.312-2.432-4.356-5.386-4.356h-4.7v13.392Zm3.225-6.984v-3.87h1.315c1.549,0,2.413.468,2.413,1.818,0,1.314-.756,2.052-2.323,2.052h-1.405Zm10.4,7.236a1.991,1.991,0,1,0-1.91-2A1.919,1.919,0,0,0,171.65,142.424Zm4.381-.252h3.225V128.78h-3.225v13.392Zm7.624,0.252a1.991,1.991,0,1,0-1.909-2A1.92,1.92,0,0,0,183.655,142.424Zm10.056,0a5.58,5.58,0,0,0,4.378-1.98l-1.694-2.016a3.483,3.483,0,0,1-2.558,1.224c-1.891,0-3.116-1.548-3.116-4.212,0-2.61,1.423-4.158,3.152-4.158a3.324,3.324,0,0,1,2.324,1.044l1.693-2.052a5.708,5.708,0,0,0-4.071-1.746c-3.4,0-6.395,2.556-6.395,7.02C187.424,140.084,190.307,142.424,193.711,142.424Zm7.953,0a1.991,1.991,0,1,0-1.91-2A1.919,1.919,0,0,0,201.664,142.424Zm8.542,0c3.243,0,5.116-1.962,5.116-4.194a3.7,3.7,0,0,0-2.648-3.672L211,133.892c-1.189-.468-2.036-0.756-2.036-1.494,0-.72.613-1.116,1.6-1.116a4.363,4.363,0,0,1,2.756,1.026l1.6-2.016a6.239,6.239,0,0,0-4.359-1.764c-2.847,0-4.864,1.8-4.864,4.05a3.923,3.923,0,0,0,2.72,3.672l1.711,0.72c1.153,0.486,1.892.738,1.892,1.512,0,0.72-.559,1.17-1.748,1.17a5.423,5.423,0,0,1-3.26-1.368L205.2,140.5A7.5,7.5,0,0,0,210.206,142.424Zm9.466,0a1.991,1.991,0,1,0-1.909-2A1.919,1.919,0,0,0,219.672,142.424Zm8.131-.252h3.189v-6.84a2.474,2.474,0,0,1,1.639-.918c0.81,0,1.171.414,1.171,1.818v5.94h3.224v-6.84a2.478,2.478,0,0,1,1.639-.918c0.811,0,1.171.414,1.171,1.818v5.94h3.207v-6.336c0-2.556-.973-4.158-3.207-4.158a4.475,4.475,0,0,0-3.206,1.692,2.812,2.812,0,0,0-2.81-1.692,4.231,4.231,0,0,0-3.117,1.548h-0.072l-0.216-1.3H227.8v10.242Zm20.6,0.252a4.383,4.383,0,0,0,2.937-1.278h0.072l0.234,1.026h2.612v-5.814c0-3.2-1.5-4.68-4.143-4.68a8.528,8.528,0,0,0-4.414,1.35l1.117,2.106a5.631,5.631,0,0,1,2.684-.9,1.323,1.323,0,0,1,1.549,1.314c-4,.432-5.692,1.6-5.692,3.762A2.958,2.958,0,0,0,248.405,142.424Zm1.1-2.484a0.914,0.914,0,0,1-1.1-.882c0-.72.649-1.3,2.648-1.566v1.638A2.018,2.018,0,0,1,249.5,139.94Zm7.312,2.232h3.189v-6.84a2.45,2.45,0,0,1,1.783-.918c0.811,0,1.189.414,1.189,1.818v5.94h3.207v-6.336c0-2.556-.955-4.158-3.189-4.158a4.635,4.635,0,0,0-3.278,1.53h-0.072l-0.217-1.278h-2.612v10.242Zm14.6,0.252a4.379,4.379,0,0,0,2.936-1.278h0.072l0.234,1.026h2.612v-5.814c0-3.2-1.5-4.68-4.143-4.68a8.528,8.528,0,0,0-4.413,1.35l1.117,2.106a5.627,5.627,0,0,1,2.684-.9,1.323,1.323,0,0,1,1.549,1.314c-4,.432-5.692,1.6-5.692,3.762A2.958,2.958,0,0,0,271.416,142.424Zm1.1-2.484a0.914,0.914,0,0,1-1.1-.882c0-.72.648-1.3,2.648-1.566v1.638A2.019,2.019,0,0,1,272.515,139.94Zm10.987,6.534c3.567,0,5.8-1.53,5.8-3.69,0-1.854-1.423-2.628-3.945-2.628h-1.621c-1.1,0-1.513-.216-1.513-0.684a0.833,0.833,0,0,1,.324-0.72,4.561,4.561,0,0,0,1.207.18c2.27,0,4.089-1.044,4.089-3.438a2.691,2.691,0,0,0-.288-1.242h1.585V131.93h-3.765a5.018,5.018,0,0,0-1.621-.252c-2.216,0-4.287,1.224-4.287,3.726a3.278,3.278,0,0,0,1.387,2.646v0.072a2.468,2.468,0,0,0-1.135,1.908,1.988,1.988,0,0,0,.937,1.764v0.09A2.27,2.27,0,0,0,279.2,143.9C279.2,145.736,281.142,146.474,283.5,146.474Zm0.252-9.468a1.627,1.627,0,0,1,0-3.186A1.627,1.627,0,0,1,283.754,137.006Zm0.252,7.47c-1.315,0-2.179-.36-2.179-1.08a1.207,1.207,0,0,1,.486-0.918,5.486,5.486,0,0,0,1.459.126h0.973c0.955,0,1.5.126,1.5,0.738C286.24,143.99,285.321,144.476,284.006,144.476Zm11.456-2.052a6.625,6.625,0,0,0,3.674-1.17l-1.062-1.926a4.174,4.174,0,0,1-2.162.648,2.342,2.342,0,0,1-2.558-1.98h6.017a5.822,5.822,0,0,0,.144-1.368c0-2.808-1.441-4.95-4.4-4.95A5.387,5.387,0,0,0,295.462,142.424Zm-2.162-6.516a1.894,1.894,0,0,1,1.873-1.782,1.535,1.535,0,0,1,1.622,1.782h-3.5Zm8.537,6.264h3.189v-6.84a2.476,2.476,0,0,1,1.639-.918c0.81,0,1.171.414,1.171,1.818v5.94h3.224v-6.84a2.478,2.478,0,0,1,1.639-.918c0.811,0,1.171.414,1.171,1.818v5.94h3.207v-6.336c0-2.556-.973-4.158-3.207-4.158a4.475,4.475,0,0,0-3.206,1.692,2.812,2.812,0,0,0-2.81-1.692,4.231,4.231,0,0,0-3.117,1.548h-0.072l-0.216-1.3h-2.612v10.242Zm22.638,0.252a6.631,6.631,0,0,0,3.675-1.17l-1.063-1.926a4.174,4.174,0,0,1-2.162.648,2.343,2.343,0,0,1-2.558-1.98h6.017a5.822,5.822,0,0,0,.144-1.368c0-2.808-1.441-4.95-4.4-4.95A5.387,5.387,0,0,0,324.475,142.424Zm-2.162-6.516a1.9,1.9,0,0,1,1.874-1.782,1.534,1.534,0,0,1,1.621,1.782h-3.5Zm8.538,6.264h3.188v-6.84a2.45,2.45,0,0,1,1.783-.918c0.811,0,1.189.414,1.189,1.818v5.94h3.207v-6.336c0-2.556-.955-4.158-3.189-4.158a4.635,4.635,0,0,0-3.278,1.53h-0.072l-0.216-1.278h-2.612v10.242Zm16.04,0.252a7.548,7.548,0,0,0,2.324-.378l-0.5-2.3a3.6,3.6,0,0,1-.936.18c-0.757,0-1.3-.45-1.3-1.584v-3.906h2.414v-2.5h-2.414v-2.7h-2.666l-0.36,2.7-1.568.126v2.376h1.387v3.942C343.27,140.8,344.315,142.424,346.891,142.424Zm4.744-15.786-2.072.882a11.254,11.254,0,0,1,0,15.624l2.072,0.882A12.471,12.471,0,0,0,351.635,126.638Z"/>
  <path id="監督" class="cls-1" d="M506.252,68.556h1.513v0.99h-1.513v-0.99Zm1.513-4.626v0.9h-1.513v-0.9h1.513Zm2.378,3.24h-3.891V66.2h3.891V67.17Zm2.306,2.376h-2.972v-0.99h2.431V67.062a11.182,11.182,0,0,1,1.477,1.1,11.216,11.216,0,0,0,1.261-2.07h5.477v-1.8h-4.738a17.346,17.346,0,0,0,.631-2.2l-1.856-.378a12.042,12.042,0,0,1-2.252,5.22V64.83h-2.431v-0.9h2.846V62.31h-8.016v8.838h8.142v-1.6Zm7.223,1.044V68.808h-6.16V70.59h6.16Zm-11.907,3.15h1.549v2.43h-1.549V73.74Zm5.062,0v2.43H511.26V73.74h1.567Zm3.513,0v2.43h-1.567V73.74h1.567Zm2.089,2.43V72.084H505.8V76.17h-1.91v1.836h16.393V76.17h-1.856Zm8.8-9.846h3.17V64.776h-3.369v-0.81h2.829V62.508h-2.829V61.7h-1.909v3.078h-3.134v1.548h3.386v2.16c0,0.162-.036.216-0.216,0.216s-0.684,0-1.207-.018a11.328,11.328,0,0,0,.919-1.8l-1.639-.432a7.873,7.873,0,0,1-1.676,2.664,11.176,11.176,0,0,1,1.423.9,10.29,10.29,0,0,0,.973-1.314,6.965,6.965,0,0,1,.5,1.566,5.024,5.024,0,0,0,2.107-.252,1.354,1.354,0,0,0,.667-1.476V66.324Zm6.214,5.544v0.684H526.53V71.868h6.917ZM526.53,74.5v-0.72h6.917V74.5H526.53Zm0,1.962V75.72h6.917v0.738H526.53Zm-2.071,2.07h2.071v-0.54h6.917V78.51h2.18V70.338H524.459v8.19Zm10.682-14.436a8.264,8.264,0,0,1-1.243,1.836,7.611,7.611,0,0,1-1.189-1.836h2.432Zm1.225-1.728-0.343.072h-5.638v1.656h1.837l-1.3.378a12.106,12.106,0,0,0,1.586,2.7,9.339,9.339,0,0,1-2.252,1.206,11.407,11.407,0,0,0-1.315-1.872l-1.5.63a9.3,9.3,0,0,1,1.351,2.2l1.135-.522a7.1,7.1,0,0,1,.882,1.332,12.235,12.235,0,0,0,3.009-1.566,10.637,10.637,0,0,0,3.494,2.016,7.072,7.072,0,0,1,1.315-1.764,10.245,10.245,0,0,1-3.314-1.566,10.312,10.312,0,0,0,2.36-4.392Z"/>
  <path id="木下_麦_P.I.C.S._" data-name="木下 麦 （P.I.C.S.）" class="cls-7" d="M501.159,97.636V93.317H490.175V86.539h-4.682v6.778H474.538v4.319h9.124a27.209,27.209,0,0,1-10.595,11.037,24.179,24.179,0,0,1,3.272,3.749,30.436,30.436,0,0,0,9.154-9.657V115.03h4.682V102.554a31.679,31.679,0,0,0,9.153,9.717,18.148,18.148,0,0,1,3.272-3.809,28.716,28.716,0,0,1-10.775-10.827h9.334Zm30.224-4.5V88.729H504.342v4.409h10.5v21.8h4.712V101.474a48.338,48.338,0,0,1,7.5,5.219l3.272-4.019c-2.251-1.89-6.933-4.439-10.024-6l-0.751.87V93.137h11.825Zm26.723,12.506a14.691,14.691,0,0,1-3.121,2.129,13.747,13.747,0,0,1-3.092-2.129h6.213Zm3.932-3.659-0.751.18h-7.923c0.39-.45.78-0.9,1.14-1.35H568.67V97.276H556.875v-1.02h8.434v-3.3h-8.434V92H567.08V88.459H556.875V86.539h-4.321v1.919H542.469V92h10.085v0.96H544.36v3.3h8.194v1.02H541.089v3.538h7.893A19.762,19.762,0,0,1,541,105.493a12.731,12.731,0,0,1,3.031,3.179,33.347,33.347,0,0,0,3.722-1.919,19.676,19.676,0,0,0,2.881,2.819,46.11,46.11,0,0,1-9.334,1.739,14.5,14.5,0,0,1,1.861,3.809,46.348,46.348,0,0,0,11.765-2.939,36.6,36.6,0,0,0,11.824,2.849,18.028,18.028,0,0,1,2.552-3.989,46.21,46.21,0,0,1-9.664-1.469,17.253,17.253,0,0,0,5.342-5.938Zm-75.77,42.042,2.072-.882a11.254,11.254,0,0,1,0-15.624l-2.072-.882A12.471,12.471,0,0,0,486.268,144.026Zm3.408-1.854H492.9v-4.446h1.567c2.828,0,5.3-1.4,5.3-4.59,0-3.312-2.432-4.356-5.386-4.356h-4.7v13.392Zm3.224-6.984v-3.87h1.315c1.549,0,2.414.468,2.414,1.818,0,1.314-.757,2.052-2.324,2.052H492.9Zm10.4,7.236a1.991,1.991,0,1,0-1.909-2A1.92,1.92,0,0,0,503.3,142.424Zm4.382-.252h3.224V128.78h-3.224v13.392Zm7.624,0.252a1.991,1.991,0,1,0-1.909-2A1.919,1.919,0,0,0,515.308,142.424Zm10.056,0a5.579,5.579,0,0,0,4.377-1.98l-1.693-2.016a3.485,3.485,0,0,1-2.558,1.224c-1.892,0-3.116-1.548-3.116-4.212,0-2.61,1.423-4.158,3.152-4.158a3.326,3.326,0,0,1,2.324,1.044l1.693-2.052a5.712,5.712,0,0,0-4.071-1.746c-3.4,0-6.395,2.556-6.395,7.02C519.077,140.084,521.959,142.424,525.364,142.424Zm7.952,0a1.991,1.991,0,1,0-1.909-2A1.92,1.92,0,0,0,533.316,142.424Zm8.543,0c3.242,0,5.116-1.962,5.116-4.194a3.7,3.7,0,0,0-2.648-3.672l-1.675-.666c-1.189-.468-2.036-0.756-2.036-1.494,0-.72.612-1.116,1.6-1.116a4.359,4.359,0,0,1,2.756,1.026l1.6-2.016a6.242,6.242,0,0,0-4.36-1.764c-2.846,0-4.863,1.8-4.863,4.05a3.923,3.923,0,0,0,2.72,3.672l1.711,0.72c1.153,0.486,1.891.738,1.891,1.512,0,0.72-.558,1.17-1.747,1.17a5.418,5.418,0,0,1-3.26-1.368l-1.82,2.214A7.5,7.5,0,0,0,541.859,142.424Zm9.466,0a1.991,1.991,0,1,0-1.91-2A1.92,1.92,0,0,0,551.325,142.424Zm4.9-15.786-2.072.882a11.254,11.254,0,0,1,0,15.624l2.072,0.882A12.469,12.469,0,0,0,556.229,126.638Z"/>
  <path id="音響監督" class="cls-1" d="M158.25,419.171v1.223h-6.958v-1.223h6.958Zm-6.958,4.121v-1.278h6.958v1.278h-6.958Zm-2.145,2.358h2.145v-0.594h6.958v0.576H160.5v-8.225H149.147v8.243Zm8.183-13.445a13.47,13.47,0,0,1-.775,2.088l0.451,0.108h-4.578l0.54-.126a7.519,7.519,0,0,0-.811-2.07h5.173Zm1.5,2.2c0.306-.558.63-1.3,0.991-2.034l-0.775-.162h2.866v-1.89h-6.165v-1.458h-2.253v1.458H147.6v1.89h3.028l-0.739.144a9.208,9.208,0,0,1,.775,2.052H146.6v1.908h16.133V414.4h-3.911Zm17.785,7.9v0.522h-7.588V422.3h7.588Zm-7.588,1.926v-0.54h7.588v0.54h-7.588Zm-1.965,1.458h1.965v-0.414h7.588v0.4h2.055v-4.41H167.059v4.428Zm7.805-7.271a6.841,6.841,0,0,1-.577.936l0.126,0.036h-3.677l0.36-.091a3.25,3.25,0,0,0-.468-0.881h4.236Zm-1.262-7.974v0.522h-1.821v-0.522H173.6Zm-1.821,4.392v-1.17h1.929l-0.847.45c0.18,0.162.36,0.36,0.541,0.558Zm0-2.808H173.6v0.558h-1.821v-0.558Zm7.445,6.39v-1.3h-5.642v-0.792h-2v0.792h-4.578a7.021,7.021,0,0,0,3.118-3.6v1.458l-0.757.072,0.4,1.476c1.315-.2,2.956-0.432,4.6-0.666a4.908,4.908,0,0,1,.4.7l1.1-.594v0.864h1.7v-6.048h1.279c-0.2.612-.45,1.278-0.739,1.944a2.591,2.591,0,0,1,1.28,1.566,0.55,0.55,0,0,1-.27.522,1.29,1.29,0,0,1-.415.09c-0.252,0-.613,0-1.009-0.036a3.026,3.026,0,0,1,.468,1.422,7.568,7.568,0,0,0,1.28,0,2.951,2.951,0,0,0,.9-0.306,1.545,1.545,0,0,0,.685-1.458,2.921,2.921,0,0,0-1.243-2.07c0.432-.846.883-1.728,1.243-2.628l-1.243-.576-0.253.072h-3.659v6.246a9.007,9.007,0,0,0-1.6-1.908h1.009v-4.3h-5.137v3.654L168.7,412.8a3.847,3.847,0,0,1-.288.756l-0.92.072c0.775-.864,1.587-1.872,2.29-2.808l-1.478-.612a15.441,15.441,0,0,1-.956,1.476c-0.162-.126-0.342-0.27-0.541-0.414,0.433-.576.9-1.26,1.37-1.908l-1.514-.522a10.384,10.384,0,0,1-.937,1.728c-0.144-.09-0.289-0.18-0.433-0.252l-0.829,1.206a16.644,16.644,0,0,1,1.929,1.422c-0.235.288-.469,0.558-0.7,0.828-0.523.036-1.01,0.072-1.424,0.09l0.288,1.476c0.847-.108,1.821-0.234,2.83-0.36a7.6,7.6,0,0,1-3.028,1.674,6.947,6.947,0,0,1,.955,1.278,8.061,8.061,0,0,0,1.136-.5v0.99H169.2l-0.541.144a5.535,5.535,0,0,1,.487.828h-4.6v1.349h16.313v-1.349h-4.632c0.252-.288.522-0.612,0.829-0.972h2.163Zm5.636-2.7h1.515v0.99h-1.515v-0.99Zm1.515-4.626v0.9h-1.515v-0.9h1.515Zm2.379,3.24h-3.894v-0.972h3.894v0.972Zm2.307,2.376h-2.974v-0.99h2.433v-1.494a11.276,11.276,0,0,1,1.479,1.1,11.273,11.273,0,0,0,1.261-2.07h5.48v-1.8H194a17.016,17.016,0,0,0,.631-2.2l-1.856-.378a12.044,12.044,0,0,1-2.254,5.22v-2.106h-2.433v-0.9h2.848v-1.62h-8.021v8.838h8.147v-1.6Zm7.228,1.044v-1.782h-6.164v1.782h6.164Zm-11.914,3.15h1.55v2.429h-1.55V420.9Zm5.065,0v2.429h-1.568V420.9h1.568Zm3.515,0v2.429h-1.569V420.9h1.569Zm2.091,2.429v-4.085H184.412v4.085H182.5v1.836h16.4v-1.836h-1.856Zm8.809-9.845h3.172v-1.548h-3.371v-0.81h2.83v-1.458h-2.83v-0.81h-1.91v3.078h-3.137v1.548H204v2.16c0,0.162-.036.216-0.216,0.216s-0.685,0-1.208-.018a11.245,11.245,0,0,0,.919-1.8l-1.64-.432a7.857,7.857,0,0,1-1.676,2.664,11.331,11.331,0,0,1,1.424.9,10.386,10.386,0,0,0,.973-1.314,6.915,6.915,0,0,1,.5,1.566,5.034,5.034,0,0,0,2.109-.252,1.356,1.356,0,0,0,.667-1.476v-2.214Zm6.218,5.544v0.684h-6.921v-0.684h6.921Zm-6.921,2.627v-0.72h6.921v0.72h-6.921Zm0,1.962v-0.738h6.921v0.738h-6.921Zm-2.073,2.07h2.073v-0.54h6.921v0.522h2.182V417.5H203.081v8.189Zm10.689-14.435a8.234,8.234,0,0,1-1.244,1.836,7.645,7.645,0,0,1-1.19-1.836h2.434ZM215,409.523l-0.343.072h-5.642v1.656h1.839l-1.3.378a12.07,12.07,0,0,0,1.586,2.7,9.345,9.345,0,0,1-2.253,1.206,11.354,11.354,0,0,0-1.316-1.872l-1.5.63a9.278,9.278,0,0,1,1.352,2.2l1.135-.522a7.113,7.113,0,0,1,.884,1.332,12.242,12.242,0,0,0,3.01-1.566,10.651,10.651,0,0,0,3.5,2.016,7.027,7.027,0,0,1,1.316-1.764,10.261,10.261,0,0,1-3.317-1.566,10.291,10.291,0,0,0,2.361-4.392Z"/>
  <path id="吉田光平" class="cls-7" d="M141.935,453.73v3.539H129.922V453.73h12.013Zm-16.548,8.427h4.535v-0.9h12.013v0.9h4.805v-12.3H125.387v12.3Zm23.936-20.992v-4.079H138.211V433.7h-4.625v3.389H122.534v4.079h11.052V443.8h-9.04v4.138H147.4V443.8h-9.189v-2.639h11.112Zm18.591,14.394v-5.668h6.306v5.668h-6.306Zm-10.422-5.668h5.977v5.668h-5.977v-5.668Zm5.977-10.046v5.668h-5.977v-5.668h5.977Zm10.751,5.668h-6.306v-5.668h6.306v5.668Zm-21.082-9.866v26.18h4.354v-1.859H174.22v1.859h4.565v-26.18H153.138Zm50.455-.93a35.956,35.956,0,0,1-3.274,7.407l3.845,1.44a69.155,69.155,0,0,0,4.084-7.288Zm-12.163,7.347a32.1,32.1,0,0,0-3.183-7.2l-3.935,1.5a34.568,34.568,0,0,1,2.853,7.408Zm11.532,15.924c-0.871,0-.991-0.15-0.991-1.289v-8.157h7.688v-4.109H198.067V433.7h-4.445v10.736H182.33v4.109H189.3c-0.361,4.5-1.021,7.857-7.839,9.866a13.285,13.285,0,0,1,2.643,3.839c8.079-2.729,9.37-7.557,9.881-13.705h3.574v8.187c0,3.988.931,5.338,4.715,5.338h3.183c3.243,0,4.325-1.5,4.745-6.928a13.113,13.113,0,0,1-3.964-1.769c-0.15,3.989-.3,4.618-1.171,4.618h-2.1Zm36.881-9.836H228.281v-8.367h9.79v-4.318H213.865v4.318h9.851v8.367H212.243v4.408h11.473v9.6h4.565v-9.6h11.562v-4.408Zm-24.326-6.508a26.326,26.326,0,0,1,1.922,5.908l4.265-1.319a24.147,24.147,0,0,0-2.193-5.758Zm18.53,5.788a62.312,62.312,0,0,0,3.093-5.848l-4.685-1.169a32.437,32.437,0,0,1-2.252,5.908Z"/>
  <path id="音響制作" class="cls-1" d="M459.584,419.171v1.223h-6.957v-1.223h6.957Zm-6.957,4.121v-1.278h6.957v1.278h-6.957Zm-2.146,2.358h2.146v-0.594h6.957v0.576h2.253v-8.225H450.481v8.243Zm8.184-13.445a13.573,13.573,0,0,1-.775,2.088l0.451,0.108h-4.579l0.541-.126a7.551,7.551,0,0,0-.811-2.07h5.173Zm1.5,2.2c0.307-.558.631-1.3,0.991-2.034l-0.775-.162h2.866v-1.89h-6.164v-1.458h-2.253v1.458h-5.9v1.89h3.029l-0.739.144A9.257,9.257,0,0,1,452,414.4H447.94v1.908h16.133V414.4h-3.912Zm17.786,7.9v0.522h-7.589V422.3h7.589Zm-7.589,1.926v-0.54h7.589v0.54h-7.589Zm-1.965,1.458h1.965v-0.414h7.589v0.4H480v-4.41H468.393v4.428Zm7.805-7.271a6.837,6.837,0,0,1-.576.936l0.126,0.036h-3.677l0.36-.091a3.227,3.227,0,0,0-.469-0.881H476.2Zm-1.261-7.974v0.522h-1.821v-0.522h1.821Zm-1.821,4.392v-1.17h1.929l-0.847.45c0.18,0.162.36,0.36,0.54,0.558Zm0-2.808h1.821v0.558h-1.821v-0.558Zm7.444,6.39v-1.3h-5.641v-0.792h-2v0.792h-4.579a7.023,7.023,0,0,0,3.119-3.6v1.458l-0.757.072,0.4,1.476c1.316-.2,2.956-0.432,4.6-0.666a4.8,4.8,0,0,1,.4.7l1.1-.594v0.864h1.694v-6.048h1.28c-0.2.612-.451,1.278-0.739,1.944a2.6,2.6,0,0,1,1.28,1.566,0.549,0.549,0,0,1-.271.522,1.283,1.283,0,0,1-.414.09c-0.253,0-.613,0-1.01-0.036a3.017,3.017,0,0,1,.469,1.422,7.568,7.568,0,0,0,1.28,0,2.96,2.96,0,0,0,.9-0.306,1.545,1.545,0,0,0,.685-1.458,2.92,2.92,0,0,0-1.244-2.07c0.433-.846.883-1.728,1.244-2.628l-1.244-.576-0.252.072H477.19v6.246a9.043,9.043,0,0,0-1.605-1.908h1.01v-4.3h-5.137v3.654l-1.424-.216a3.85,3.85,0,0,1-.289.756l-0.919.072c0.775-.864,1.586-1.872,2.289-2.808l-1.478-.612a15.417,15.417,0,0,1-.955,1.476c-0.162-.126-0.343-0.27-0.541-0.414,0.433-.576.9-1.26,1.37-1.908L468,408.839a10.321,10.321,0,0,1-.938,1.728c-0.144-.09-0.288-0.18-0.432-0.252l-0.829,1.206a16.548,16.548,0,0,1,1.928,1.422c-0.234.288-.468,0.558-0.7,0.828-0.522.036-1.009,0.072-1.424,0.09l0.289,1.476c0.847-.108,1.82-0.234,2.83-0.36a7.6,7.6,0,0,1-3.028,1.674,6.947,6.947,0,0,1,.955,1.278,8.049,8.049,0,0,0,1.135-.5v0.99h2.758l-0.54.144a5.528,5.528,0,0,1,.486.828h-4.6v1.349H482.2v-1.349h-4.633c0.253-.288.523-0.612,0.829-0.972h2.163Zm4.826-3.888c0.2-.4.414-0.846,0.613-1.35h1.82v1.35h-2.433Zm4.47-1.35h3.227v-1.944h-3.227v-2.268h-2.037v2.268h-1.153a16.772,16.772,0,0,0,.414-1.638l-1.965-.414a14.032,14.032,0,0,1-1.658,4.662,16.561,16.561,0,0,1,1.622.684h-1.351v1.926h4.091v1.314h-3.388v6.461h1.91v-4.553h1.478v5.975h2.037v-5.975h1.586V422.3c0,0.18-.054.216-0.216,0.216a8.134,8.134,0,0,1-1.117-.018,6.733,6.733,0,0,1,.522,1.818,3.931,3.931,0,0,0,2.091-.324,1.632,1.632,0,0,0,.649-1.638v-4.589h-3.515v-1.314H493.8v-1.926h-3.948v-1.35Zm6.76-2.844h-2v10.133h2V410.333Zm1.225-1.17v13.949a0.333,0.333,0,0,1-.4.4c-0.307,0-1.244,0-2.163-.036a9.4,9.4,0,0,1,.631,2.16,7.4,7.4,0,0,0,3.1-.414c0.649-.36.883-0.936,0.883-2.088V409.163h-2.055Zm7.746-.234a18.722,18.722,0,0,1-4.11,6.732,14.559,14.559,0,0,1,1.19,2.286c0.36-.4.739-0.846,1.117-1.3v9h2.163V413.321a28.06,28.06,0,0,0,1.731-3.744Zm12.924,4.9v-2.034h-6.994a21.29,21.29,0,0,0,.884-2.232l-2.073-.522a17.865,17.865,0,0,1-3.822,6.786,14.593,14.593,0,0,1,1.641,1.494,19.992,19.992,0,0,0,2.361-3.492h0.685v11.843h2.2v-4h4.9v-1.979h-4.9v-2.034h4.669v-1.944h-4.669v-1.89h5.119Z"/>
  <path id="ポニーキャニオンエンタープライズ" class="cls-7" d="M292.056,448.447a26.458,26.458,0,0,1-4.842,6.68l3.41,2.313a45.154,45.154,0,0,0,5.024-7.3Zm14.915-8.76a1.276,1.276,0,1,1,1.276,1.274A1.277,1.277,0,0,1,306.971,439.687Zm0.364,6.915c0.755,0,1.9.026,2.786,0.1V442.6c-0.339.052-.781,0.078-1.276,0.13a3.075,3.075,0,1,0-.885.052h-6.247v-1.716a18.41,18.41,0,0,1,.286-2.521H297.34a16.642,16.642,0,0,1,.234,2.5v1.742h-6.247a23.265,23.265,0,0,1-2.681-.208v4.132c0.755-.077,1.9-0.1,2.681-0.1h6.247c0,1.377,0,9.019-.026,9.747a0.755,0.755,0,0,1-.911.883,16.672,16.672,0,0,1-2.837-.285l0.39,3.872a36.679,36.679,0,0,0,4.53.234c2,0,2.993-1.065,2.993-2.651V446.6h5.622Zm-3.774,3.587a54.4,54.4,0,0,1,4.165,7.017l3.7-2.027A64.361,64.361,0,0,0,307,448.317Zm10.087,8.525c1.041-.1,2.5-0.182,3.566-0.182h14.577c0.806,0,2.134.078,3.149,0.182v-4.809c-0.963.1-2.212,0.182-3.149,0.182H317.214c-1.067,0-2.473-.1-3.566-0.182v4.809Zm2.16-12.866c0.937-.052,2.317-0.1,3.358-0.1h10.542c0.937,0,2.291.078,3.072,0.1v-4.575a25.355,25.355,0,0,1-3.072.182H319.14a29.906,29.906,0,0,1-3.332-.182v4.575Zm23.557,5.978c1.067-.078,3.019-0.156,4.5-0.156H357.69c1.067,0,2.524.13,3.2,0.156v-4.965c-0.755.052-2.03,0.182-3.2,0.182H343.868c-1.276,0-3.462-.1-4.5-0.182v4.965Zm46.462-3.847c-0.755.208-1.848,0.468-2.863,0.676-1.093.208-3.046,0.546-5.206,0.91L377.081,446l4.712-.754c0.832-.1,2.03-0.286,2.707-0.338l-0.755-4.107c-0.729.208-1.9,0.468-2.759,0.624-0.833.156-2.6,0.468-4.608,0.78-0.182-1.014-.338-1.794-0.39-2.184-0.13-.649-0.208-1.611-0.286-2.131l-4.452.7c0.209,0.65.391,1.3,0.573,2.079l0.417,2.158c-2.135.338-4.009,0.6-4.842,0.7-0.807.1-1.64,0.156-2.551,0.208l0.833,4.289c0.885-.234,1.614-0.416,2.551-0.6,0.7-.13,2.577-0.442,4.737-0.779l0.677,3.56c-2.447.39-4.659,0.728-5.8,0.91-0.886.13-2.187,0.286-2.916,0.312l0.885,4.159c0.6-.156,1.588-0.338,2.759-0.546,1.068-.208,3.306-0.6,5.779-1.014,0.364,1.976.677,3.613,0.807,4.419,0.156,0.78.208,1.716,0.338,2.729l4.529-.779c-0.234-.91-0.494-1.872-0.676-2.652-0.183-.883-0.5-2.5-0.859-4.392,2.134-.338,4.06-0.65,5.206-0.832,0.989-.156,2.186-0.364,2.967-0.416Zm16.739,7.2a45.172,45.172,0,0,0,5.544-8.422l-2.551-1.793a7.106,7.106,0,0,1-1.483.468c-1.094.234-4.321,0.858-7.393,1.455l-0.625-2.261c-0.156-.676-0.338-1.429-0.442-2.131l-4.217.987a11.119,11.119,0,0,1,.807,2c0.182,0.546.39,1.3,0.6,2.131-1.015.182-1.8,0.312-2.135,0.364-0.911.156-1.666,0.234-2.525,0.312l0.963,3.743c0.833-.182,2.6-0.572,4.608-1.014,0.911,3.431,1.874,7.2,2.29,8.708a17.636,17.636,0,0,1,.521,2.5l4.269-1.04c-0.208-.545-0.625-1.9-0.755-2.339-0.443-1.456-1.458-5.173-2.421-8.655,2.343-.494,4.373-0.91,4.972-1.014a22.207,22.207,0,0,1-3.488,4.289Zm8.565,3.535c1.041-.1,2.5-0.182,3.566-0.182h14.577c0.807,0,2.134.078,3.149,0.182v-4.809c-0.963.1-2.212,0.182-3.149,0.182H414.7c-1.067,0-2.473-.1-3.566-0.182v4.809Zm2.16-12.866c0.937-.052,2.317-0.1,3.358-0.1h10.542c0.937,0,2.291.078,3.072,0.1v-4.575a25.342,25.342,0,0,1-3.072.182H416.623a29.906,29.906,0,0,1-3.332-.182v4.575Zm39.435-3.2-0.026-1.508a18.214,18.214,0,0,1,.156-2.911h-4.451c0.156,1.014.234,2.079,0.286,2.911l0.078,1.508h-8.121a28.235,28.235,0,0,1-3.15-.208V446.6c0.964-.052,2.265-0.1,3.254-0.1h6.221c-2.082,2.859-6.195,6.134-11.114,8.447l2.889,3.275a34.811,34.811,0,0,0,10.2-8.265c0.026,2.183.026,4.158,0.026,5.692,0,0.754-.261,1.092-0.859,1.092a24.347,24.347,0,0,1-3.358-.286l0.364,4.081c1.588,0.1,2.994.156,4.712,0.156,2.212,0,3.253-1.092,3.227-2.938-0.052-3.639-.156-7.538-0.234-11.254h2.889c0.729,0,1.8.026,2.734,0.052v-4.133a23.734,23.734,0,0,1-2.968.234h-2.759ZM465,439.168l-2.993,3.2a54.184,54.184,0,0,1,6.533,5.692l3.228-3.3A52.442,52.442,0,0,0,465,439.168Zm-3.852,17.259,2.681,4.159a27.817,27.817,0,0,0,9.319-3.431,28.132,28.132,0,0,0,10.125-9.852l-2.446-4.444a25.134,25.134,0,0,1-9.944,10.4A26.829,26.829,0,0,1,461.147,456.427Zm37.054-1.638v-9.851h5.1c0.754,0,1.718.052,2.551,0.13v-4.315a21.431,21.431,0,0,1-2.551.182H489.194a20.531,20.531,0,0,1-2.629-.182v4.315c0.677-.078,1.822-0.13,2.629-0.13h4.582v9.851h-6.222a16.1,16.1,0,0,1-2.707-.234V459.1a24.765,24.765,0,0,1,2.707-.13h17.154a22.5,22.5,0,0,1,2.577.13v-4.549a16.831,16.831,0,0,1-2.577.234H498.2Zm16.164-15.621-2.994,3.2a54.273,54.273,0,0,1,6.534,5.692l3.227-3.3A52.433,52.433,0,0,0,514.365,439.168Zm-3.853,17.259,2.681,4.159a27.817,27.817,0,0,0,9.319-3.431,28.143,28.143,0,0,0,10.126-9.852l-2.447-4.444a25.134,25.134,0,0,1-9.944,10.4A26.822,26.822,0,0,1,510.512,456.427Zm42.312-15.622a9.818,9.818,0,0,1-2.577.338h-4.321c0.391-.676.989-1.689,1.562-2.495l-4.555-1.4a13.534,13.534,0,0,1-1.38,3.093,24.626,24.626,0,0,1-8.251,8.4l3.41,2.625a32.492,32.492,0,0,0,6.845-6.654h6.69a16.606,16.606,0,0,1-2.343,4.757c-1.561-.91-3.149-1.768-4.425-2.444l-2.681,3.016c1.224,0.7,2.785,1.663,4.373,2.7a21.737,21.737,0,0,1-9.371,5.458l3.671,3.171a24.435,24.435,0,0,0,9.24-6.212c0.937,0.676,1.8,1.326,2.421,1.872L554,453.308c-0.65-.468-1.509-1.04-2.472-1.664a30.155,30.155,0,0,0,3.461-6.732A13.56,13.56,0,0,1,556,442.781Zm5.233,11.021c1.068-.078,3.02-0.156,4.5-0.156h13.821c1.068,0,2.525.13,3.2,0.156v-4.965c-0.755.052-2.03,0.182-3.2,0.182H562.561c-1.276,0-3.462-.1-4.5-0.182v4.965Zm45.292-10.4a1.378,1.378,0,1,1,1.379-1.378A1.388,1.388,0,0,1,603.349,441.429Zm-16.555-.91c-0.859,0-2.577-.13-3.384-0.234v4.445c0.677-.052,2.108-0.13,3.384-0.13h11.453a14.6,14.6,0,0,1-2.864,6.706c-2.056,2.547-5,4.835-10.229,6l3.436,3.769a21.339,21.339,0,0,0,10.594-7.3c2.238-3.015,3.306-6.966,3.93-9.409,0.078-.312.183-0.7,0.313-1.091a3.224,3.224,0,1,0-3.306-3.224,1.483,1.483,0,0,0,.026.338,13.587,13.587,0,0,1-1.874.13H586.794Zm38.9,4.757a6.066,6.066,0,0,1-2.186.312h-12.39c-0.885,0-2.109-.078-3.306-0.182v4.055c1.171-.1,2.655-0.13,3.306-0.13h11.843a10.208,10.208,0,0,1-2.42,3.769,17.854,17.854,0,0,1-8.955,4.444l3.15,3.561a18.607,18.607,0,0,0,13.171-12.84,9.97,9.97,0,0,1,.573-1.248Zm-15.435-2.157c0.781-.078,2.03-0.1,2.915-0.1h9.813c0.989,0,2.395.052,3.124,0.1v-4.055a29.261,29.261,0,0,1-3.072.156h-9.865a24.98,24.98,0,0,1-2.915-.156v4.055Zm35.127,3.431a44.385,44.385,0,0,0,6.846-5.563l-3.384-3.041a26.984,26.984,0,0,1-6.793,5.926,38.307,38.307,0,0,1-11.948,4.679l2.238,3.821a47.611,47.611,0,0,0,8.512-3.275v7.824a35.1,35.1,0,0,1-.208,3.769h5a19.323,19.323,0,0,1-.261-3.769V446.55Zm32.565-6.473a37.481,37.481,0,0,0-2.056-3.535l-2.447.988a32.592,32.592,0,0,1,2.056,3.587Zm-4.946,1.56,1.458-.624a35.3,35.3,0,0,0-2.03-3.561l-2.447.988c0.39,0.6.807,1.325,1.171,2.027a11.618,11.618,0,0,1-2.915.338h-8.694a30.933,30.933,0,0,1-3.332-.208v4.471c0.729-.052,2.161-0.208,3.332-0.208h8.1A19.03,19.03,0,0,1,664,450.734a29.012,29.012,0,0,1-10.646,7.3l3.28,3.4a34.854,34.854,0,0,0,9.552-7.1,51.678,51.678,0,0,1,6.222,7.122l3.618-3.145a69.427,69.427,0,0,0-7.08-7.252,40.229,40.229,0,0,0,3.93-6.862,14.537,14.537,0,0,1,1.067-1.9Z"/>
  <path id="音楽制作" class="cls-1" d="M508.67,694.83v1.224h-6.953V694.83h6.953Zm-6.953,4.122v-1.278h6.953v1.278h-6.953Zm-2.144,2.358h2.144v-0.594h6.953v0.576h2.252v-8.226H499.573v8.244Zm8.178-13.446a13.572,13.572,0,0,1-.774,2.088l0.45,0.108h-4.575l0.54-.126a7.519,7.519,0,0,0-.811-2.07h5.17Zm1.5,2.2c0.307-.558.631-1.3,0.991-2.034l-0.774-.162h2.864v-1.89h-6.161v-1.458h-2.252v1.458h-5.89v1.89h3.026l-0.738.144a9.2,9.2,0,0,1,.774,2.052h-4.053v1.908h16.122V690.06h-3.909Zm10.1-1.8a13.335,13.335,0,0,0-2.882-2.628l-1.478,1.224a12.779,12.779,0,0,1,2.793,2.79Zm-0.4,1.62c-1.585.846-3.188,1.71-4.269,2.2l1.063,1.764c1.135-.63,2.54-1.476,3.783-2.25Zm2.612,0.774h2.955v1.224h-2.955v-1.224Zm2.955-1.53h-2.955v-1.188h2.955v1.188Zm6.593,7.434V694.7h-6.954V693.5h2.45v-2.106a23.992,23.992,0,0,1,3.6,2.394l1.315-1.6a26.57,26.57,0,0,0-4.125-2.466l-0.793.9v-2.232l1.4,0.936a26.916,26.916,0,0,0,3.027-2.826l-1.838-1.1a20.242,20.242,0,0,1-2.594,2.7v-1.8h-2.738c0.18-.468.4-0.99,0.595-1.53l-2.378-.252a15.929,15.929,0,0,1-.378,1.782h-2.126v7.2H522V694.7h-6.9v1.854h5.133a16.232,16.232,0,0,1-5.6,2.808,10.846,10.846,0,0,1,1.441,1.8,17.1,17.1,0,0,0,5.927-3.69v3.816h2.161V697.53a17.433,17.433,0,0,0,5.981,3.492,11.376,11.376,0,0,1,1.423-1.8,16.821,16.821,0,0,1-5.638-2.664h5.188Zm3.345-6.372c0.2-.4.414-0.846,0.612-1.35h1.82v1.35h-2.432Zm4.467-1.35h3.225v-1.944h-3.225v-2.268h-2.035v2.268h-1.153a16.772,16.772,0,0,0,.414-1.638l-1.963-.414a14.054,14.054,0,0,1-1.658,4.662,16.664,16.664,0,0,1,1.622.684H532.8v1.926h4.089v1.314H533.5v6.462h1.91v-4.554h1.477v5.976h2.035v-5.976h1.585v2.628c0,0.18-.054.216-0.216,0.216a8.134,8.134,0,0,1-1.117-.018,6.7,6.7,0,0,1,.523,1.818,3.927,3.927,0,0,0,2.089-.324,1.632,1.632,0,0,0,.649-1.638v-4.59h-3.513v-1.314h3.945v-1.926h-3.945v-1.35Zm6.755-2.844h-2v10.134h2V685.992Zm1.225-1.17v13.95a0.333,0.333,0,0,1-.4.4c-0.306,0-1.243,0-2.162-.036a9.355,9.355,0,0,1,.631,2.16,7.387,7.387,0,0,0,3.1-.414c0.649-.36.883-0.936,0.883-2.088V684.822H546.9Zm7.741-.234a18.731,18.731,0,0,1-4.107,6.732,14.722,14.722,0,0,1,1.189,2.286c0.36-.4.738-0.846,1.116-1.3v9H555V688.98a27.921,27.921,0,0,0,1.729-3.744Zm12.916,4.9V687.45h-6.99a21.065,21.065,0,0,0,.883-2.232l-2.072-.522a17.847,17.847,0,0,1-3.819,6.786,14.581,14.581,0,0,1,1.64,1.494,20.046,20.046,0,0,0,2.36-3.492h0.684v11.844h2.2v-4h4.9v-1.98h-4.9v-2.034h4.665v-1.944h-4.665v-1.89h5.116Z"/>
  <path id="ポニーキャニオン" class="cls-7" d="M438.559,724.107a26.444,26.444,0,0,1-4.838,6.68l3.407,2.314a45.3,45.3,0,0,0,5.021-7.3Zm14.9-8.76a1.275,1.275,0,1,1,1.275,1.274A1.276,1.276,0,0,1,453.464,715.347Zm0.365,6.914c0.754,0,1.9.026,2.783,0.1v-4.107c-0.338.052-.78,0.078-1.275,0.13a3.073,3.073,0,1,0-.884.052H448.21v-1.715a18.427,18.427,0,0,1,.286-2.522H443.84a16.657,16.657,0,0,1,.234,2.5v1.741h-6.243a23.248,23.248,0,0,1-2.68-.208v4.133c0.755-.078,1.9-0.1,2.68-0.1h6.243c0,1.378,0,9.02-.026,9.748a0.756,0.756,0,0,1-.911.884,16.671,16.671,0,0,1-2.835-.286l0.39,3.873a36.624,36.624,0,0,0,4.526.234c2,0,2.992-1.066,2.992-2.652v-11.8h5.619Zm-3.772,3.588a54.465,54.465,0,0,1,4.162,7.018l3.694-2.028a64.5,64.5,0,0,0-4.423-6.862Zm10.08,8.525c1.04-.1,2.5-0.182,3.564-0.182h14.567c0.806,0,2.133.078,3.147,0.182v-4.808c-0.962.1-2.211,0.182-3.147,0.182H463.7c-1.067,0-2.472-.1-3.564-0.182v4.808Zm2.159-12.866c0.936-.052,2.315-0.1,3.356-0.1h10.535c0.936,0,2.289.078,3.069,0.1v-4.575a25.3,25.3,0,0,1-3.069.182H465.626a29.858,29.858,0,0,1-3.33-.182v4.575Zm23.541,5.978c1.066-.078,3.017-0.156,4.5-0.156H504.15c1.067,0,2.523.13,3.2,0.156v-4.965c-0.755.052-2.029,0.182-3.2,0.182H490.337c-1.275,0-3.46-.1-4.5-0.182v4.965Zm46.432-3.847c-0.754.208-1.847,0.468-2.861,0.676-1.093.208-3.044,0.546-5.2,0.91l-0.676-3.561,4.708-.754c0.833-.1,2.029-0.286,2.706-0.338l-0.755-4.107c-0.728.208-1.9,0.468-2.757,0.624-0.833.156-2.6,0.468-4.6,0.78-0.183-1.014-.339-1.794-0.391-2.184-0.13-.65-0.208-1.611-0.286-2.131l-4.448.7c0.208,0.65.39,1.3,0.572,2.08l0.417,2.157c-2.134.338-4.006,0.6-4.839,0.7-0.806.1-1.639,0.156-2.549,0.208l0.832,4.289c0.885-.234,1.613-0.416,2.55-0.6,0.7-.13,2.575-0.442,4.734-0.78l0.676,3.562c-2.445.389-4.656,0.727-5.8,0.909-0.884.13-2.185,0.286-2.913,0.312l0.884,4.159c0.6-.156,1.587-0.338,2.758-0.546,1.066-.208,3.3-0.6,5.775-1.013,0.364,1.975.676,3.613,0.806,4.418,0.156,0.78.208,1.716,0.338,2.73l4.526-.78c-0.234-.91-0.494-1.872-0.676-2.651-0.182-.884-0.494-2.5-0.858-4.393,2.133-.338,4.058-0.65,5.2-0.832,0.989-.156,2.185-0.364,2.966-0.416Zm16.728,7.2a45.2,45.2,0,0,0,5.541-8.422l-2.549-1.793a7.126,7.126,0,0,1-1.483.468c-1.093.234-4.318,0.858-7.388,1.455l-0.624-2.261c-0.156-.676-0.338-1.43-0.442-2.132l-4.214.988a11.115,11.115,0,0,1,.806,2c0.182,0.546.39,1.3,0.6,2.131-1.014.182-1.795,0.312-2.133,0.364-0.91.156-1.665,0.234-2.523,0.312l0.962,3.743c0.833-.182,2.6-0.572,4.605-1.014,0.91,3.431,1.873,7.2,2.289,8.708a17.8,17.8,0,0,1,.52,2.5l4.266-1.039c-0.208-.546-0.624-1.9-0.754-2.34-0.442-1.455-1.457-5.172-2.419-8.655,2.341-.494,4.37-0.91,4.968-1.014a22.155,22.155,0,0,1-3.486,4.289Zm8.559,3.535c1.041-.1,2.5-0.182,3.564-0.182h14.568c0.806,0,2.133.078,3.147,0.182v-4.808c-0.962.1-2.211,0.182-3.147,0.182H561.12c-1.066,0-2.471-.1-3.564-0.182v4.808Zm2.16-12.866c0.936-.052,2.315-0.1,3.355-0.1h10.535c0.937,0,2.29.078,3.07,0.1v-4.575a25.306,25.306,0,0,1-3.07.182H563.045a29.854,29.854,0,0,1-3.329-.182v4.575Zm39.409-3.2L599.1,716.8a18.208,18.208,0,0,1,.156-2.911h-4.449c0.157,1.013.235,2.079,0.287,2.911l0.078,1.507h-8.116a28.436,28.436,0,0,1-3.148-.207v4.158c0.963-.052,2.263-0.1,3.252-0.1h6.217c-2.081,2.86-6.191,6.135-11.108,8.448l2.888,3.275a34.779,34.779,0,0,0,10.2-8.265c0.026,2.183.026,4.159,0.026,5.692,0,0.754-.26,1.092-0.859,1.092a24.308,24.308,0,0,1-3.355-.286l0.364,4.081c1.587,0.1,2.991.156,4.708,0.156,2.211,0,3.252-1.092,3.226-2.937-0.052-3.639-.156-7.538-0.234-11.256h2.887c0.728,0,1.795.026,2.731,0.052v-4.132a23.7,23.7,0,0,1-2.965.233h-2.757Zm12.265-3.483-2.991,3.2a54.127,54.127,0,0,1,6.529,5.692l3.225-3.3A52.408,52.408,0,0,0,611.39,714.827Zm-3.85,17.26,2.68,4.159a27.787,27.787,0,0,0,9.312-3.431,28.128,28.128,0,0,0,10.119-9.852l-2.445-4.445a25.134,25.134,0,0,1-9.937,10.4A26.8,26.8,0,0,1,607.54,732.087Z"/>
  <path id="音楽制作協力" class="cls-1" d="M224.539,694.83v1.224h-6.953V694.83h6.953Zm-6.953,4.122v-1.278h6.953v1.278h-6.953Zm-2.144,2.358h2.144v-0.594h6.953v0.576h2.252v-8.226H215.442v8.244Zm8.179-13.446a13.678,13.678,0,0,1-.775,2.088l0.45,0.108h-4.575l0.54-.126a7.546,7.546,0,0,0-.81-2.07h5.17Zm1.5,2.2c0.306-.558.63-1.3,0.99-2.034l-0.774-.162H228.2v-1.89h-6.161v-1.458h-2.251v1.458h-5.891v1.89h3.027l-0.739.144a9.257,9.257,0,0,1,.775,2.052H212.9v1.908h16.123V690.06h-3.909Zm10.1-1.8a13.289,13.289,0,0,0-2.882-2.628l-1.477,1.224a12.773,12.773,0,0,1,2.792,2.79Zm-0.4,1.62c-1.585.846-3.189,1.71-4.269,2.2l1.062,1.764c1.135-.63,2.54-1.476,3.783-2.25Zm2.612,0.774h2.954v1.224h-2.954v-1.224Zm2.954-1.53h-2.954v-1.188h2.954v1.188Zm6.593,7.434V694.7h-6.953V693.5h2.45v-2.106a23.926,23.926,0,0,1,3.6,2.394l1.315-1.6a26.523,26.523,0,0,0-4.125-2.466l-0.792.9v-2.232l1.405,0.936a27,27,0,0,0,3.026-2.826l-1.838-1.1a20.3,20.3,0,0,1-2.593,2.7v-1.8h-2.739c0.181-.468.4-0.99,0.595-1.53l-2.378-.252a15.929,15.929,0,0,1-.378,1.782H235.45v7.2h2.414V694.7h-6.9v1.854H236.1a16.237,16.237,0,0,1-5.6,2.808,10.9,10.9,0,0,1,1.442,1.8,17.105,17.105,0,0,0,5.926-3.69v3.816h2.162V697.53a17.429,17.429,0,0,0,5.98,3.492,11.376,11.376,0,0,1,1.423-1.8,16.83,16.83,0,0,1-5.638-2.664h5.188Zm3.345-6.372c0.2-.4.414-0.846,0.613-1.35h1.819v1.35h-2.432Zm4.467-1.35h3.225v-1.944h-3.225v-2.268h-2.035v2.268H251.6a16.772,16.772,0,0,0,.414-1.638l-1.963-.414A14.054,14.054,0,0,1,248.4,689.5a16.652,16.652,0,0,1,1.621.684h-1.351v1.926h4.089v1.314h-3.387v6.462h1.91v-4.554h1.477v5.976h2.035v-5.976h1.586v2.628c0,0.18-.054.216-0.216,0.216a8.134,8.134,0,0,1-1.117-.018,6.733,6.733,0,0,1,.522,1.818,3.931,3.931,0,0,0,2.09-.324,1.634,1.634,0,0,0,.648-1.638v-4.59h-3.513v-1.314h3.946v-1.926h-3.946v-1.35Zm6.756-2.844h-2v10.134h2V685.992Zm1.225-1.17v13.95a0.334,0.334,0,0,1-.4.4c-0.306,0-1.243,0-2.161-.036a9.4,9.4,0,0,1,.63,2.16,7.387,7.387,0,0,0,3.1-.414c0.649-.36.883-0.936,0.883-2.088V684.822h-2.053Zm7.74-.234a18.731,18.731,0,0,1-4.107,6.732,14.636,14.636,0,0,1,1.189,2.286c0.36-.4.738-0.846,1.117-1.3v9h2.161V688.98a28.053,28.053,0,0,0,1.73-3.744Zm12.916,4.9V687.45h-6.989a21.274,21.274,0,0,0,.882-2.232l-2.071-.522a17.874,17.874,0,0,1-3.819,6.786,14.57,14.57,0,0,1,1.639,1.494,19.99,19.99,0,0,0,2.36-3.492h0.684v11.844h2.2v-4h4.9v-1.98h-4.9v-2.034h4.665v-1.944h-4.665v-1.89h5.116Zm15.2,4.356c0.036-.558.054-1.134,0.072-1.728h-1.855q-0.027.918-.054,1.728h-1.351v1.62h1.224a6.481,6.481,0,0,1-1.909,4.428,41.468,41.468,0,0,0,.288-5.346c0.018-.216.018-0.7,0.018-0.7h-2.4c0.018-.522.037-1.08,0.055-1.656h-1.225a6.787,6.787,0,0,0,4.359-4.194H298.5a3.938,3.938,0,0,1-.486,2,0.7,0.7,0,0,1-.559.162,16.526,16.526,0,0,1-1.675-.072,4.268,4.268,0,0,1,.54,1.782,13.97,13.97,0,0,0,2.036-.036,1.758,1.758,0,0,0,1.279-.558c0.468-.5.7-1.656,0.9-4.248l0.054-.72h-4.305a17.023,17.023,0,0,0,.2-1.764h-2.017a16.664,16.664,0,0,1-.18,1.764h-3.153v1.692H293.8a5.219,5.219,0,0,1-3.386,2.718v-1.692h-1.82v-4.482h-2.035v4.482h-1.982v1.944h1.982v10.35h2.035V690.96h1.82v-0.18a7.06,7.06,0,0,1,1.027,1.4h-0.523c0,0.576-.018,1.134-0.036,1.656h-1.459v1.62h1.333a6.878,6.878,0,0,1-1.873,4.59,5.731,5.731,0,0,1,1.152,1.332,9.18,9.18,0,0,0,2.486-5.922h0.811c-0.072,2.754-.162,3.78-0.342,4.05a0.413,0.413,0,0,1-.415.216c-0.216,0-.522-0.018-0.954-0.054a4.256,4.256,0,0,1,.432,1.656,8.305,8.305,0,0,0,1.441-.072,1.281,1.281,0,0,0,.991-0.612,1.554,1.554,0,0,0,.252-0.7,5.063,5.063,0,0,1,1.153,1.35,8.888,8.888,0,0,0,2.594-5.832h0.847c-0.073,2.718-.145,3.726-0.325,4a0.491,0.491,0,0,1-.432.216,8.231,8.231,0,0,1-1.027-.054,4.324,4.324,0,0,1,.451,1.71,8.889,8.889,0,0,0,1.513-.072,1.417,1.417,0,0,0,1.026-.63c0.4-.486.487-2.07,0.577-6.066,0.018-.216.018-0.72,0.018-0.72h-2.5Zm12.55-5.58v-3.708h-2.288v3.708h-5.512v2.2H308.8a10.975,10.975,0,0,1-5.98,9.216,8.542,8.542,0,0,1,1.675,1.746c5.062-2.862,6.323-7.236,6.611-10.962h5.044c-0.288,5.346-.649,7.7-1.189,8.262a1.064,1.064,0,0,1-.847.288c-0.468,0-1.531,0-2.666-.09a4.962,4.962,0,0,1,.739,2.214,18.33,18.33,0,0,0,2.882-.036,2.426,2.426,0,0,0,1.837-1.008c0.793-.936,1.153-3.636,1.514-10.8,0.036-.288.054-1.026,0.054-1.026h-7.3Z"/>
  <path id="シェイプ_1" data-name="シェイプ 1" class="cls-7" d="M223.377,714.87a12.382,12.382,0,0,1-3.519,1.644,2.116,2.116,0,0,0-1.8,1.825,1.369,1.369,0,0,0,1.837,1.282,17.636,17.636,0,0,0,4.724-2.315c2.588-1.737,3.9-3.648,3.9-5.673a3.187,3.187,0,0,0-1.446-2.859,5.7,5.7,0,0,0-3.168-.775,17.241,17.241,0,0,0-6.255,1.2,17.946,17.946,0,0,0-5.507,3.334,9.437,9.437,0,0,0-3.577,7.218,5.439,5.439,0,0,0,.388,2.237A7.222,7.222,0,0,0,211,724.354a21.313,21.313,0,0,0,5.065,2.887,23.45,23.45,0,0,1,3.327,1.547,3.312,3.312,0,0,1,1.831,2.789,3.625,3.625,0,0,1-1.058,2.446,7.238,7.238,0,0,1-3.593,1.9,28.561,28.561,0,0,1-7.5.911c-2.581,0-5.542-.233-5.542-2.061,0-.938.818-1.7,2.258-2.247a16.948,16.948,0,0,1,6.923-1.007c3.148,0.248,2.648-.593.457-1.037a20.99,20.99,0,0,0-6.661-.587,8.861,8.861,0,0,0-3.841,1.059A4.514,4.514,0,0,0,200,735.038c0,1.228,0,4.957,9.542,4.957a30.23,30.23,0,0,0,6.032-.587c3.123-.611,5.43-1.661,6.864-3.129a7.481,7.481,0,0,0,2.393-5.4c0-2.3-1.58-4.083-4.826-5.443a56.521,56.521,0,0,1-5.612-2.613c-1.734-1.034-2.615-2.236-2.615-3.577,0-2.337,1.68-4.544,4.992-6.551a13.016,13.016,0,0,1,6.766-2.045c1.761,0,1.951,1,1.951,1.436C225.487,712.976,224.8,713.888,223.377,714.87Zm91.685,4.7a2.4,2.4,0,0,0,1.676-.811,2.507,2.507,0,0,0,.66-1.722,1.362,1.362,0,0,0-.5-1.217,1.654,1.654,0,0,0-1.143-.276,2.649,2.649,0,0,0-1.791.786,2.324,2.324,0,0,0-.668,1.681A1.443,1.443,0,0,0,315.062,719.565Zm-1.624,14.33a18.968,18.968,0,0,0-1.7,1.188,1.8,1.8,0,0,1-.988.456,0.8,0.8,0,0,1-.911-0.842,2.9,2.9,0,0,1,.3-1.072l4.459-10.206-3.386.367-0.805,2.033c-1.405,1.879-8.282,7.678-8.573,7.908-1.024.787-2.046,0.422-2.046-.461a3.208,3.208,0,0,1,.372-1.134l3.729-7.948a3.506,3.506,0,0,0,.431-1.367c0-.37,0-0.99-1.468-0.886a3.129,3.129,0,0,0-1.622.546c-0.346.243-.852,0.645-1.5,1.2l-6.582,5.767-1.034-.666,1.584-3.817a4.1,4.1,0,0,0,.4-1.487,0.623,0.623,0,0,0-.359-0.579,2.13,2.13,0,0,0-1.133-.138,3.936,3.936,0,0,0-1.322.317,13.732,13.732,0,0,0-1.939,1.6l-6.091,5.5-1.046-.655,2.354-5.687-2.679.311-1.195,2.435c-1.169,1.492-7.925,7.184-8.218,7.415-1.026.786-2.047,0.421-2.045-.465a3.227,3.227,0,0,1,.372-1.134l3.728-7.949a3.487,3.487,0,0,0,.434-1.365c0-.371,0-1-1.47-0.885a3.168,3.168,0,0,0-1.623.545c-0.347.244-.853,0.646-1.5,1.2l-6.582,5.767-1.032-.664,1.583-3.819a4.09,4.09,0,0,0,.395-1.49,0.607,0.607,0,0,0-.358-0.573,2.065,2.065,0,0,0-1.135-.14,3.889,3.889,0,0,0-1.317.318,13.3,13.3,0,0,0-1.94,1.594l-6.1,5.5-1.042-.659,2.352-5.682-2.679.3-1.194,2.44a77.622,77.622,0,0,1-7.221,6.688,5.612,5.612,0,0,1-2.245,1.164,0.829,0.829,0,0,1-.933-0.888,2.519,2.519,0,0,1,.281-0.98l4.463-9.981-2.7.293c-1.634,1.778-2.964,3.163-3.955,4.121-1.06,1.008-2.766,2.555-5.079,4.6-1.039.929-2.09,1.853-3.146,2.782l-1.031-.672,4.368-10.182-2.982.317-1.2,2.63a28.006,28.006,0,0,1-5.451,5.637v2.408l2.591-1.865-1.722,4.341a4.589,4.589,0,0,0-.375,1.525,0.7,0.7,0,0,0,.358.617,1.653,1.653,0,0,0,1.038.2,6.835,6.835,0,0,0,3.612-1.717l9.4-7.723-1.92,5.048a6.881,6.881,0,0,0-.549,2.435,1.126,1.126,0,0,0,.165.61,1.034,1.034,0,0,0,1.152.474,9.6,9.6,0,0,0,4.223-1.712c0.913-.57,5.924-4.206,5.924-4.206l-1.8,4.44a5.808,5.808,0,0,0-.547,1.938,0.691,0.691,0,0,0,.9.828,1.135,1.135,0,0,0,.545-0.209,24.388,24.388,0,0,0,1.894-1.811l9.385-9.437,1.066,0.645-3.021,6.878a7.225,7.225,0,0,0-.763,2.585c0,0.53.152,0.669,0.677,0.629a1.2,1.2,0,0,0,.543-0.171,18.518,18.518,0,0,0,1.851-1.7l9.607-9.6,1.064,0.642-2.776,6.36a5.756,5.756,0,0,0-.611,2.069,1.719,1.719,0,0,0,.408,1.142,1.188,1.188,0,0,0,1.083.435,7.965,7.965,0,0,0,2.466-.728,17.031,17.031,0,0,0,2.991-1.7c0.44-.309,4.4-3.489,4.4-3.489l-1.8,4.44a5.744,5.744,0,0,0-.543,1.94,0.689,0.689,0,0,0,.895.829,1.152,1.152,0,0,0,.547-0.211,23.19,23.19,0,0,0,1.9-1.808l9.384-9.438,1.066,0.643-3.024,6.88a7.212,7.212,0,0,0-.763,2.586c0,0.526.155,0.664,0.676,0.63a1.186,1.186,0,0,0,.544-0.176,17.66,17.66,0,0,0,1.853-1.7l9.607-9.593,1.061,0.642-2.773,6.358a5.763,5.763,0,0,0-.612,2.069,1.724,1.724,0,0,0,.409,1.144,1.214,1.214,0,0,0,1.083.436,7.843,7.843,0,0,0,2.466-.729,17.058,17.058,0,0,0,2.991-1.706c0.439-.308,4.308-3.378,4.308-3.378l-1.046,2.979a8.744,8.744,0,0,0-.583,2.811,1.161,1.161,0,0,0,.26.771,1.523,1.523,0,0,0,1.407.413,6.067,6.067,0,0,0,2.057-.514,23.916,23.916,0,0,0,3.171-1.821c0.962-.619,7.055-5.271,7.055-5.271l-1.849,4.787a5.308,5.308,0,0,0-.452,1.915c0,0.723.263,1.187,1.543,1.1a9.176,9.176,0,0,0,5.24-2.008c2.555-2.089,3.63-3.067,4.761-3.083,0.466-.008,1.108-0.364.254-0.808s-2.132-.516-3.844.954c-2.222,1.913-2.878,1.859-3.192,1.882a0.952,0.952,0,0,1-1.134-.967,2.647,2.647,0,0,1,.257-1.05l5.982-14.59,3.586-.263,0.5-2.093-3.454.254,0.42-.938c2.225-4.964,2.69-6.925,2.69-7.694a0.828,0.828,0,0,0-.264-0.646,0.589,0.589,0,0,0-.484-0.2c-1.264.091-3.13,1.76-4.854,9.161l-0.117.507-3.976.29-0.657,2.1,3.783-.278-2.415,5.774c-0.872,1.068-1.933,2.253-3.165,3.515C317.622,730.276,313.762,733.671,313.438,733.9Z"/>
  <path id="アニメーション制作" class="cls-1" d="M330,807.971a9.979,9.979,0,0,1,.126,1.62c0,2.952-.432,4.86-2.72,6.444a7.117,7.117,0,0,1-1.891.99l2.089,1.71c4.918-2.628,5.008-6.3,5.008-10.764H330Zm8.521-3.762a8.988,8.988,0,0,1-1.82.162H327a14.3,14.3,0,0,1-2.2-.18v2.5c0.847-.072,1.441-0.126,2.2-0.126h9.385a10.7,10.7,0,0,1-3.315,3.348l1.856,1.494a18.11,18.11,0,0,0,4.341-4.932,9.071,9.071,0,0,1,.7-0.936Zm2.8,12.852c0.666-.054,1.549-0.108,2.251-0.108h10.34a19.591,19.591,0,0,1,1.982.108v-2.754a18.31,18.31,0,0,1-1.982.126h-10.34c-0.7,0-1.549-.072-2.251-0.126v2.754Zm1.513-8.946c0.612-.036,1.441-0.072,2.125-0.072h7.44c0.631,0,1.477.054,2,.072v-2.61c-0.505.054-1.279,0.108-2,.108H344.94c-0.612,0-1.459-.036-2.107-0.108v2.61Zm26.385-4.572a13.17,13.17,0,0,1-.432,1.656,19.632,19.632,0,0,1-1.982,4.266c-1.459-1.08-3.314-2.34-4.755-3.24l-1.55,1.854a46.659,46.659,0,0,1,4.828,3.4,19.651,19.651,0,0,1-6.845,5.31l2.071,1.854a22.5,22.5,0,0,0,6.7-5.562,35.858,35.858,0,0,1,3.981,3.96l1.856-2.07a46.652,46.652,0,0,0-4.287-3.96,25.679,25.679,0,0,0,2.431-4.9,14.421,14.421,0,0,1,.739-1.6Zm5.912,8.676c0.666-.054,1.873-0.09,2.9-0.09H387.7c0.757,0,1.675.072,2.108,0.09v-2.826c-0.469.036-1.279,0.108-2.108,0.108H378.03c-0.937,0-2.252-.054-2.9-0.108v2.826Zm21.611-8.748-1.315,1.98c1.189,0.666,3.062,1.89,4.071,2.592l1.351-2C399.911,805.4,397.93,804.137,396.741,803.471Zm-3.351,12.78,1.351,2.376a21.378,21.378,0,0,0,13.186-8.694l-1.387-2.448a18.357,18.357,0,0,1-7.007,6.75A20,20,0,0,1,393.39,816.251Zm0.577-8.676-1.315,2a47.073,47.073,0,0,1,4.107,2.556l1.315-2.016C397.155,809.465,395.174,808.223,393.967,807.575Zm26.735,1.242c0-.378,0-0.972.018-1.206-0.288.018-.954,0.036-1.387,0.036h-6.809c-0.666,0-1.765-.036-2.233-0.09v2.178c0.432-.036,1.567-0.072,2.233-0.072h5.945v2.178h-5.747c-0.684,0-1.5-.018-1.963-0.054v2.124c0.414-.018,1.279-0.036,1.963-0.036h5.747v2.394H411.66a15.491,15.491,0,0,1-1.568-.072v2.214c0.307-.018,1.045-0.054,1.55-0.054h6.827c0,0.27,0,.558-0.018.72h2.269c0-.324-0.018-0.936-0.018-1.224v-9.036Zm5.272-4.77-1.693,1.8a37.386,37.386,0,0,1,4.5,3.888l1.838-1.89A37.84,37.84,0,0,0,425.974,804.047Zm-2.252,11.988,1.514,2.376a19.529,19.529,0,0,0,6.683-2.538,19.149,19.149,0,0,0,6.665-6.66l-1.405-2.538a17.076,17.076,0,0,1-6.557,7A18.579,18.579,0,0,1,423.722,816.035ZM441,808.151c0.2-.4.415-0.846,0.613-1.35h1.819v1.35H441Zm4.468-1.35h3.224v-1.944h-3.224v-2.268h-2.036v2.268h-1.153a16.5,16.5,0,0,0,.415-1.638l-1.964-.414a14.032,14.032,0,0,1-1.657,4.662,16.652,16.652,0,0,1,1.621.684h-1.351v1.926h4.089v1.314h-3.386v6.462h1.909V813.3h1.477v5.976h2.036V813.3h1.585v2.628c0,0.18-.054.216-0.216,0.216a8.134,8.134,0,0,1-1.117-.018,6.733,6.733,0,0,1,.522,1.818,3.929,3.929,0,0,0,2.09-.324,1.634,1.634,0,0,0,.648-1.638v-4.59h-3.512v-1.314h3.945v-1.926h-3.945V806.8Zm6.755-2.844h-2v10.134h2V803.957Zm1.225-1.17v13.95a0.333,0.333,0,0,1-.4.4c-0.307,0-1.243,0-2.162-.036a9.4,9.4,0,0,1,.63,2.16,7.4,7.4,0,0,0,3.1-.414c0.648-.36.882-0.936,0.882-2.088V802.787h-2.053Zm7.74-.234a18.7,18.7,0,0,1-4.107,6.732,14.551,14.551,0,0,1,1.189,2.286c0.36-.4.739-0.846,1.117-1.3v9h2.162v-12.33a28.046,28.046,0,0,0,1.729-3.744Zm12.916,4.9v-2.034h-6.989a21.5,21.5,0,0,0,.883-2.232l-2.072-.522a17.874,17.874,0,0,1-3.819,6.786,14.57,14.57,0,0,1,1.639,1.494,19.935,19.935,0,0,0,2.36-3.492h0.685v11.844h2.2v-4h4.9v-1.98h-4.9v-2.034h4.666v-1.944h-4.666v-1.89H474.1Z"/>
  <path id="P.I.C.S._OLM" data-name="P.I.C.S. × OLM" class="cls-7" d="M304.486,853.963h4.656v-6.42H311.4c4.084,0,7.648-2.028,7.648-6.628,0-4.783-3.512-6.291-7.778-6.291h-6.789v19.339Zm4.656-10.085v-5.589h1.9c2.237,0,3.486.676,3.486,2.626,0,1.9-1.093,2.963-3.356,2.963h-2.029Zm15.693,10.449a2.874,2.874,0,1,0-2.757-2.885A2.772,2.772,0,0,0,324.835,854.327Zm6.663-.364h4.657V834.624H331.5v19.339Zm11.346,0.364a2.874,2.874,0,1,0-2.758-2.885A2.771,2.771,0,0,0,342.844,854.327Zm14.857,0a8.058,8.058,0,0,0,6.321-2.859l-2.445-2.911a5.035,5.035,0,0,1-3.694,1.767c-2.731,0-4.5-2.235-4.5-6.082,0-3.769,2.055-6,4.552-6a4.8,4.8,0,0,1,3.356,1.508l2.445-2.963a8.248,8.248,0,0,0-5.879-2.522c-4.917,0-9.235,3.691-9.235,10.138C348.622,850.948,352.784,854.327,357.7,854.327Zm11.155,0a2.874,2.874,0,1,0-2.758-2.885A2.772,2.772,0,0,0,368.856,854.327Zm12.672,0c4.682,0,7.387-2.833,7.387-6.056,0-2.73-1.43-4.341-3.824-5.3l-2.419-.962c-1.717-.675-2.939-1.091-2.939-2.157,0-1.04.884-1.612,2.315-1.612a6.3,6.3,0,0,1,3.98,1.482l2.315-2.911a9.009,9.009,0,0,0-6.3-2.548c-4.11,0-7.024,2.6-7.024,5.849a5.666,5.666,0,0,0,3.928,5.3l2.472,1.039c1.664,0.7,2.731,1.066,2.731,2.184,0,1.039-.806,1.689-2.523,1.689a7.834,7.834,0,0,1-4.709-1.975l-2.627,3.2A10.838,10.838,0,0,0,381.528,854.327Zm13.34,0a2.874,2.874,0,1,0-2.758-2.885A2.772,2.772,0,0,0,394.868,854.327Zm32.123-3.847-6.451-6.446,6.451-6.446-2.211-2.21-6.451,6.446-6.451-6.446-2.212,2.21,6.452,6.446-6.452,6.446,2.212,2.21,6.451-6.447,6.451,6.447Zm20.543,3.847c5.281,0,8.871-3.795,8.871-10.137,0-6.317-3.59-9.93-8.871-9.93s-8.87,3.587-8.87,9.93S442.253,854.327,447.534,854.327Zm0-4c-2.549,0-4.11-2.365-4.11-6.134,0-3.743,1.561-5.953,4.11-5.953s4.136,2.21,4.136,5.953C451.67,847.959,450.083,850.324,447.534,850.324Zm12.023,3.639h12.174v-3.9h-7.517v-15.44h-4.657v19.339Zm16.008,0h4.162v-6.628a64.234,64.234,0,0,0-.6-6.706h0.1l1.56,4.627,2.628,7.07h2.549l2.6-7.07,1.613-4.627h0.1a64.234,64.234,0,0,0-.6,6.706v6.628h4.24V834.624h-5.047l-2.965,8.344c-0.364,1.118-.676,2.34-1.067,3.535h-0.13c-0.364-1.2-.676-2.417-1.066-3.535l-3.07-8.344h-5.02v19.339Z"/>
  <path id="副監督" class="cls-1" d="M225.942,233.217v1.116h-1.82v-1.116h1.82Zm3.71,1.116h-1.819v-1.116h1.819v1.116Zm-1.819,2.772v-1.224h1.819v1.224h-1.819Zm-3.711,0v-1.224h1.82v1.224h-1.82Zm-1.927,2.322h1.927v-0.684h5.53v0.576h2.018v-7.74H222.2v7.848Zm6.791-10.386h-4.269v-1.314h4.269v1.314Zm-6.2-2.952v4.572h8.233v-4.572h-8.233Zm-0.954-.882h10v-1.8h-10v1.8Zm12.609-.378h-1.855v10.134h1.855V224.829Zm1.207-1.818v13.878a0.357,0.357,0,0,1-.432.414c-0.325,0-1.369,0-2.4-.036a8.252,8.252,0,0,1,.684,2.178,7.733,7.733,0,0,0,3.3-.432c0.7-.342.937-0.918,0.937-2.124V223.011h-2.09Zm6.48,6.5h1.513v0.99h-1.513v-0.99Zm1.513-4.626v0.9h-1.513v-0.9h1.513Zm2.378,3.24h-3.891v-0.972h3.891v0.972Zm2.305,2.376h-2.972v-0.99h2.432v-1.494a11.249,11.249,0,0,1,1.477,1.1,11.273,11.273,0,0,0,1.261-2.07H256v-1.8h-4.737a17.175,17.175,0,0,0,.63-2.2l-1.855-.378a12.054,12.054,0,0,1-2.252,5.22v-2.106h-2.432v-0.9H248.2v-1.62h-8.016V232.1h8.142v-1.6Zm7.224,1.044v-1.782H249.39v1.782h6.161Zm-11.907,3.15h1.549v2.43h-1.549v-2.43Zm5.062,0v2.43h-1.568v-2.43h1.568Zm3.512,0v2.43h-1.567v-2.43h1.567Zm2.09,2.43v-4.086H241.68v4.086h-1.909v1.836h16.392v-1.836h-1.855Zm8.8-9.846h3.171v-1.548h-3.369v-0.81h2.828v-1.458h-2.828v-0.81H261v3.078h-3.135v1.548h3.387v2.16c0,0.162-.036.216-0.216,0.216s-0.685,0-1.207-.018a11.321,11.321,0,0,0,.918-1.8l-1.639-.432a7.87,7.87,0,0,1-1.675,2.664,11.247,11.247,0,0,1,1.423.9,10.483,10.483,0,0,0,.973-1.314,6.913,6.913,0,0,1,.5,1.566,5.029,5.029,0,0,0,2.108-.252,1.355,1.355,0,0,0,.666-1.476v-2.214Zm6.215,5.544v0.684h-6.917v-0.684h6.917Zm-6.917,2.628v-0.72h6.917v0.72h-6.917Zm0,1.962v-0.738h6.917v0.738h-6.917Zm-2.072,2.07h2.072v-0.54h6.917v0.522h2.18v-8.172H260.337v8.19Zm10.682-14.436a8.2,8.2,0,0,1-1.243,1.836,7.641,7.641,0,0,1-1.189-1.836h2.432Zm1.225-1.728-0.342.072h-5.638v1.656H268.1l-1.3.378a12.1,12.1,0,0,0,1.585,2.7,9.32,9.32,0,0,1-2.252,1.206,11.347,11.347,0,0,0-1.315-1.872l-1.5.63a9.271,9.271,0,0,1,1.351,2.2l1.135-.522a7.106,7.106,0,0,1,.883,1.332,12.228,12.228,0,0,0,3.008-1.566,10.652,10.652,0,0,0,3.5,2.016,7.023,7.023,0,0,1,1.315-1.764,10.26,10.26,0,0,1-3.315-1.566,10.3,10.3,0,0,0,2.36-4.392Z"/>
  <path id="新田典生" class="cls-7" d="M201.222,253.88c-0.24.9-.6,1.949-0.9,2.729l1.8,0.36H196.99l1.321-.36a11,11,0,0,0-.811-2.729h3.722ZM205.6,268.9c-0.63-.48-2.911-2.219-3.992-2.909v-0.03H206.2v-3.629h-4.592v-1.829H206.5v-3.539h-2.581c0.36-.75.75-1.74,1.261-2.849l-1.291-.24h2.431v-3.509h-4.712v-2.549H197.38v2.549h-4.712v3.509h2.912l-1.591.39a12.473,12.473,0,0,1,.75,2.7h-2.431v3.539h5.072v1.829H192.4v3.629h4.172a18.518,18.518,0,0,1-5.1,5.248,18.356,18.356,0,0,1,2.821,3.089,19.551,19.551,0,0,0,3.091-3.329v4.979h4.232v-5.669c0.57,0.63,1.111,1.23,1.5,1.71Zm5.822-15.175a45.587,45.587,0,0,0,9-2.789l-3.481-3.149a34.355,34.355,0,0,1-7.293,2.669l-2.371-.66v10.467c0,4.048-.3,9.147-3.572,12.776a9.83,9.83,0,0,1,3.121,2.969c3.722-3.989,4.5-10.257,4.592-14.7h2.221v14.516h4.232V261.317h2.551V257.3h-9V253.73ZM238.2,269.355v-5.668h6.3v5.668h-6.3Zm-10.415-5.668h5.973v5.668h-5.973v-5.668Zm5.973-10.047v5.668h-5.973V253.64h5.973Zm10.744,5.668h-6.3V253.64h6.3v5.668Zm-21.068-9.867v26.182h4.351v-1.86H244.5v1.86h4.562V249.441h-25.63Zm35.746,12.446H261.1v3.119h-1.921v-3.119Zm1.921-7.017V257.9h-1.921V254.87H261.1Zm6.092,0V257.9h-2.041V254.87h2.041Zm6.123,0V257.9h-1.981V254.87h1.981Zm-6.123,10.136h-2.041v-3.119h2.041v3.119Zm4.142-3.119h1.981v3.119h-1.981v-3.119Zm9.094,3.119h-2.7V250.851h-6.393v-3.479h-4.142v3.479h-2.041v-3.479H261.1v3.479h-6.123v14.155h-2.941v4.109h7.653a32.114,32.114,0,0,1-7.773,3.659,35.2,35.2,0,0,1,3.451,3.149A38.187,38.187,0,0,0,264.761,271L262,269.115h8.013l-2.191,2.009a59.085,59.085,0,0,1,7.954,4.739l4.081-2.909a75.593,75.593,0,0,0-7.143-3.839h7.714v-4.109Zm18.158,5.908v-5.158H307.2v-4.2h-8.614v-4.588H308.4V252.71h-9.815v-5.218h-4.561v5.218h-3.842a37.485,37.485,0,0,0,1.321-3.9l-4.532-1.02c-1.021,4.049-2.942,8.157-5.253,10.616a28.921,28.921,0,0,1,3.932,2.64,26.7,26.7,0,0,0,2.611-4.079h5.763v4.588h-7.774v4.2h7.774v5.158H282.68v4.259h27.311v-4.259h-11.4Z"/>
  <path id="キャラクターデザイン" class="cls-1" d="M452.022,230.265c-0.469.144-1.135,0.288-1.838,0.432-0.81.162-2.288,0.4-3.909,0.666l-0.558-2.862,3.6-.576c0.541-.072,1.261-0.18,1.658-0.216l-0.433-2.358c-0.432.126-1.116,0.27-1.693,0.378-0.648.126-2.017,0.342-3.549,0.594-0.144-.81-0.252-1.4-0.288-1.656-0.09-.432-0.144-1.044-0.2-1.4l-2.54.414c0.126,0.432.252,0.864,0.36,1.368,0.054,0.288.181,0.882,0.325,1.638-1.55.252-2.937,0.45-3.567,0.522-0.558.072-1.1,0.108-1.675,0.126l0.486,2.484c0.54-.144,1.027-0.252,1.657-0.378,0.559-.09,1.946-0.324,3.531-0.576l0.54,2.88c-1.819.288-3.494,0.558-4.323,0.684-0.576.072-1.387,0.18-1.873,0.2l0.5,2.412c0.414-.108,1.027-0.234,1.8-0.378s2.468-.432,4.306-0.738c0.288,1.512.522,2.754,0.612,3.276,0.108,0.522.162,1.134,0.252,1.818l2.594-.468c-0.162-.576-0.342-1.224-0.468-1.764-0.108-.558-0.36-1.764-0.648-3.24,1.585-.252,3.044-0.486,3.908-0.63,0.685-.108,1.424-0.234,1.892-0.27Zm11.838,4.608a28.348,28.348,0,0,0,3.837-5.634l-1.441-1.026a3.439,3.439,0,0,1-.919.288c-0.7.162-3.224,0.648-5.512,1.08l-0.486-1.746c-0.108-.468-0.217-0.936-0.289-1.368l-2.413.576a6.3,6.3,0,0,1,.5,1.278c0.126,0.4.288,0.972,0.468,1.674-0.828.162-1.477,0.27-1.729,0.306-0.594.108-1.081,0.162-1.657,0.216l0.558,2.16c0.541-.126,1.856-0.4,3.369-0.72,0.648,2.466,1.387,5.256,1.657,6.228a10.553,10.553,0,0,1,.324,1.566l2.45-.594c-0.144-.36-0.378-1.152-0.486-1.476-0.289-.936-1.045-3.708-1.73-6.174,1.946-.414,3.729-0.774,4.162-0.864a15.907,15.907,0,0,1-2.648,3.24Zm18.593-6.552a3.8,3.8,0,0,1-1.315.18h-8.916c-0.559,0-1.333-.036-2.09-0.108v2.34c0.757-.072,1.657-0.09,2.09-0.09h8.7a7.8,7.8,0,0,1-1.855,3.114,12.145,12.145,0,0,1-6.251,3.15l1.8,2.034a13.49,13.49,0,0,0,6.43-3.888,12.928,12.928,0,0,0,2.666-4.986,6.687,6.687,0,0,1,.343-0.756Zm-10.664-1.908c0.523-.036,1.3-0.054,1.874-0.054h6.9c0.649,0,1.5.018,1.982,0.054v-2.322a17.017,17.017,0,0,1-1.946.09h-6.935a15.207,15.207,0,0,1-1.874-.09v2.322Zm27.826-.846a5.774,5.774,0,0,1-1.567.216h-3.621l0.055-.09c0.216-.4.666-1.206,1.1-1.836l-2.63-.864a8.66,8.66,0,0,1-.81,1.89,15.855,15.855,0,0,1-5.621,5.8l2.018,1.494a20.511,20.511,0,0,0,4.539-4.356h5.062a12.788,12.788,0,0,1-2.558,4.914,14.354,14.354,0,0,1-7.259,4.446l2.125,1.908a16.968,16.968,0,0,0,7.278-5.076A18.771,18.771,0,0,0,500.858,228a7.207,7.207,0,0,1,.595-1.3Zm16.522-.288a5.723,5.723,0,0,1-1.567.2h-3.693l0.018-.018c0.216-.378.685-1.206,1.117-1.836l-2.612-.81a7.923,7.923,0,0,1-.811,1.89,16.477,16.477,0,0,1-5.746,5.976l1.946,1.494a21.2,21.2,0,0,0,4.755-4.644h5.17a13.116,13.116,0,0,1-1.873,3.834c-1.207-.72-2.432-1.4-3.387-1.89l-1.531,1.71c0.919,0.522,2.144,1.26,3.368,2.052a15.231,15.231,0,0,1-6.719,4.032l2.09,1.818a17.193,17.193,0,0,0,6.647-4.482,20.7,20.7,0,0,1,1.675,1.278l1.64-2.106c-0.451-.324-1.063-0.738-1.73-1.152a20.7,20.7,0,0,0,2.486-4.932,8.371,8.371,0,0,1,.6-1.278Zm4.02,7.11c0.667-.054,1.874-0.09,2.9-0.09h9.673c0.756,0,1.675.072,2.108,0.09v-2.826c-0.469.036-1.279,0.108-2.108,0.108h-9.673c-0.937,0-2.252-.054-2.9-0.108v2.826Zm33.627-7.686a23.963,23.963,0,0,0-1.441-2.448l-1.423.594a21.386,21.386,0,0,1,1.441,2.484Zm-2.144.828c-0.342-.666-0.973-1.8-1.423-2.466l-1.441.594a24.749,24.749,0,0,1,1.423,2.5Zm-4.449,1.044c0.63,0,1.333.018,1.945,0.054v-2.322a14.143,14.143,0,0,1-1.945.144H541.3a13.482,13.482,0,0,1-1.927-.144v2.322c0.54-.036,1.315-0.054,1.927-0.054h5.891Zm-8.178,2.448a13.736,13.736,0,0,1-1.73-.108v2.358c0.5-.036,1.207-0.072,1.73-0.072h4.953a7.726,7.726,0,0,1-1.117,3.978,7.351,7.351,0,0,1-3.26,2.574l2.108,1.53a8.637,8.637,0,0,0,3.62-3.456,11.4,11.4,0,0,0,1.153-4.626h4.342c0.5,0,1.188.018,1.639,0.054v-2.34a13.641,13.641,0,0,1-1.639.108h-11.8Zm31.688-3.258c-0.234-.684-0.648-1.728-0.99-2.448l-1.225.4a16.122,16.122,0,0,1,.972,2.448Zm-1.891.594a18.128,18.128,0,0,0-.955-2.466l-1.207.4a23.613,23.613,0,0,1,.919,2.466Zm-2.5,1.062v-1.908a11.054,11.054,0,0,1,.126-1.656h-2.576a11.378,11.378,0,0,1,.108,1.656v1.908H559.7v-1.782A14.355,14.355,0,0,1,559.8,224h-2.558a14.621,14.621,0,0,1,.108,1.62v1.8h-1.531a11.346,11.346,0,0,1-1.945-.18v2.448c0.4-.036,1.044-0.072,1.945-0.072h1.531v2.448a14.557,14.557,0,0,1-.108,1.89h2.522c-0.018-.36-0.072-1.08-0.072-1.89v-2.448h4.269V230.3c0,4.428-1.531,5.976-5.007,7.2l1.927,1.818c4.359-1.926,5.422-4.644,5.422-9.108v-0.594h1.351c0.937,0,1.567.018,1.964,0.054v-2.394a10.347,10.347,0,0,1-1.982.144h-1.333Zm15.487,1.548a29.437,29.437,0,0,0,4.773-3.87l-1.927-1.746a19,19,0,0,1-4.7,4.068,27.672,27.672,0,0,1-8.2,3.258l1.3,2.2a35.244,35.244,0,0,0,6.2-2.448v5.9a20.158,20.158,0,0,1-.126,2.358h2.846a12.375,12.375,0,0,1-.162-2.358v-7.362Zm9.352-4.752-1.693,1.8a37.386,37.386,0,0,1,4.5,3.888l1.838-1.89A37.84,37.84,0,0,0,591.145,224.217Zm-2.251,11.988,1.513,2.376a19.521,19.521,0,0,0,6.683-2.538,19.149,19.149,0,0,0,6.665-6.66l-1.4-2.538a17.076,17.076,0,0,1-6.557,7A18.58,18.58,0,0,1,588.894,236.205Z"/>
  <path id="木下麦_中山裕美" data-name="木下麦・中山裕美" class="cls-7" d="M436.88,258.588V254.27H425.9v-6.778h-4.682v6.778H410.258v4.318h9.124a27.211,27.211,0,0,1-10.594,11.037,24.218,24.218,0,0,1,3.271,3.748,30.421,30.421,0,0,0,9.154-9.656v12.266H425.9V263.507a31.681,31.681,0,0,0,9.154,9.717,18.118,18.118,0,0,1,3.271-3.809,28.712,28.712,0,0,1-10.774-10.827h9.334Zm30.224-4.5v-4.409H440.062v4.409h10.5v21.8h4.712V262.427a48.458,48.458,0,0,1,7.5,5.218l3.271-4.018c-2.251-1.89-6.933-4.439-10.024-6l-0.75.869V254.09H467.1ZM486.823,266.6a14.7,14.7,0,0,1-3.121,2.129,13.78,13.78,0,0,1-3.092-2.129h6.213Zm3.932-3.659-0.751.18h-7.923c0.39-.45.78-0.9,1.141-1.35h14.165v-3.538H485.593v-1.02h8.433v-3.3h-8.433v-0.96h10.2v-3.539h-10.2v-1.919h-4.322v1.919H471.187v3.539h10.084v0.96h-8.194v3.3h8.194v1.02H469.806v3.538H477.7a19.755,19.755,0,0,1-7.983,4.679,12.731,12.731,0,0,1,3.031,3.179,33.181,33.181,0,0,0,3.722-1.92,19.575,19.575,0,0,0,2.881,2.819,46.04,46.04,0,0,1-9.334,1.74,14.469,14.469,0,0,1,1.861,3.809,46.337,46.337,0,0,0,11.765-2.939,36.6,36.6,0,0,0,11.825,2.849,17.988,17.988,0,0,1,2.551-3.989,46.141,46.141,0,0,1-9.664-1.47,17.225,17.225,0,0,0,5.342-5.938Zm11.135-1.2a4.2,4.2,0,1,0,4.2-4.2A4.213,4.213,0,0,0,501.89,261.737Zm29.464,0.78v-5.608h5.792v5.608h-5.792Zm-10.385,0v-5.608h5.763v5.608h-5.763Zm10.385-9.9v-5.128h-4.622v5.128H516.587v15.745h4.382v-1.559h5.763v9.177h4.622v-9.177h5.792v1.409h4.592V252.62H531.354Zm35.746,2.16v14.6h-5.793V248.422h-4.622v20.963h-5.522V254.87h-4.5v20.783h4.5v-1.77H567.1v1.68h4.562V254.78H567.1Zm36.046-.39a33.806,33.806,0,0,0-4.172-6.808l-3.6,1.739a32,32,0,0,1,3.872,7.018ZM592.1,271.184v-3.6h4.591v3.6H592.1Zm-0.991-7.5a33.519,33.519,0,0,0,3.3-5.189,33.8,33.8,0,0,0,3.392,5.189h-6.693Zm1.171-9.717a26.7,26.7,0,0,1-6.993,9.747l-0.21-.3c0.75-.96,1.59-2.159,2.431-3.3l-2.461-1.77a30.4,30.4,0,0,1-1.621,3l-0.57-.689a38.734,38.734,0,0,0,2.581-6.088,26.315,26.315,0,0,1,3.3,2.219,25,25,0,0,0,4.592-7.707l-4.082-1.05a16.382,16.382,0,0,1-3.751,6.118l-2.161-1.41-0.72.15h-0.151v-5.248h-3.991v5.248h-3.121v3.869H580.7a22.874,22.874,0,0,1-6.183,8.4,17.92,17.92,0,0,1,1.981,4.019,25.213,25.213,0,0,0,1.981-2.01v8.818h3.991V265.4c0.571,0.93,1.081,1.859,1.441,2.579l2.161-2.819a17.54,17.54,0,0,1,1.291,2.4c0.24-.18.48-0.39,0.72-0.6v9.027H592.1v-0.9h4.591v0.78h4.232v-8.817c0.21,0.179.42,0.359,0.63,0.509a24.077,24.077,0,0,1,2.371-4.018c-2.911-1.83-5.792-5.908-7.683-9.567h-3.961ZM633.01,269.3v-3.779H620.645c0.06-.42.12-0.87,0.18-1.319H632.65v-3.869H621.335v-0.99h9v-3.629h-9V254.72h10.114v-3.809h-5.042c0.51-.69,1.111-1.5,1.711-2.429l-4.712-1.11a19.866,19.866,0,0,1-1.741,3.359l0.66,0.18h-6.632l0.57-.24a11.623,11.623,0,0,0-2.011-3.269l-3.9,1.5a14.81,14.81,0,0,1,1.231,2.009h-4.742v3.809h9.994v0.989h-8.674v3.629h8.674v0.99H605.608V264.2h10.6c-0.06.449-.12,0.9-0.21,1.319H605.428V269.3h8.524c-1.591,1.259-4.292,2.129-9.154,2.729a12.418,12.418,0,0,1,2.191,3.929c7.233-1.17,10.594-3.149,12.245-6.028,2.4,3.628,5.853,5.428,11.915,6.118a16.409,16.409,0,0,1,2.611-4.049c-4.5-.24-7.653-1.05-9.754-2.7h9Z"/>
  <path id="PUNPEE" class="cls-7" d="M116.743,605.036h5.373v-7.407h2.611c4.712,0,8.823-2.339,8.823-7.648,0-5.518-4.051-7.257-8.973-7.257h-7.834v22.312Zm5.373-11.636v-6.448h2.191c2.581,0,4.021.78,4.021,3.029,0,2.19-1.26,3.419-3.871,3.419h-2.341ZM146.7,605.456c5.942,0,8.944-3.389,8.944-10.916V582.724h-5.163V595.11c0,4.228-1.35,5.728-3.781,5.728-2.461,0-3.722-1.5-3.722-5.728V582.724h-5.342V594.54C137.633,602.067,140.724,605.456,146.7,605.456Zm14.067-.42h5.1v-7.407c0-2.7-.45-5.758-0.69-8.248h0.15l2.191,4.889,5.522,10.766H178.5V582.724h-5.1V590.1a70.316,70.316,0,0,0,.72,8.247h-0.15l-2.191-4.948-5.552-10.676h-5.462v22.312Zm23.01,0h5.373v-7.407h2.611c4.712,0,8.823-2.339,8.823-7.648,0-5.518-4.051-7.257-8.973-7.257h-7.834v22.312Zm5.373-11.636v-6.448h2.19c2.582,0,4.022.78,4.022,3.029,0,2.19-1.26,3.419-3.871,3.419h-2.341Zm15.637,11.636h14.5v-4.5h-9.124V595.8h7.473v-4.5h-7.473v-4.139h8.794v-4.438H204.784v22.312Zm19.009,0h14.5v-4.5h-9.124V595.8h7.473v-4.5h-7.473v-4.139h8.794v-4.438H223.793v22.312Z"/>
  <path id="音楽" class="cls-1" d="M389.429,524.983v1.44H379.014v-1.44h10.415Zm-10.415,6.178v-1.5h10.415v1.5H379.014Zm-4.382,4.469h4.382v-0.9h10.415v0.9h4.621V521.414H374.632V535.63Zm13.326-22.373a29.556,29.556,0,0,1-.93,2.879l0.27,0.06h-6.063l0.27-.06a11.92,11.92,0,0,0-1.02-2.879h7.473Zm3.752,2.939c0.39-.81.84-1.769,1.35-2.819l-0.6-.12H396.3v-3.839H386.247v-2.249h-4.622v2.249h-9.514v3.839h4.112l-0.48.09a13.428,13.428,0,0,1,1.02,2.849h-6.3v3.869h27.161V516.2H391.71Zm16.148-2.759a21.947,21.947,0,0,0-4.772-4.379l-3,2.49a22.1,22.1,0,0,1,4.562,4.678Zm7.983,1.38H412v-1.44h3.842v1.44ZM412,517.846h3.842v1.469H412v-1.469Zm15.517,10.136v-3.749H416.231v-1.649h3.842v-3.239a40.819,40.819,0,0,1,5.582,3.719l2.7-3.269a52.393,52.393,0,0,0-6.993-4.049l-1.29,1.5v-3.419l2.551,1.679a42.832,42.832,0,0,0,4.952-4.618l-3.752-2.249a29.99,29.99,0,0,1-3.751,4.138v-2.669h-4.232c0.33-.75.66-1.589,0.99-2.459l-4.922-.51a23.094,23.094,0,0,1-.54,2.969h-3.391v8.937l-1.021-3.029c-2.641,1.38-5.312,2.759-7.143,3.569l2.161,3.6c1.831-1.05,4.022-2.369,6-3.6v3h3.811v1.649H400.625v3.749h7.653a28.8,28.8,0,0,1-8.584,3.9,21.11,21.11,0,0,1,2.911,3.629,27.226,27.226,0,0,0,9.184-5.489v5.609h4.442v-5.609a30.594,30.594,0,0,0,9.274,5.249,18.807,18.807,0,0,1,2.911-3.659,31.08,31.08,0,0,1-8.583-3.629h7.683Z"/>
  <path id="VaVa" class="cls-7" d="M369.7,605.036h6.422l6.723-22.312h-5.462l-2.521,10.166c-0.63,2.4-1.111,4.709-1.741,7.138h-0.15c-0.66-2.429-1.08-4.738-1.741-7.138l-2.551-10.166h-5.672Zm19.068,0.42a7.3,7.3,0,0,0,4.892-2.129h0.121l0.39,1.709h4.352V595.35c0-5.339-2.492-7.8-6.9-7.8a14.214,14.214,0,0,0-7.353,2.249l1.86,3.509a9.386,9.386,0,0,1,4.472-1.5c1.741,0,2.461.809,2.581,2.189-6.662.72-9.484,2.669-9.484,6.268A4.929,4.929,0,0,0,388.768,605.456Zm1.831-4.139c-1.11,0-1.831-.479-1.831-1.469,0-1.2,1.081-2.159,4.412-2.609v2.729A3.361,3.361,0,0,1,390.6,601.317Zm16.118,3.719h6.422l6.723-22.312H414.4l-2.521,10.166c-0.63,2.4-1.111,4.709-1.741,7.138h-0.15c-0.66-2.429-1.08-4.738-1.741-7.138L405.7,582.724h-5.672Zm19.068,0.42a7.3,7.3,0,0,0,4.893-2.129h0.12l0.39,1.709h4.352V595.35c0-5.339-2.491-7.8-6.9-7.8a14.214,14.214,0,0,0-7.353,2.249l1.86,3.509a9.386,9.386,0,0,1,4.472-1.5c1.741,0,2.461.809,2.581,2.189-6.662.72-9.484,2.669-9.484,6.268A4.929,4.929,0,0,0,425.785,605.456Zm1.831-4.139c-1.11,0-1.831-.479-1.831-1.469,0-1.2,1.081-2.159,4.412-2.609v2.729A3.361,3.361,0,0,1,427.616,601.317Z"/>
  <path id="OMSB" class="cls-7" d="M588.17,605.456c6.093,0,10.234-4.378,10.234-11.7,0-7.288-4.141-11.456-10.234-11.456s-10.234,4.138-10.234,11.456S582.077,605.456,588.17,605.456Zm0-4.618c-2.941,0-4.742-2.729-4.742-7.078,0-4.319,1.8-6.868,4.742-6.868s4.772,2.549,4.772,6.868C592.942,598.109,591.111,600.838,588.17,600.838Zm14.8,4.2h4.8v-7.647a74.146,74.146,0,0,0-.69-7.738h0.12l1.8,5.339,3.031,8.157h2.941l3-8.157,1.861-5.339h0.12a74.146,74.146,0,0,0-.69,7.738v7.647h4.892V582.724h-5.822l-3.422,9.627c-0.42,1.289-.78,2.7-1.23,4.078h-0.15c-0.421-1.379-.781-2.789-1.231-4.078l-3.541-9.627h-5.793v22.312Zm32.945,0.42c5.4,0,8.524-3.269,8.524-6.988,0-3.148-1.651-5.008-4.412-6.117l-2.791-1.11c-1.981-.78-3.392-1.26-3.392-2.489,0-1.2,1.021-1.86,2.671-1.86a7.263,7.263,0,0,1,4.592,1.71l2.671-3.359a10.4,10.4,0,0,0-7.263-2.939c-4.742,0-8.1,3-8.1,6.748,0,3.239,2.191,5.188,4.532,6.118l2.851,1.2c1.921,0.81,3.151,1.23,3.151,2.519,0,1.2-.93,1.95-2.911,1.95a9.028,9.028,0,0,1-5.432-2.28l-3.031,3.689A12.5,12.5,0,0,0,635.912,605.456Zm12.076-.42h8.433c4.862,0,8.734-2.039,8.734-6.6a5.062,5.062,0,0,0-3.962-5.248v-0.12a5.21,5.21,0,0,0,2.912-4.828c0-4.289-3.692-5.518-8.314-5.518h-7.8v22.312Zm5.372-13.465V586.8h2.221c2.251,0,3.3.66,3.3,2.25,0,1.529-1.02,2.519-3.3,2.519H653.36Zm0,9.357v-5.4h2.671c2.611,0,3.9.72,3.9,2.55,0,1.919-1.321,2.849-3.9,2.849H653.36Z"/>
  <path id="美術監督" class="cls-1" d="M37.08,345.219v-1.872h-7.53a10.716,10.716,0,0,0,.162-1.1h7.169v-1.908H29.929v-0.918h5.512v-1.8H29.929v-0.918h6.233v-1.89H32.829c0.36-.468.793-1.044,1.225-1.674l-2.306-.576a11.858,11.858,0,0,1-1.225,2.106l0.5,0.144H26.56l0.414-.18a7.12,7.12,0,0,0-1.333-2.052l-1.891.738a7.167,7.167,0,0,1,.937,1.494H21.571v1.89h6.161v0.918H22.4v1.8h5.332v0.918H20.85v1.908h6.593c-0.054.4-.108,0.756-0.18,1.1H20.742v1.872h5.692c-0.9,1.1-2.594,1.818-6.017,2.268a6.319,6.319,0,0,1,1.063,1.926c4.449-.72,6.449-2,7.4-3.924,1.405,2.358,3.585,3.528,7.3,3.96a8.27,8.27,0,0,1,1.279-1.98c-3.044-.216-5.1-0.882-6.341-2.25H37.08ZM55,333.591H50.729v1.872H55v-1.872Zm-4.449,1.944a14.082,14.082,0,0,0-1.225-2.448l-1.423.594a14.833,14.833,0,0,1,1.189,2.52Zm-9.187-2.9a12.614,12.614,0,0,1-3.026,3.438,11.417,11.417,0,0,1,1.1,1.6,17.91,17.91,0,0,0,3.855-4.356Zm2.216,7.488a18.069,18.069,0,0,1-.991,5.9,15.474,15.474,0,0,1,1.441.99,22.563,22.563,0,0,0,1.261-6.642ZM50.1,338.4v-1.962H47.775v-3.546H45.794v3.546H43.4v0.522l-1.621-.558a14.694,14.694,0,0,1-3.657,4.914,11.256,11.256,0,0,1,1.153,1.98c0.378-.342.739-0.738,1.117-1.152v7.29h1.963V339.5a20.821,20.821,0,0,0,1.045-1.836V338.4h2.4v10.746h1.981V338.4H50.1Zm-1.981,2.07a39.082,39.082,0,0,1,.721,5.364l1.657-.324a42.959,42.959,0,0,0-.811-5.346Zm7.151-1.818h-4.99v1.908h1.567v6.516c0,0.234-.072.288-0.306,0.288-0.216,0-.973,0-1.711-0.036a7.9,7.9,0,0,1,.577,2.088,5.93,5.93,0,0,0,2.7-.378c0.63-.342.775-0.918,0.775-1.926v-6.552h1.387v-1.908Zm3.777,0.828H60.56v0.99H59.046v-0.99Zm1.513-4.626v0.9H59.046v-0.9H60.56Zm2.378,3.24H59.046v-0.972h3.891v0.972Zm2.306,2.376H62.271v-0.99H64.7v-1.494a11.245,11.245,0,0,1,1.477,1.1,11.273,11.273,0,0,0,1.261-2.07h5.476v-1.8H68.179a17.176,17.176,0,0,0,.63-2.2l-1.855-.378a12.046,12.046,0,0,1-2.252,5.22v-2.106H62.271v-0.9h2.846v-1.62H57.1v8.838h8.142v-1.6Zm7.224,1.044v-1.782H66.306v1.782h6.161Zm-11.907,3.15h1.549v2.43H60.56v-2.43Zm5.062,0v2.43H64.054v-2.43h1.567Zm3.513,0v2.43H67.567v-2.43h1.567Zm2.09,2.43v-4.086H58.6v4.086H56.687v1.836H73.079v-1.836H71.224Zm8.8-9.846H83.2V335.7H79.829v-0.81h2.828v-1.458H79.829v-0.81H77.919V335.7H74.785v1.548h3.387v2.16c0,0.162-.036.216-0.216,0.216s-0.684,0-1.207-.018a11.317,11.317,0,0,0,.919-1.8l-1.639-.432a7.866,7.866,0,0,1-1.675,2.664,11.239,11.239,0,0,1,1.423.9,10.376,10.376,0,0,0,.973-1.314,6.914,6.914,0,0,1,.5,1.566,5.026,5.026,0,0,0,2.108-.252,1.355,1.355,0,0,0,.666-1.476v-2.214Zm6.215,5.544v0.684H79.324v-0.684h6.917Zm-6.917,2.628V344.7h6.917v0.72H79.324Zm0,1.962v-0.738h6.917v0.738H79.324Zm-2.072,2.07h2.072v-0.54h6.917v0.522h2.18v-8.172H77.253v8.19Zm10.682-14.436a8.227,8.227,0,0,1-1.243,1.836,7.641,7.641,0,0,1-1.189-1.836h2.432Zm1.225-1.728-0.342.072H83.179v1.656h1.837l-1.3.378a12.1,12.1,0,0,0,1.585,2.7,9.335,9.335,0,0,1-2.252,1.206,11.4,11.4,0,0,0-1.315-1.872l-1.5.63a9.3,9.3,0,0,1,1.351,2.2l1.135-.522a7.094,7.094,0,0,1,.883,1.332A12.229,12.229,0,0,0,86.62,339.5a10.647,10.647,0,0,0,3.495,2.016,7.04,7.04,0,0,1,1.315-1.764,10.255,10.255,0,0,1-3.315-1.566,10.307,10.307,0,0,0,2.36-4.392Z"/>
  <path id="加藤賢司" class="cls-7" d="M10.124,366.937c-0.21,9.237-.42,12.745-0.99,13.525a1.09,1.09,0,0,1-1.02.6c-0.54,0-1.441-.03-2.491-0.12,1.531-3.869,2.071-8.577,2.281-14h2.221Zm-2.131-4.259c0.03-1.529.03-3.119,0.03-4.768H3.731v4.768H0.55v4.259H3.671c-0.18,6.747-.93,12-4.112,15.744a12.223,12.223,0,0,1,3.181,3.269,17.845,17.845,0,0,0,2.851-4.858,11.345,11.345,0,0,1,1.17,4.229,15.015,15.015,0,0,0,3.662-.21,3.7,3.7,0,0,0,2.521-1.77c0.96-1.439,1.171-6.208,1.441-18.744,0.03-.539.03-1.919,0.03-1.919H7.993Zm11.855,16.345v-14.1h2.761v14.1H19.848Zm-4.172-18.294v24.532h4.172v-2.04h2.761v1.8h4.382V360.729H15.676Zm21.28,3.329h4.322V362.5h5.612v1.41h4.352V362.5h6.423v-3.479H51.243V357.43H46.891v1.589H41.278V357.43H36.957v1.589H30.624V362.5h6.333v1.56Zm13.926,15.924v-5.428h-3.6v8.037c0,0.27-.09.36-0.39,0.36H45.42l1.711-.959-0.72-2.729c-2.191.929-4.352,1.859-5.882,2.369l1.561,3.089c0.93-.48,1.891-1.02,2.881-1.53a12.018,12.018,0,0,1,.81,2.759,9.051,9.051,0,0,0,3.872-.509c0.99-.48,1.231-1.26,1.231-2.76v-0.659a34.782,34.782,0,0,1,4.232,3.059l2.4-2.4a42.652,42.652,0,0,0-5.642-3.628Zm-2.071-9.057c0.15-.39.3-0.779,0.42-1.169h0.54l0.36,1.169H48.812Zm-13.626,3.989c0.03-.69.03-1.32,0.03-1.949h1.531v1.949H35.186Zm1.561-6.928v1.77H35.216v-1.77h1.531ZM58,373.774v-2.849H53.644a10.141,10.141,0,0,1-.54-1.169H57V367H54.874c0.33-.6.72-1.29,1.14-2.01l-3.6-.839a27.672,27.672,0,0,1-.84,2.849H49.982c0.18-.81.33-1.68,0.45-2.579l-3.6-.27a26.007,26.007,0,0,1-.42,2.849H45.78l0.18-.06a8.575,8.575,0,0,0-1.11-2.729l-3,.9A10.336,10.336,0,0,1,42.6,367H41.458v2.759H45.54a10.608,10.608,0,0,1-.57,1.169H40.948v2.849h1.711a13.755,13.755,0,0,1-2.281,1.53V364.657H31.734v8.278c0,3.449-.15,8.037-2.071,11.216a14.855,14.855,0,0,1,3.031,1.919,19.514,19.514,0,0,0,2.281-7.947h1.771v3.989a0.337,0.337,0,0,1-.39.419c-0.27,0-1.11,0-1.831-.03a11.475,11.475,0,0,1,.96,3.389,7.118,7.118,0,0,0,3.721-.629c0.931-.6,1.171-1.53,1.171-3.089v-5.7a13.645,13.645,0,0,1,1.531,1.979c0.39-.21.78-0.42,1.141-0.63a8.458,8.458,0,0,1,1.17,1.859l2.791-1.649a7.563,7.563,0,0,0-1.531-2.1,15.621,15.621,0,0,0,1.8-2.16h4.172a12.712,12.712,0,0,0,1.381,1.95,17.2,17.2,0,0,1-1.741,2.369l2.491,1.23c0.51-.42,1.081-0.99,1.711-1.62a10.843,10.843,0,0,0,1.321.66,12.3,12.3,0,0,1,2.251-2.969,9.447,9.447,0,0,1-2.971-1.62H58Zm10.386,4.289H80.146v0.87H68.381v-0.87Zm0-3.059H80.146v0.84H68.381V375Zm0-3.059H80.146v0.84H68.381v-0.84Zm14.106-10.376a9.29,9.29,0,0,1-1.891,1.859,9.748,9.748,0,0,1-1.681-1.859h3.571ZM65.11,365.827H67.15v0.81H65.11v-0.81Zm2.041-5.278v0.78H65.11v-0.78H67.15Zm3.391,3.419H65.11v-0.78h5.432v0.78Zm14.046,5.788c0.51,0.15,1.02.33,1.561,0.45a13.55,13.55,0,0,1,2.491-3.359,20.951,20.951,0,0,1-4.862-1.44,13.624,13.624,0,0,0,3.812-6.028l-2.311-1.019-0.66.09H74.864v3.119h3.3l-2.671.779a15.41,15.41,0,0,0,1.951,2.789,21.394,21.394,0,0,1-3.632.99c0.15,0.15.3,0.3,0.48,0.51h-3.9v-0.81h3.481v-4.5H70.392v-0.78h3.751V358.27H61.568v10.646H74.323v-2.249a16.066,16.066,0,0,1,1.771,2.609,21.409,21.409,0,0,0,4.292-1.56,16.371,16.371,0,0,0,3.692,1.86H64.149V381.3H67.24a40.917,40.917,0,0,1-7.023,1.649,25.876,25.876,0,0,1,3.151,3.119,37.863,37.863,0,0,0,9.484-3.718l-2.311-1.05h7.443l-2.611,1.379a48.937,48.937,0,0,1,7.293,3.269l5.342-1.889c-1.711-.75-4.442-1.829-7.053-2.759h3.632V369.756Zm19.119,4.288v3.089H97.314v-3.089h6.393ZM108,380.852V370.326H93.053v12.685h4.262v-2.159H108Zm1.29-15.955H91.7v3.779h17.587V364.9Zm7.293-5.7H91.372v4.139H112.08v17.3c0,0.54-.21.69-0.75,0.69-0.57.03-2.491,0.03-3.991-.09a16.89,16.89,0,0,1,1.38,4.708c2.761,0.03,4.682-.09,6.063-0.839,1.41-.75,1.8-2.04,1.8-4.379V359.2Z"/>
  <path id="色彩設計" class="cls-1" d="M227.624,335.679a15.666,15.666,0,0,1-.991,1.512h-3.891c0.45-.486.883-1.008,1.279-1.512h3.6Zm4.017,5.8h-3.477v-2.358h3.477v2.358Zm-8.809-2.358h3.207v2.358h-3.207v-2.358Zm2.252,8.154c-1.946,0-2.252-.18-2.252-1.332v-2.556h8.809v0.72h2.2v-6.912h-4.7a23.342,23.342,0,0,0,1.513-2.52l-1.441-.954-0.414.126H225.3c0.2-.288.36-0.576,0.541-0.864l-2.324-.45a15.977,15.977,0,0,1-5.17,5.652,7.607,7.607,0,0,1,1.549,1.584c0.27-.2.522-0.4,0.775-0.612v6.8c0,2.646,1.008,3.312,4.431,3.312h6.125c2.954,0,3.728-.81,4.107-3.564a7.9,7.9,0,0,1-2.09-.774c-0.234,1.98-.522,2.34-2.18,2.34h-5.98Zm19.305-11.466a19.3,19.3,0,0,1-1.369,3.42l1.639,0.486c0.5-.792,1.135-2.016,1.73-3.168a8.243,8.243,0,0,1,1.513,1.566,17.367,17.367,0,0,0,4.918-4.338l-2.126-.882a12.693,12.693,0,0,1-4.251,3.528l0.054-.09Zm6.647,2.016a13.961,13.961,0,0,1-4.593,3.672,7.77,7.77,0,0,1,1.585,1.584,18.48,18.48,0,0,0,5.116-4.374Zm-10.9-1.512a9.863,9.863,0,0,1,1.117,2.736l1.765-.63a10.937,10.937,0,0,0-1.225-2.628Zm5.026-3.528a56.823,56.823,0,0,1-8.611,1.332,6.717,6.717,0,0,1,.559,1.764,59.194,59.194,0,0,0,9.331-1.3Zm-5.062,6.192a9.6,9.6,0,0,0-1.621-2.7l-1.567.684a9.774,9.774,0,0,1,1.513,2.844Zm5.98,3.78v-1.926H242.75v-1.584h-2.072v1.584h-3.746v1.926h3.08a13.061,13.061,0,0,1-3.711,3.726,8.847,8.847,0,0,1,1.279,1.908,17.53,17.53,0,0,0,3.1-3.2v4.194h2.072v-4.95a12.37,12.37,0,0,1,2.054,2.466l1.423-1.44a13.607,13.607,0,0,0-2.576-2.7h2.431Zm5.369,0.036a12.491,12.491,0,0,1-6.017,4.788,8.744,8.744,0,0,1,1.549,1.854,15.7,15.7,0,0,0,6.611-5.778Zm9.469-9.612h-5.44v1.62h5.44v-1.62Zm0.685,2.412h-7.043v1.692h7.043v-1.692Zm-0.649,4.968h-5.548v1.6h5.548v-1.6Zm6.882,1.71a8.542,8.542,0,0,1-1.694,2.43,8.873,8.873,0,0,1-1.747-2.43h3.441Zm-8.755,4.536h-1.909v-2.07h1.909v2.07Zm10.106-6.552-0.361.09h-6.34a5.7,5.7,0,0,0,2.233-5.022v-0.306h2.018v2.178c0,1.782.414,2.34,1.855,2.34h1.045c1.207,0,1.675-.63,1.855-2.862a6.113,6.113,0,0,1-1.747-.756c-0.018,1.566-.09,1.8-0.324,1.8h-0.451c-0.2,0-.234-0.054-0.234-0.558v-4.032H262.7v2.142a4.043,4.043,0,0,1-1.748,3.69v-0.864h-5.548v1.638h5.548v-0.684a9.56,9.56,0,0,1,1.5,1.3h-0.613v1.926h2.5l-1.837.594a12.521,12.521,0,0,0,2.071,3.114,11.817,11.817,0,0,1-3.639,1.548v-4.482h-5.584v6.138h1.82v-0.7h3.764v-0.918a9.023,9.023,0,0,1,1.117,1.854,14.557,14.557,0,0,0,4.125-1.962,12.561,12.561,0,0,0,3.963,1.962,9.266,9.266,0,0,1,1.387-1.854,12.292,12.292,0,0,1-3.71-1.548,12.148,12.148,0,0,0,2.774-5.238Zm10.064-7.074h-5.71v1.62h5.71v-1.62Zm0.684,2.412H272.57v1.692h7.367v-1.692Zm-2.648,9.144v2.07h-2.053v-2.07h2.053Zm1.874-1.692H273.38v6.138h1.856v-0.7h3.927v-5.436Zm-5.729-.882h5.783v-1.6h-5.783v1.6Zm0-2.43h5.783v-1.638h-5.783v1.638Zm16.123-1.1h-3.765v-5.94H283.63v5.94h-3.765v2.124h3.765v8.676h2.162v-8.676h3.765v-2.124Z"/>
  <path id="大関たつ枝" class="cls-7" d="M208.244,369.756v-4.529H196.719c0.241-2.639.271-5.278,0.3-7.767h-4.8c-0.03,2.489,0,5.128-.211,7.767H181.353v4.529h9.934c-1.2,4.888-3.961,9.387-10.534,12.356a13.652,13.652,0,0,1,3.3,3.718A20.728,20.728,0,0,0,194.859,374.1c2.311,5.309,5.612,9.3,10.894,11.726A18.814,18.814,0,0,1,209,381.692c-5.523-2.13-9-6.508-10.955-11.936h10.2Zm11.646-8.277v0.959h-3.661v-0.959h3.661Zm-3.661,4.588v-1.02h3.661v1.02h-3.661Zm7.743,2.909V358.539h-12V385.95h4.262V368.976h7.743Zm8.164,9.777v-3.059h-5.673v-1.14H231.9v-2.969h-2.04c0.33-.48.72-1.02,1.11-1.559l-3.631-.93h6.122v12.386c0,0.36-.09.51-0.45,0.51h-1.021a5.568,5.568,0,0,1,.391-0.42,8.933,8.933,0,0,1-5.283-2.819h5.043Zm1.32-17.274v0.959h-3.782v-0.959h3.782Zm-3.782,3.568h3.782v1.11h-3.782v-1.11Zm8.074-6.508H225.533V369.1h1.41a19.507,19.507,0,0,1-.78,2.489h-2.7a9.857,9.857,0,0,0-1.291-2.579l-3.331.93a9.275,9.275,0,0,1,.78,1.649h-1.8v2.969h4.772v1.14H217.4v3.059h4.5c-0.75,1.139-2.251,2.279-5.192,3.059a13.636,13.636,0,0,1,2.551,2.759,12.064,12.064,0,0,0,5.553-3.329,10.036,10.036,0,0,0,5.252,3.419,10.476,10.476,0,0,1,1.26-1.92,13.1,13.1,0,0,1,.781,3.209c1.86,0,3.241-.09,4.291-0.779,1.081-.69,1.351-1.77,1.351-3.629v-23Zm17.289,13.676a45.413,45.413,0,0,1,5.882-.33,43.149,43.149,0,0,1,5.162.39l0.09-4.319c-1.8-.18-3.6-0.27-5.252-0.27-1.951,0-4.172.15-5.882,0.33v4.2Zm2.581-10.5c-1.5.36-3.031,0.66-4.562,0.9l0.12-.51c0.15-.689.45-2.129,0.69-3.059l-5.492-.42a16.17,16.17,0,0,1-.09,3.329,10.643,10.643,0,0,1-.18,1.2c-0.781.03-1.591,0.06-2.371,0.06a30.945,30.945,0,0,1-3.842-.24l0.12,4.469c1.021,0.06,2.161.119,3.692,0.119,0.48,0,.99,0,1.5-0.03-0.15.69-.36,1.41-0.54,2.1a65.692,65.692,0,0,1-5.222,13.4l5.012,1.68A98.452,98.452,0,0,0,251.2,370.9c0.3-1.169.6-2.489,0.9-3.748a48.111,48.111,0,0,0,5.523-.93v-4.5Zm-4.562,13.5a21.048,21.048,0,0,0-.54,4.229c0,3.028,2.611,4.918,7.8,4.918a48.944,48.944,0,0,0,6.213-.42l0.18-4.588a37.816,37.816,0,0,1-6.363.629c-2.611,0-3.391-.779-3.391-2.009a10.783,10.783,0,0,1,.39-2.369Zm16.048-8.967,2.011,5.038c3.541-1.589,10.234-4.378,14.346-4.378,3.331,0,5.042,1.949,5.042,4.558,0,4.679-5.973,6.988-14.166,7.138l2.1,4.8c11.225-.54,17.257-5.338,17.257-11.846,0-5.788-4.412-9-10.024-9-4.382,0-10.534,2.1-12.695,2.759C271.925,365.617,270.184,366.067,269.1,366.247Zm40.658,7.827c-0.51-.779-2.821-3.868-3.871-5.1v-1.35h3.391v-4.108h-3.391V357.46h-4.172v6.058h-3.812v4.108h3.332a26.262,26.262,0,0,1-4.172,9.267A23.682,23.682,0,0,1,299.078,381a21.712,21.712,0,0,0,2.641-5.218V385.95h4.172V374.434c0.6,1.11,1.14,2.219,1.5,3.059Zm10.175-1.2a14.7,14.7,0,0,1-2.672,4.108,15.632,15.632,0,0,1-2.521-4.108h5.193Zm2.641-4.169-0.781.15h-1.77v-3H326v-4.049h-5.972V357.46h-4.322v4.348h-6.063v4.049h6.063v3h-5.643v4.019H314.5l-3.691.989a24.517,24.517,0,0,0,3.241,5.728,20.315,20.315,0,0,1-6.393,2.49,16.076,16.076,0,0,1,2.311,3.928,26.574,26.574,0,0,0,7.233-3.239,19.639,19.639,0,0,0,6.483,3.269,16.428,16.428,0,0,1,2.791-3.778,19.361,19.361,0,0,1-5.882-2.43,21.912,21.912,0,0,0,4.8-10.136Z"/>
  <path id="撮影監督" class="cls-1" d="M505.289,335.3h-4.972v-0.774h4.972V335.3Zm0,2.088h-4.972V336.6h4.972v0.792Zm2.054-4.248h-8.971v5.616h8.971v-5.616Zm-7.8,13.338v-1.008h1.387v0.81Zm0-3.222h1.387v0.828h-1.387v-0.828Zm1.387-2.2v0.792h-1.387v-0.792h1.387Zm6.07,0.594-0.342.036h-3.729v1.62h3.135a7.963,7.963,0,0,1-.667,1.8,9.324,9.324,0,0,1-.775-1.656l-1.513.4a12.35,12.35,0,0,0,1.279,2.736,5.715,5.715,0,0,1-1.693,1.242v-6.768h5.854v-1.656H496.805v0.756l-1.261.36v-2.538h1.387v-1.962h-1.387v-3.384h-1.91v3.384H491.8v1.962h1.837v3.042c-0.811.216-1.549,0.4-2.162,0.522l0.469,2.052c0.522-.144,1.1-0.306,1.693-0.468V347.2a0.262,0.262,0,0,1-.306.324c-0.216,0-.847,0-1.477-0.036a8.468,8.468,0,0,1,.522,1.944,4.461,4.461,0,0,0,2.45-.4,1.807,1.807,0,0,0,.721-1.836v-4.644l1.6-.486L497,341.061h0.864v5.67c-0.54.072-1.026,0.126-1.459,0.18l0.487,1.782c1.17-.216,2.594-0.5,4.035-0.792v1.6H502.7v-1.332a7.639,7.639,0,0,1,.775,1.278,7.022,7.022,0,0,0,2.053-1.44,7.4,7.4,0,0,0,2.036,1.458,6.485,6.485,0,0,1,1.171-1.458,6.9,6.9,0,0,1-2.108-1.386,12.2,12.2,0,0,0,1.5-4.752Zm16.856-8.766a12.39,12.39,0,0,1-4.27,3.546,8.8,8.8,0,0,1,1.532,1.53,17.229,17.229,0,0,0,4.791-4.23Zm0.324,5a13.632,13.632,0,0,1-4.522,3.654,8.8,8.8,0,0,1,1.532,1.53,18.377,18.377,0,0,0,4.971-4.338Zm-11.349-1.674h4.36v0.738h-4.36v-0.738Zm0-1.8h4.36v0.7h-4.36v-0.7ZM520.2,338.9H515.93v-0.774h3.224v-4.914h-8.232v4.914h3.062V338.9h-4.233v1.638H520.2V338.9Zm-8.791,6.462a7.681,7.681,0,0,1-1.855,2.592,11.352,11.352,0,0,1,1.531,1.026,10.991,10.991,0,0,0,2.108-3.132Zm1.441-2.718h4.234v1.08h-4.234v-1.08Zm6.161,2.466v-3.834h-7.98v3.834h2.954v2.448c0,0.18-.054.234-0.288,0.234-0.2.018-.919,0.018-1.6-0.018a6.827,6.827,0,0,1,.774,1.638,5.379,5.379,0,0,0,2.306-.306,1.319,1.319,0,0,0,.757-1.494v-2.5h3.08Zm5.548-2.34a10.97,10.97,0,0,1-4.936,4.572,22.76,22.76,0,0,0-1.531-1.962l-1.585.774a18.048,18.048,0,0,1,1.783,2.574l1.207-.612a6.512,6.512,0,0,1,1.027,1.314,14.034,14.034,0,0,0,6.143-5.922Zm5.705-3.294h1.513v0.99h-1.513v-0.99Zm1.513-4.626v0.9h-1.513v-0.9h1.513Zm2.378,3.24h-3.891v-0.972h3.891v0.972Zm2.306,2.376h-2.972v-0.99h2.431v-1.494a11.262,11.262,0,0,1,1.478,1.1,11.328,11.328,0,0,0,1.261-2.07h5.476v-1.8H539.4a17.341,17.341,0,0,0,.631-2.2l-1.856-.378a12.042,12.042,0,0,1-2.252,5.22v-2.106h-2.431v-0.9h2.846v-1.62h-8.016v8.838h8.142v-1.6Zm7.223,1.044v-1.782h-6.16v1.782h6.16Zm-11.907,3.15h1.549v2.43h-1.549v-2.43Zm5.062,0v2.43h-1.567v-2.43h1.567Zm3.513,0v2.43h-1.567v-2.43h1.567Zm2.089,2.43v-4.086H529.813v4.086H527.9v1.836H544.3v-1.836H542.44Zm8.8-9.846h3.17V335.7h-3.368v-0.81h2.828v-1.458h-2.828v-0.81h-1.91V335.7H546v1.548h3.386v2.16c0,0.162-.036.216-0.216,0.216s-0.684,0-1.207-.018a11.328,11.328,0,0,0,.919-1.8l-1.639-.432a7.873,7.873,0,0,1-1.676,2.664,11.176,11.176,0,0,1,1.423.9,10.29,10.29,0,0,0,.973-1.314,6.915,6.915,0,0,1,.5,1.566,5.024,5.024,0,0,0,2.107-.252,1.354,1.354,0,0,0,.667-1.476v-2.214Zm6.214,5.544v0.684h-6.917v-0.684h6.917Zm-6.917,2.628V344.7h6.917v0.72h-6.917Zm0,1.962v-0.738h6.917v0.738h-6.917Zm-2.071,2.07h2.071v-0.54h6.917v0.522h2.18v-8.172H548.47v8.19Zm10.682-14.436a8.264,8.264,0,0,1-1.243,1.836,7.611,7.611,0,0,1-1.189-1.836h2.432Zm1.225-1.728-0.343.072H554.4v1.656h1.837l-1.3.378a12.108,12.108,0,0,0,1.586,2.7,9.339,9.339,0,0,1-2.252,1.206,11.407,11.407,0,0,0-1.315-1.872l-1.5.63a9.3,9.3,0,0,1,1.351,2.2l1.135-.522a7.1,7.1,0,0,1,.882,1.332,12.235,12.235,0,0,0,3.009-1.566,10.637,10.637,0,0,0,3.494,2.016,7.072,7.072,0,0,1,1.315-1.764,10.254,10.254,0,0,1-3.314-1.566,10.311,10.311,0,0,0,2.36-4.392Z"/>
  <path id="天田_雅" data-name="天田 雅" class="cls-7" d="M505.471,372.905v-4.5H494.877v-4.648h11.4v-4.5H479.39v4.5H490.2v4.648h-9.874v4.5h9.244c-1.111,3.659-3.992,7.287-11.135,9.177a16.373,16.373,0,0,1,2.7,3.928c6.633-1.889,10.114-5.188,11.915-8.847a16.943,16.943,0,0,0,11.315,8.817,19.763,19.763,0,0,1,3.031-4.288c-6-1.26-9.484-4.319-11.465-8.787h9.544Zm19.36,6.418v-5.669h6.3v5.669h-6.3Zm-10.415-5.669h5.973v5.669h-5.973v-5.669Zm5.973-10.046v5.668h-5.973v-5.668h5.973Zm10.744,5.668h-6.3v-5.668h6.3v5.668Zm-21.069-9.867V385.59h4.352v-1.859h16.717v1.859H535.7V359.409H510.064Zm54.095,19.014h2.281v2.309h-2.281v-2.309Zm2.281-9.477h-2.281v-2.1h2.281v2.1Zm0,5.848h-2.281v-2.219h2.281v2.219Zm-14.647-12.116h1.741v5.278h-1.741v-5.278Zm22.33,18.054h-3.662v-2.309h2.851v-3.629h-2.851v-2.219h2.851v-3.629h-2.851v-2.1h3.362v-3.869H571c0.541-1.29,1.081-2.789,1.621-4.259l-4.292-.929a38.363,38.363,0,0,1-1.44,5.188H565c0.57-1.469,1.11-2.969,1.531-4.469l-4.2-1.049a28.815,28.815,0,0,1-4.772,10.226v-5.008h1.651v-3.929H546.361v3.929h1.591v5.278h-2.011V372.1h4.592a21.379,21.379,0,0,1-5.372,7.737,19.791,19.791,0,0,1,2.431,3.839,31.312,31.312,0,0,0,5.942-9.147v7.018a0.476,0.476,0,0,1-.57.57c-0.45,0-1.771,0-2.971-.06a16.277,16.277,0,0,1,1.29,3.928,10.158,10.158,0,0,0,4.8-.779c1.141-.63,1.471-1.71,1.471-3.629V372.1h1.921v-2.039l0.66,0.659V385.98h4.022v-1.319h9.964v-3.929Z"/>
  <path id="編集" class="cls-1" d="M714.385,343.149a13.119,13.119,0,0,1-.918,4.176,9.609,9.609,0,0,1,1.5.72,15.792,15.792,0,0,0,1.081-4.626Zm2.486-2.862c0.324-.414.631-0.864,0.955-1.332a11.215,11.215,0,0,1,.54,1.242Zm2.072,1.638a10.048,10.048,0,0,1,.234,1.026l1.5-.648a15.965,15.965,0,0,0-1.441-3.924l-1.4.576c0.792-1.134,1.567-2.34,2.234-3.438l-1.694-.774c-0.414.882-.954,1.926-1.549,2.934a9.269,9.269,0,0,0-.576-0.738c0.63-1.008,1.369-2.43,2.017-3.672l-1.819-.63a22.276,22.276,0,0,1-1.3,3.132c-0.144-.144-0.288-0.288-0.432-0.414l-1.027,1.386a15.268,15.268,0,0,1,2.089,2.61c-0.234.36-.486,0.72-0.72,1.044-0.523.018-.991,0.054-1.423,0.072l0.216,1.854,2.378-.18v7.29h1.8V342Zm8.79,4.284h0.757v1.368c0,0.144-.036.18-0.126,0.18-0.126,0-.36,0-0.631-0.018v-1.53Zm-2.089-1.512v-1.512h0.774V344.7h-0.774Zm-2.018,0v-1.512h0.721V344.7h-0.721Zm4.864-1.512V344.7h-0.757v-1.512h0.757Zm-0.667-5.256v1.188h-5.151v-1.188h5.151Zm2.414,3.654h-7.6c0.018-.27.018-0.522,0.018-0.774h7.223v-4.572H720.8v3.726a21.4,21.4,0,0,1-.54,5.382,12.837,12.837,0,0,0-.739-2.268l-1.4.414a13.305,13.305,0,0,1,.829,3.312l0.954-.306a7.63,7.63,0,0,1-.864,1.71,6.963,6.963,0,0,1,1.567,1.134,11.2,11.2,0,0,0,1.549-3.888v3.978h1.477v-3.222h0.721v3.078h1.3v-3.078h0.774v3.078h1.315v-1.476a6.957,6.957,0,0,1,.505,1.62,2.434,2.434,0,0,0,1.495-.342,1.594,1.594,0,0,0,.5-1.476v-6.03Zm-10.105-7.956v1.818h10.159v-1.818H720.132Zm16.044,6.894h3.4V341.3h-3.4v-0.774Zm3.4-3.564h-3.4v-0.738h3.4v0.738Zm0,2.16h-3.4v-0.756h3.4v0.756Zm8.7,6.21v-1.71H741.2v-0.7h6.611V341.3h-6.178v-0.774h4.791v-1.4h-4.791v-0.756h4.773v-1.4h-4.773v-0.738h5.656v-1.656h-5.386c0.324-.5.666-1.08,0.973-1.656l-2.414-.288a13.838,13.838,0,0,1-.793,1.944h-2.558c0.36-.522.685-1.026,0.973-1.548l-2.216-.414a14.463,14.463,0,0,1-4.269,4.9,6.734,6.734,0,0,1,1.513,1.44c0.36-.288.7-0.576,1.027-0.882v4.86H739.1v0.7h-6.99v1.71h5.368a21.82,21.82,0,0,1-5.962,2.214,11.593,11.593,0,0,1,1.369,1.764,20.185,20.185,0,0,0,6.215-2.97v3.078H741.2v-3.15a19.951,19.951,0,0,0,6.179,2.952,8.592,8.592,0,0,1,1.333-1.71,21.23,21.23,0,0,1-5.764-2.178h5.332Z"/>
  <path id="後田良樹" class="cls-7" d="M680.693,357.46a24.3,24.3,0,0,1-5.673,5.848,33.576,33.576,0,0,1,2.251,3.179,38.347,38.347,0,0,0,7.263-7.5Zm0.45,6.658a22.571,22.571,0,0,1-6.333,7.377,29.053,29.053,0,0,1,2.221,4.109,21.69,21.69,0,0,0,1.771-1.62v12h4.052V369.036a36.325,36.325,0,0,0,2.1-3.509Zm14.5,12.146a12.983,12.983,0,0,1-2.311,2.309,12.8,12.8,0,0,1-2.431-2.309h4.742Zm2.941-3.329-0.69.15h-4.472a13.992,13.992,0,0,0,.9-1.41l5.253-.18a12.076,12.076,0,0,1,.84,1.86l3.662-2.04a26.954,26.954,0,0,0-4.382-6.628l-3.362,1.83c0.39,0.48.751,0.99,1.141,1.529l-3.872.03c2.371-2.009,4.8-4.318,6.9-6.477l-3.872-2.13a47.6,47.6,0,0,1-4.5,5.069,13.038,13.038,0,0,0-1.141-.99c1.2-1.23,2.611-2.819,3.9-4.319l-3.752-1.949a30.012,30.012,0,0,1-2.941,4.229c-0.54-.36-1.081-0.72-1.591-1.02l-2.581,2.819a32.417,32.417,0,0,1,5.072,4.079c-0.3.269-.57,0.509-0.87,0.749-1.711.03-3.241,0.03-4.592,0.03l0.33,3.809,5.492-.15a17.9,17.9,0,0,1-6.272,4.978,23.242,23.242,0,0,1,2.791,3.239,19.621,19.621,0,0,0,2.161-1.469,18.756,18.756,0,0,0,1.771,1.979,26.124,26.124,0,0,1-6.663,1.919,14.137,14.137,0,0,1,2.041,3.659,29.744,29.744,0,0,0,8.1-2.939,23.919,23.919,0,0,0,8.1,2.879,16.517,16.517,0,0,1,2.582-3.718,29.1,29.1,0,0,1-7.083-1.77,16.465,16.465,0,0,0,4.291-6.478Zm22.841,6.388v-5.669h6.3v5.669h-6.3Zm-10.414-5.669h5.972v5.669h-5.972v-5.669Zm5.972-10.046v5.668h-5.972v-5.668h5.972Zm10.745,5.668h-6.3v-5.668h6.3v5.668Zm-21.069-9.867V385.59h4.352v-1.859h16.717v1.859h4.562V359.409H706.655Zm37.217,15h3.091a21.99,21.99,0,0,0,2.821,5.128c-1.951.3-3.961,0.6-5.912,0.87v-6Zm11.735-10.436V365.5H743.872v-1.529h11.735ZM757.2,374.4a39.556,39.556,0,0,1-3.841,2.639,12.487,12.487,0,0,1-1.831-2.639H757.2Zm-13.325-5.488h11.735v1.709H743.872v-1.709Zm16.237,4.678v-13.4H751.5V357.34h-4.562v2.849H739.37v20.843c-1.141.12-2.191,0.27-3.122,0.36l1.021,4.228c3.631-.569,8.463-1.289,12.9-2.039l-0.27-3.9c2.491,3.209,5.943,5.279,11.075,6.358a17.524,17.524,0,0,1,2.761-3.988,20.324,20.324,0,0,1-7.413-2.52,56.656,56.656,0,0,0,6.213-4.078Zm17.558-9.116h-2.911v3.358h9.6v-3.358h-2.971v-1.2H784.9v-3.389h-3.511V357.46h-3.722v2.429h-3.331v3.389h3.331v1.2Zm0.75,6.987h2.011v1.56h-2.011v-1.56Zm-3.451,1.71v2.759h9.094v-7.378h-9.094v4.289c-0.54-1.02-2.221-4.049-2.881-5.129v-0.239h2.1v-3.959h-2.1V357.46h-3.752v6.058h-2.671v3.959h2.611a29.842,29.842,0,0,1-3.331,9.6,21.557,21.557,0,0,1,1.68,3.569,21.55,21.55,0,0,0,1.711-4.049v9.357h3.752V372.875c0.45,1.169.84,2.309,1.08,3.149Zm4.142,6.9a20.574,20.574,0,0,0-1.051-3.9l-3.241.839a23.245,23.245,0,0,1,.84,4.049Zm4.111,0.39c0.421-1.049.9-2.279,1.381-3.509l-3.932-.9a37.309,37.309,0,0,1-1.23,4.948c-2.281.3-4.382,0.57-6.033,0.78l0.991,3.689c3.091-.51,7.143-1.14,10.894-1.77l-0.21-3.509Zm10.5-16.674h-1.591V357.58h-3.991v6.208H784.93v3.868h3.212v4.709c-0.241-1.05-.511-2.1-0.811-3.059l-3.091.96a48.3,48.3,0,0,1,1.38,7.857l2.522-.9v4.349a0.427,0.427,0,0,1-.481.51c-0.36,0-1.35,0-2.311-.06a15.663,15.663,0,0,1,1.2,3.958,7.757,7.757,0,0,0,4.262-.839c1.02-.66,1.32-1.74,1.32-3.569V367.656h1.591v-3.868Z"/>
  <rect id="長方形_625" data-name="長方形 625" class="cls-8" x="73" y="545.5" width="652.312" height="2"/>
  <rect id="長方形_625-2" data-name="長方形 625" class="cls-8" x="73" y="764.438" width="652.312" height="2"/>
</svg>
