<?xml version="1.0" encoding="utf-8"?>
<!-- Generator: Adobe Illustrator 24.0.1, SVG Export Plug-In . SVG Version: 6.00 Build 0)  -->
<svg version="1.1" id="story_title.svg" xmlns="http://www.w3.org/2000/svg" xmlns:xlink="http://www.w3.org/1999/xlink" x="0px"
	 y="0px" viewBox="0 0 537 242.4" style="enable-background:new 0 0 537 242.4;" xml:space="preserve">
<style type="text/css">
	.st0{fill-rule:evenodd;clip-rule:evenodd;fill:#F45F4A;}
	.st1{fill:#F45F4A;}
</style>
<path id="STORY" class="st0" d="M1.2,229.2c3.2,3.9,13.7,13.2,36,13.2c25.2,0,43.9-17.8,47.4-35.5c4.5-23.3-14.7-33.8-27.1-39.1
	C45,162.4,40.8,157.6,42,151.3c0.9-4.6,6.3-8.7,12.5-8.7c10.5,0,21.1,9.4,22.5,10.3c1.3,1.2,4.7-0.4,6.3-2.2l11.3-13.2
	c0.9-1.2,1.9-4.3,0-5.5c-9.5-8.2-21.6-12.8-34.2-12.9c-26.4,0-42.9,17.1-46.2,34.1c-4,20.6,12.3,32.1,25.9,37.9
	c10.8,4.6,15.7,10.1,14.3,17.3c-1.2,6-7,10.3-13.8,10.3c-11.3,0-21.9-9.1-22.5-9.4c-2-1.2-4.5-0.7-6,1L1.2,224.4
	C-0.6,226.9-0.2,227.5,1.2,229.2z M117.1,237.5c-0.3,1.4,0.6,2.9,2,3.2c0.2,0,0.4,0.1,0.6,0.1h20.6c1.9-0.1,3.4-1.4,3.9-3.3
	l17.8-91.5h24.5c1.9-0.1,3.5-1.4,3.9-3.3l3.6-18.7c0.4-1.4-0.5-2.8-1.9-3.2c-0.2-0.1-0.5-0.1-0.8-0.1h-76.1
	c-1.9,0.1-3.5,1.4-3.9,3.3l-3.6,18.7c-0.4,1.4,0.5,2.8,1.9,3.2c0.3,0.1,0.5,0.1,0.8,0.1h24.5L117.1,237.5z M187.3,180.9
	c-6.6,34.3,15.3,61.5,49.6,61.5s67-27.3,73.7-61.5S295.2,119,260.9,119S194,146.6,187.3,180.9L187.3,180.9z M214.7,180.9
	c3.7-18.9,22.1-34.5,40.8-34.5c18.9,0,31.3,15.6,27.6,34.5c-3.6,18.7-22.1,34.1-40.9,34.1C223.5,215,211.1,199.6,214.7,180.9z
	 M314.2,237.5c-0.4,1.4,0.5,2.8,1.9,3.2c0.2,0.1,0.5,0.1,0.7,0.1h20.4c1.9-0.1,3.4-1.4,3.9-3.3l8.5-43.7h11.8l14,45.4
	c0.4,1,1.4,1.6,2.4,1.5h22.8c2.2,0.1,4-1.6,4-3.8c0-0.4,0-0.8-0.2-1.2l-15-43.5c16.1-6,29-18.7,32.1-34.4c4-20.4-9.6-37-30.2-37
	h-51.3c-1.9,0.1-3.5,1.4-3.9,3.3L314.2,237.5z M353.9,172l5.2-26.8h25.4c7,0,11.9,5.8,10.5,13s-8.7,13.7-15.7,13.7H353.9z
	 M449,237.5c-0.4,1.4,0.5,2.8,1.9,3.2c0.2,0.1,0.5,0.1,0.7,0.1H472c1.9-0.1,3.4-1.4,3.9-3.3l10.6-54.7l49.5-57.1c1.8-2.2,1-5-1.8-5
	h-22.3c-1.2,0-2.3,0.6-3.1,1.5l-30.6,35.1l-17-35.1c-0.4-0.9-1.4-1.5-2.4-1.5h-22.3c-2.8,0-4.6,2.7-3.7,5l26.8,57.3L449,237.5z"/>
<g>
	<path class="st1" d="M286.2,44.2c0-6.2-3.7-11.1-8.3-11.1c-4.7,0-8.3,4.9-8.3,11.1s3.7,11.1,8.3,11.1
		C282.6,55.3,286.2,50.5,286.2,44.2"/>
	<path class="st1" d="M318,65.2c-2.5-8.4-12.8-11.3-20-13.2c-0.2,0-0.9-0.2-1-0.3c-0.3-0.1-0.5-0.3-0.5-0.7
		c-0.1-6.1-0.8-12.4-1.4-16c-0.2-1.1-0.4-2.2-0.7-3.3c-2.1-7.7-7.1-13.6-15.2-17.9c-1-0.5-2-1-3.1-1.4c-2.6-0.9-6-1.6-10.5-1.9
		c-0.9-0.1-1.7-0.8-1.7-1.8V7.4c0-3.8-3.1-6.8-6.8-6.8c-3.8,0-6.8,3.1-6.8,6.8v3.7c0,0.9-0.5,1.7-1.1,2.2c-0.8,0.6-1.4,1.3-2.1,2
		c-2.2,2.6-3.3,5.9-3.3,9.4v24.9c0,1.3,1.1,2.4,2.4,2.4s2.4-1.1,2.4-2.4V24.9c0-2.1,0.6-4.2,1.8-5.8c0.7-0.9,1.5-1.8,2.4-2.4
		c1.1-0.7,2.2-1.2,3.5-1.5c1.1-0.2,2.2-0.1,3.4-0.1c6.6,0.1,11.3,0.7,14.4,1.7c1.1,0.4,2.1,0.9,3.1,1.4c6.8,3.6,10.9,8.3,12.6,14.6
		c0.3,1.1,0.5,2.2,0.7,3.4C292,45,292.2,57.3,291,62c-0.3,1.1-1.2,1.9-2.2,2.4c-5,2.6-14.6,4-28.9,4.1c-1.1,0-2.3,0-3.4,0
		c-16.2-0.1-26.4-1.7-31.3-4.7c-0.1-0.1-0.2-0.1-0.3-0.2s-0.2-0.1-0.2-0.2c-1.9-2.6-2-18.6-0.2-28.8c0.2-1.1,0.4-2.3,0.8-3.3
		c2.1-5.8,7.9-10.9,10.5-12.9c0.9-0.7,2-1.2,2.3-2.3c0-0.1,0.1-0.2,0.1-0.4c0.1-1.2-0.6-2.2-1.7-2.6c-0.1,0-0.2-0.1-0.4-0.1
		c-1.1-0.1-2.1,0.7-2.9,1.4c-3,2.3-10.2,8.4-12.6,15.9c-0.3,1.1-0.6,2.2-0.8,3.3c-0.8,4.5-1.4,10.6-1.5,16.2c0,1.1,0,2.3,0,3.4
		c0.2,11.7,2.6,13.6,3.6,14.2c0,0,0,0,0.1,0l0,0l0,0c0,0,0,0,0.1,0c0.1,0.1,0.2,0.1,0.3,0.2s0.5,0.3,0.6,0.4
		c7.6,4.9,16,8.6,22.8,11.3c1,0.4,2.1,0.8,3.1,1.2c8.3,3.2,17.9,6.4,28.2,7.5c1.1,0.1,2.2,0.2,3.3,0.3c1.1,0.1,2.2,0.1,3.2,0.1
		c6.8,0,13.3-1.1,19.3-3.2c1.1-0.4,2.1-0.8,3.1-1.2c4.2-1.9,7.4-4.2,9.6-7.1c0.7-0.9,1.3-1.9,1.8-2.9c0.8-1.7,1.2-3.4,1.2-5.2
		C318.5,67.5,318.4,66.3,318,65.2"/>
</g>
</svg>
