<svg xmlns="http://www.w3.org/2000/svg" width="83.03" height="74.812" viewBox="0 0 83.03 74.812">
  <defs>
    <style>
      .cls-1 {
        fill: #ffc600;
        fill-rule: evenodd;
      }
    </style>
  </defs>
  <path id="mainvisual_taxi.svg" data-name="mainvisual/taxi.svg" class="cls-1" d="M3766.71,594.2h-1.31V582.339a12.383,12.383,0,0,0-7.84-11.279V559.688c0-6.489-5.72-11.767-12.74-11.767h-4.04v-4.69a7.161,7.161,0,0,0-7.16-7.148h-10.27a7.161,7.161,0,0,0-7.16,7.148v4.69h-4.03c-7.03,0-12.75,5.278-12.75,11.767v11.365a12.417,12.417,0,0,0-7.84,11.286V594.2h-1.3a3.3,3.3,0,1,0,0,6.6H3698v3.049a7.072,7.072,0,0,0,7.07,7.059h0.52a7.072,7.072,0,0,0,7.07-7.059V600.8h31.64v3.049a7.08,7.08,0,0,0,7.08,7.059h0.52a7.074,7.074,0,0,0,7.08-7.059V600.8h7.73A3.3,3.3,0,1,0,3766.71,594.2Zm-70.33-14.924a2.261,2.261,0,0,1,2.27-2.258h5.3a2.259,2.259,0,0,1,2.26,2.258v0.272a1.3,1.3,0,0,1-1.3,1.3h-7.23a1.3,1.3,0,0,1-1.3-1.3V579.28Zm62.18,1.567a0.377,0.377,0,0,1-.1.009h-7.24a1.294,1.294,0,0,1-1.29-1.3V579.28a2.259,2.259,0,0,1,2.26-2.258h5.3a2.261,2.261,0,0,1,2.27,2.258v0.272A1.3,1.3,0,0,1,3758.56,580.847Zm-57.05,14.281a1.927,1.927,0,0,1-1.47-.676,0.92,0.92,0,0,1-.18-0.248,1.869,1.869,0,0,1-.3-1.038v-2.078a1.956,1.956,0,0,1,1.95-1.962h7.92v-1.361a4.313,4.313,0,0,1,4.32-4.3h29.57a4.3,4.3,0,0,1,4.31,4.3v1.361h7.83a1.965,1.965,0,0,1,1.96,1.962v2.078a1.878,1.878,0,0,1-.31,1.038,1.159,1.159,0,0,1-.17.248,1.964,1.964,0,0,1-1.48.676h-53.95Zm21.29-51.9a0.553,0.553,0,0,1,.55-0.553h10.27a0.562,0.562,0,0,1,.56.553v4.69H3722.8v-4.69Zm-10.64,11.287h7.31l0.02,0h17.99l0.02,0h7.32c3.38,0,6.13,2.319,6.13,5.17v10.044h0a186.087,186.087,0,0,0-44.93,0h0V559.688C3706.02,556.837,3708.77,554.518,3712.16,554.518Z" transform="translate(-3686.97 -536.094)"/>
</svg>
