<?xml version="1.0" encoding="utf-8"?>
<!-- Generator: Adobe Illustrator 24.0.1, SVG Export Plug-In . SVG Version: 6.00 Build 0)  -->
<svg version="1.1" id="レイヤー_1" xmlns="http://www.w3.org/2000/svg" xmlns:xlink="http://www.w3.org/1999/xlink" x="0px"
	 y="0px" viewBox="0 0 802 201" style="enable-background:new 0 0 802 201;" xml:space="preserve">
<style type="text/css">
	.st0{fill-rule:evenodd;clip-rule:evenodd;fill:#E65D49;}
	.st1{fill:#E65D49;}
</style>
<path class="st0" d="M447.4,48.8c5-2.9,24.2,2.7,31-1.4c2.4-1.8,1.4-6.6,2.5-9.7c2.6-7.5,6.1-17.5,7-26.4c-3.3-1.7-9.2-0.5-14.2-1.4
	c-13-2.2-27.7,0-41-1.9c-2.5,0.3-5,0.6-7.5,0.8c-10.2,2.1-27.9,4.7-39.4,2.5c-6.8-1.3-16.5-2.9-22.9-1.9c-1.3,2.2-0.8,5.8-1.7,9.4
	c-1.9,8-5.5,17-6.1,26.9c-5.5-2-11.9-2.8-17.7-3.5c-7.6-0.9-16.2,3.3-24.5,4.1c-13.3,1.3-33.4,8.1-49.2,8.8c-2.6,0.1-5,0.9-7.5,1.7
	c-0.5-1.3-1.1-2.5-1.8-3.7c-1.2-3.2-2.4-6.3-3.6-9.5c-2.8-4.6-9.2-12.7-13.9-14.8c-14.7-6.6-24.7-4-43.4-3.4
	c-6.6,0.2-10.4,3.2-16.4,3.3c-2.3,0.6-4.5,1.1-6.8,1.7c-9.4,3.5-19.5,7.1-28.3,8c-1.3,0.1-3.5,0.3-5.9,0.5
	c-0.3-5.7-1.9-11.6-4.7-16.4c-2.6-2.4-5.2-4.8-7.7-7.2c-0.8-1.6-1.6-3.3-2.4-4.9c-1.4-0.6-2.7-1.2-4.1-1.7c-1.6-1.4-3.2-2.7-4.8-4.1
	c-7.3-3.6-16.5-3.3-26.3-3.2c-3,0.4-6.1,0.9-9.1,1.3c-2,0.7-4.1,1.4-6.1,2.1c-13.9,7.5-34.9,9.5-45.2,19.9c-1.7,2.5-3.3,5-5,7.5
	C8.4,45.8,2.7,60.2,0.2,79.8c0.1,3.7,0.2,7.3,0.3,11c-0.8,10-0.6,28,5.6,38.3c2.9,4.9,7.1,9.3,10.7,13.1c4.7,5.1,10.3,12.3,17,13.6
	c1.3-0.3,2.6-0.5,3.8-0.8c6.8,0.4,11.1,1.9,18.5-0.1c3.6-0.4,7.3-0.7,10.9-1.1c4.2-1,8.3-2.1,12.5-3.1c2.7-0.6,5.5-1.1,8.2-1.7
	c15.4-7,27.6-17.3,36.1-29.6c1.1,9.5,1.1,19.8,1.8,27.8c0.6,7.1-3.1,29.5,1,35.5c0.6,1,2.1,1.1,3,2c3.1-1.2,6.2-2.4,9.2-3.6
	c5.2-2.2,10.2-2.1,14.6-3.8c9.2-1.4,18.4-2.8,27.6-4.2c4.9-0.2,10.9-2.8,14.5-4.4c2-0.4,4-0.8,6-1.2c5.9-2.4,11.9-3.9,17.8-6.2
	c8.2-3.2,17.5-11.2,22-16.6c1.1-2.6,2.2-5.2,3.3-7.7c0.2-0.4,0.5-0.9,0.7-1.3c0.4,2.4,0.7,4.7,1.1,7.1c-0.4,6.3-1.6,12.9-1.5,20.4
	c0.1,10,1.5,16.9,0.9,26.7c-0.1,2.7-1.7,7.9,0.4,10.1c1.8,1.9,4.9,0.2,8.5-0.3c1.9-0.8,3.9-1.5,5.8-2.3c6.8-0.6,14.1-1.7,20.8-3.9
	c12.9-4.4,25.7-4.6,40.4-9.9c3.1-0.2,6.2-0.5,9.3-0.7c5.6-2,9.1-6.1,12.9-9.1c1.7-0.9,3.4-1.8,5.1-2.7c6.6-4.6,12.7-11.9,18-17.8
	c1-1.1,2-2.5,2.9-4.1c2.3,0.4,6.5,0,8.6-0.4c8.5-0.2,16.9-0.4,25.4-0.6c6,0.9,13.7,1.7,18.7,0c6.3-25.5,10.6-52.3,18.1-76.6
	C442.6,65.4,443.3,51.3,447.4,48.8 M82.8,100.7l-2.7,4.8c-1.2,2.3-7.7,10.8-11.2,10.8c-9.1-0.1-9.1-8.8-12.1-16
	c-4.9-11.6-2.5-38,1.7-47.4c1.4-3.1,4.2-5.7,5.9-8.6c4.6-1,10.5-1.1,13,1c0.9,0.8,6,10.9,6,12.4C83.3,70.9,85.3,88.5,82.8,100.7
	 M194.6,134.6c-1.7,2.2-12.8,6-16.8,6.8c-2.7-6.7-0.1-16.6-0.4-24c-0.3-8.6-1.7-18.6-1.2-28.1c0.4-8.1,2-15.9,2.4-24.6
	c5.3-0.5,15.8-0.9,19,2.1c4.7,4.5,4.5,17.2,4.8,23.4C203,105.6,202.2,125,194.6,134.6 M320.1,146c-3.3,5.2-12.7,12.4-21.5,12
	c-2.6-3.8-0.9-14.8-0.6-19.4c1-12.1,1.4-25.4,2.2-38.1c0.4-6.7-1.3-14.2,1.2-19.2c7.2-0.5,13.9,0,18,4.3c4.4,4.8,3.2,13.8,4.8,20.6
	C325.7,112.8,322.8,141.7,320.1,146 M382.3,75.8c-0.9,3.5-1.6,6.9-2.3,10.4c-0.4-5.4-1.2-10.9-2.6-13.9c-2.2-3-4.5-6.1-6.7-9.1
	c-2.7-4.4-4.3-9.7-7.8-12.9c-0.5-0.5-1.1-1-1.7-1.4c7.8,0.1,19.7-2.6,26.7-1.7C389.5,52.7,383.8,69.5,382.3,75.8"/>
<path class="st0" d="M692.9,96.3c-1.5-2.8-8-11.3-6.4-15.8c1.1-1.4,2.2-2.8,3.4-4.2c2.4-4.3,3.9-7.7,6.7-11.4c2-1.8,3.9-3.5,5.9-5.3
	c3.4-4.6,5.6-10.1,9.2-14.7c2.3-1.7,4.7-3.3,7-5c1.5-2.2,3-4.4,4.5-6.7c4.5-4.9,16.8-13.8,16.8-21.4c-0.4-0.6-0.7-1.3-1.1-1.9
	c-10.3-2.8-29-1.7-41,0c-3.1-0.4-6.1-0.7-9.2-1.1c-6.3,6.2-9.5,16.1-14.5,23.6c-3.8,4.4-7.6,8.9-11.4,13.3h-0.8
	c-2.3-3.7-2.6-10.1-4.2-13.9c-2.6-6.3-7.4-13.1-7.8-21.1c-8.6-5.5-15.1,0.7-25.1-0.6c-10-0.9-19.9-1.9-29.9-2.8
	c-1.2,0.7-2,0.8-2.8,1.9c3.7,10.2,8.7,20,13.1,29.4c5,10.7,9,24.7,14.8,36.6c-3.7,9-10.6,13.8-15.9,20.8c-1.8,2.8-3.5,5.6-5.3,8.3
	c-4.2,4.9-8.5,9.1-12.5,13.6c-0.7-2.8-1.3-5.5-1.7-8.1c-0.7-4,1-7.4,0.3-11.1c-2.7-14.9-3.5-30.9-6.1-46.4V38.5
	c-1-5.3-1.6-9.5-2.5-14.4c-0.8-4.5,1.3-9.4-0.3-13c-0.6-0.5-1.1-0.9-1.7-1.4c-4.5,0.3-8.9,0.6-13.4,0.8c-5.1,0.2-10.2,0.4-15.4,0.6
	c-8.1-0.9-17.1-1.4-25.1-1.7c-5.7,2.3-13,0.4-17.9,1.4c-4.7,9.9-10.3,18.8-14.8,28.3c-0.6,2.2-1.1,4.4-1.7,6.7c-1.4,3.2-4,6-5.6,8.9
	c-1.5,3.2-3,6.5-4.5,9.7c-4.1,6-8.2,12-12.3,18c-1.8,5-3.5,10-5.3,15c-4.3,6.7-8.6,13.3-12.8,20c-1.9,4.8-3.7,9.6-5.6,14.4
	c-2.3,4.6-7.9,9-8.1,15.3c0.5,0.5,0.9,0.9,1.4,1.4c11.3-0.1,22.5-0.2,33.8-0.3c5.4-0.2,12.8,1.5,18.4,0.6
	c1.5-3.6,8.4-20.3,10.9-21.9H529c2.7,5.6,2.5,17.1,3.1,22.2c2.6,1.5,8,1.4,11.7,0.8c7.4-1.1,16.8-2.3,26.4-2.1
	c2.4,0.4,5.6,0.6,9.3,0.8c2.4,0.4,4.8,0.7,7.4,0.3c12.7,0.3,27-0.1,29.8-1.2c2.2-1.3,3.5-6,5-8.1c5-6.8,10.3-13.3,15.1-20.5
	c1.7-2.1,3.4-4.3,5-6.4c0.6-0.2,1.1-0.4,1.7-0.6c2.2,4,1.7,9,3.4,14.4c1.6,3.7,3.2,7.4,4.7,11.1c1.8,4.5,1.1,7.4,4.5,10
	c4.8,0.9,10.3-0.6,15.9,0.3c8.4,1.3,32.9,1.4,39.9-0.6c0.4-0.6,0.7-1.3,1.1-1.9c-0.7-10.5-7.7-19.1-11.2-26.9
	C698.9,111.1,695.9,103.7,692.9,96.3 M529.9,92.4c-6.6,0.9-13.1-0.5-20.4-0.6c0.5-8.1,5.1-12.5,7.5-18.3c1.2-2.9,0.5-5.2,2-7.8
	c2.5-4.4,7.2-8.5,8.4-13.6c3.3,0.9,1.2,5.8,2,9.2C531.3,69.9,530.2,81.4,529.9,92.4"/>
<path class="st0" d="M801.8,11.6c-4.7-3.2-18.6-3-26.2-3.6c-7.9,3.1-24.9-1.6-31.3,1.7c-1.9,7.8-3.5,15.4-5.3,22.2
	c-0.5,4.2-0.9,8.3-1.4,12.5c-0.9,2.8-2.9,7.6-2.8,11.1c0.1,3.8,1.2,10.4,0,14.2c-2.4,7.9-5.9,15.6-8.1,24.2
	c-2.7,10.7-2.8,20-5.6,30.8c-1.5,5.9-4.7,14.7-3.9,21.4h0.6c3.3,3.1,12.4,0.8,17.9,0.8c8.8,0,16.9,0.9,24.8-0.3
	c4.8-0.7,9.6,0.6,13.1,0c2.9-5.2,2.3-13.9,3.9-20c4.3-16.1,7-34.7,11.2-50.5l0.6-14.7c1.5-6.2,5-11.4,6.4-17.2
	c0.4-4.3,0.7-8.5,1.1-12.8C798.3,25.4,802.7,18.5,801.8,11.6"/>
<path class="st1" d="M377.8,182.8v-6c1.1,0,1.9-0.1,2.4-0.3c0.8-0.4,1.5-1.1,2.1-2.1l3.5-5.4H378v-6h13.2v-4.2h6.8v4.2h5v6h-5v14.3
	h-6.8v-11.4l-3.9,6.4c-1.5,2.3-3.3,3.7-5.4,4.1C380.7,182.7,379.3,182.8,377.8,182.8"/>
<path class="st1" d="M446,172.3h-6.3c-0.6-3.4-1.3-6.7-2-9.7h6.2C444.4,164.4,445.1,167.6,446,172.3 M439.1,182.9v-5.8h8
	c2.6,0,4.4-0.4,5.4-1.1c0.9-0.6,1.3-1.7,1.3-3.2v-10.5h6.4v8.7c0,4.8-1,8-3,9.7c-1.4,1.1-3.4,1.7-6,2c-1.2,0.1-2.9,0.2-5.2,0.2
	H439.1z M445.1,162.6h6.1c0.8,3.1,1.5,6.3,2.1,9.7h-6.1C446.7,169.2,446,166,445.1,162.6"/>
<path class="st1" d="M499.9,183.4v-24.7h7.1v7.1c5.1,1.1,9.1,2.1,12.1,3.1v6.9c-4.2-1.5-8.2-2.6-12.1-3.3v10.9H499.9z M512,158.9
	h3.1v4.4H512V158.9z M516,158.9h3.2v4.4H516V158.9z"/>
<path class="st1" d="M563.3,173.9v-3.1c-1.9,1.9-4.3,2.9-7.3,3.2v-6.4c1.3-0.3,2.2-1,2.8-2.3c0.5-1,0.8-3,1-5.9h19.8v9.1
	c-0.1,5.5-1,9.2-2.7,11.1c-2,2.2-5.5,3.4-10.4,3.3h-8.8v-6.2h7.5c3,0,4.8-0.2,5.7-0.6c0.7-0.4,1.2-1.2,1.5-2.3H563.3z M572.8,165.5
	h-7.1c-0.2,0.7-0.4,1.6-0.8,2.8h7.9V165.5z"/>
<path class="st1" d="M624.5,165.2c-0.5,2.9-1.5,5-2.9,6.2c-1.6,1.3-3.7,2.1-6.4,2.6v-6.6c1.3-0.3,2.1-0.9,2.5-1.7
	c0.6-0.8,0.9-3.1,0.9-6.7H639v12.5c0,2.9-0.4,5-1.1,6.4c-1,2.1-2.7,3.5-5.1,4.3c-1.7,0.6-3.8,0.9-6.2,0.9H617v-6.1h7.4
	c2.9,0,4.8-0.3,5.8-1c1.2-0.8,1.8-2.3,1.8-4.5v-6.5H624.5z"/>
<path class="st1" d="M674.6,176.1h10.5c2.4,0,4.1-0.5,5-1.5c0.8-0.8,1.2-2.3,1.2-4.6v-8.6h6.9v9.6c0.2,7.8-4.1,11.7-13,11.6h-10.7
	V176.1z M686.8,160.7v6.1c-5.2-1.1-9.3-1.9-12.2-2.2v-5.9C678.2,159.1,682.3,159.7,686.8,160.7 M686.8,168.5v6
	c-3.6-0.9-7.6-1.6-12.2-2.1v-6.2C677,166.5,681.1,167.3,686.8,168.5"/>
<rect x="733.3" y="167.8" class="st1" width="24.8" height="6.3"/>
</svg>
